<svg xmlns="http://www.w3.org/2000/svg" viewBox="0 0 191 62"><defs><style>.cls-1{fill:#442334;fill-opacity:0.13;}.cls-2{fill:#db9cbc;fill-opacity:0.06;}</style></defs><g id="Capa_2" data-name="Capa 2"><g id="Capa_1-2" data-name="Capa 1"><path class="cls-1" d="M118.48,40.63A15.22,15.22,0,0,1,120.6,36a11.12,11.12,0,0,1,5.79-4.7,4.07,4.07,0,0,1,4.34.82,4.44,4.44,0,0,1,1.21,4,34.25,34.25,0,0,1-4.22,12c-.93,1.69-1.79,3.42-2.7,5.13s-1.46,3.91-2.3,5.81c-.51,1.17-.88,1.27-1.77.35-3.76-3.88-8-7.22-12-10.75A16.77,16.77,0,0,1,105,44.05a6.24,6.24,0,0,1,.18-7.14,5.23,5.23,0,0,1,5-2.11c3.55.35,6,2.47,7.88,5.38C118.19,40.33,118.25,40.52,118.48,40.63Zm-2.1,12.57a.81.81,0,0,0,0-.15,53.8,53.8,0,0,1-1.32-6.92c-.21-1.58-.48-3.16-.63-4.75a24,24,0,0,1-.37-3.59.26.26,0,0,0-.12-.28,9.2,9.2,0,0,0-2.72-1.22c0,.23,0,.38,0,.52a142.75,142.75,0,0,0,3.48,13.87C115,51.67,115.25,52.75,116.38,53.2Zm6.08-17.58a12.07,12.07,0,0,0-1.38,1.9c-.07.11-.17.2-.12.36a9.3,9.3,0,0,1,.24,2.68,62.89,62.89,0,0,0,.75,6.57c.27,1.75.55,3.49.74,5.25.09.79.21,1.56.33,2.49l.94-2a.5.5,0,0,0,0-.32c-.19-1.08-.32-2.16-.46-3.25-.42-3.39-.87-6.77-1-10.19C122.52,38,122.47,36.86,122.46,35.62Zm-13.67.54a1,1,0,0,0,0,.24,123.91,123.91,0,0,0,3.63,13A3.42,3.42,0,0,0,113.78,51a.83.83,0,0,0,0-.2,108.17,108.17,0,0,1-3.48-14.34c0-.19-.07-.42-.36-.41A4.21,4.21,0,0,0,108.79,36.16Zm17.4,12.32c.33-.58.56-1,.82-1.45a1.13,1.13,0,0,0,.15-.87,29.19,29.19,0,0,1-.34-3.09c-.15-2.85-.47-5.69-.55-8.54,0-.57-.09-1.15-.14-1.79-.35.25-.87.19-.86.74,0,.93,0,1.85.06,2.78q.17,3.48.39,7C125.82,44.92,126,46.62,126.19,48.48ZM114.83,38.23c.2,1.65.34,3.22.58,4.77.53,3.42,1.22,6.81,2,10.19a3.56,3.56,0,0,0,1.53,2.47s0,0,0,0a101.08,101.08,0,0,1-2.9-15.41A2.87,2.87,0,0,0,114.83,38.23Zm9.55-4.38c-1.06.75-1.06.75-1,1.84,0,.27,0,.53,0,.8a48.07,48.07,0,0,0,.32,5.37c.2,1.78.38,3.56.59,5.34.14,1.28.31,2.56.47,3.89a3.06,3.06,0,0,0,.58-2.41,92.38,92.38,0,0,1-.84-10C124.4,37.11,124.35,35.53,124.38,33.85Zm-4.19,5.46a12.48,12.48,0,0,0-1,2.78,1.47,1.47,0,0,0,0,.66c.69,3.59,1.25,7.21,2,10.78a30.45,30.45,0,0,0,1,3.94C121.81,51.38,120.44,45.41,120.19,39.31Zm-12.32-2.88-.68.34a.36.36,0,0,0-.21.46c.31,1.58.76,3.12,1.1,4.69s1,3.38,1.49,5.06A2.63,2.63,0,0,0,111,48.55C109.78,44.58,108.89,40.53,107.87,36.43ZM128,45a3.72,3.72,0,0,0,.57-2.76c-.12-2.5-.28-5-.25-7.49,0-.79-.16-1.57-.09-2.36-1.14-.07-1.14-.06-1.14,1,0,1.73.2,3.44.34,5.15s.21,3.28.37,4.91A5.55,5.55,0,0,0,128,45ZM117,40.63A.37.37,0,0,0,117,41q.72,3.89,1.45,7.76a86,86,0,0,0,2,8.38,2.58,2.58,0,0,0,1,1.21c-.07-.41-.19-.78-.29-1.16-.87-3.25-1.69-6.52-2.27-9.83-.26-1.53-.64-3-.82-4.57A3.93,3.93,0,0,0,117,40.63Zm-10.82-3a2.68,2.68,0,0,0-.59,1c-.89,2.24.34,5.74,2.61,7.31C107.46,43.23,107,40.47,106.22,37.66Zm22.92-5.14c.05,2.88.13,5.72.36,8.56a10.82,10.82,0,0,0,.44-1.2,13.13,13.13,0,0,0,.83-5.08A2.61,2.61,0,0,0,129.14,32.52Z"/><path class="cls-1" d="M23,14.88a34.71,34.71,0,0,1,4.21-4.12A21.5,21.5,0,0,1,38,6a16,16,0,0,1,5.89,0,8.65,8.65,0,0,1,6.29,5,10.38,10.38,0,0,1-.34,8.83,21.6,21.6,0,0,1-3.89,5.39c-3.11,3.4-6.38,6.65-9.67,9.88A114.56,114.56,0,0,0,25.92,47.18a85.9,85.9,0,0,0-5.71,8.17c-.25.41-.47.84-.7,1.27a.57.57,0,0,1-.67.36c-.28-.08-.33-.29-.29-.55a.73.73,0,0,0-.08-.36C14.47,49,10.9,41.65,6.82,34.6a81.27,81.27,0,0,1-4.53-8.36A24.69,24.69,0,0,1,0,16.61,14.61,14.61,0,0,1,2.41,7.83,8.82,8.82,0,0,1,8.48,4.16c5.78-1,10.92,2.69,13.24,7.26A13.1,13.1,0,0,1,23,14.88ZM19.17,54.41c.09-.12.15-.17.19-.24a61.79,61.79,0,0,1,3.5-5.37A125.55,125.55,0,0,1,36.57,32.33c2.91-2.86,5.73-5.8,8.51-8.77a14.25,14.25,0,0,0,4-6.95c.62-3.12-.68-7.37-4.77-8.69a10.77,10.77,0,0,0-4.27-.5,21.58,21.58,0,0,0-6,1.11,25.58,25.58,0,0,0-10.6,8.11,5.82,5.82,0,0,1-.46.53.67.67,0,0,1-.77.12.6.6,0,0,1-.3-.65,2.29,2.29,0,0,0,0-.69A11.58,11.58,0,0,0,20,11.58C17.5,8,14.18,5.73,9.62,5.82A7.08,7.08,0,0,0,3.09,9.71a14,14,0,0,0-1.3,8.64A27.9,27.9,0,0,0,5.32,28.47Q12,40.38,18.21,52.52C18.53,53.12,18.83,53.74,19.17,54.41Z"/><path class="cls-1" d="M137.93,41.58c.12-.56.19-1,.33-1.52a6.14,6.14,0,0,1,2.45-3.39,3.4,3.4,0,0,1,4.78.7,3.65,3.65,0,0,1,.45,2.64,41.73,41.73,0,0,1-1.82,7c-.73,2.33-1.33,4.69-2,7a1.51,1.51,0,0,1-.31.62.74.74,0,0,1-1,.15c-3-2.22-6.34-4.07-8.72-7a8.46,8.46,0,0,1-2-4,3.76,3.76,0,0,1,4.81-4.25A5.23,5.23,0,0,1,137.93,41.58Z"/><path class="cls-1" d="M132.27,14.79a12.39,12.39,0,0,1,3.32-3.9A4.71,4.71,0,0,1,139,9.84a3.36,3.36,0,0,1,3,4.14,13.51,13.51,0,0,1-2.78,5.73c-1.6,2.17-3.42,4.16-5,6.36-.54.74-1,1.54-1.48,2.31-.23.35-.44.72-.69,1.05a1,1,0,0,1-1.89-.06,27.28,27.28,0,0,1-1.81-3.21c-1.33-2.62-3.07-5-4.46-7.59a15.64,15.64,0,0,1-1.73-4.21A4.1,4.1,0,0,1,123.56,10a4.22,4.22,0,0,1,4.69-.58c1.88.88,2.8,2.54,3.57,4.34.13.3.23.61.35.92Zm6.8-2.35c-.14-.71-.28-.93-.64-1a2.47,2.47,0,0,0-2.24,1.25C137.1,12,138,11.43,139.07,12.44ZM127.94,20.6c-.19-.67-.38-1.34-.55-2-.1-.39-.35-.47-.75-.46A12.11,12.11,0,0,0,127.94,20.6ZM131,17a3.19,3.19,0,0,0-.82-2.66C130.48,15.18,130.75,16.07,131,17Z"/><path class="cls-1" d="M154.57,5.21a12.17,12.17,0,0,1,3.83-3.28,5.17,5.17,0,0,1,4.8-.35,4.7,4.7,0,0,1,2.6,5.67,12.52,12.52,0,0,1-2.69,4.66,45.38,45.38,0,0,1-5.58,5.16c-1.34,1.14-2.65,2.29-4.06,3.34-1.22.91-1.87.78-2.77-.46a35.27,35.27,0,0,1-2.8-5.21,50.89,50.89,0,0,1-3.25-7.08,13.35,13.35,0,0,1-.59-2.42A4.24,4.24,0,0,1,147.73.08a5.67,5.67,0,0,1,6,3.12A11.47,11.47,0,0,1,154.57,5.21ZM153,18.93l3-2.74a.78.78,0,0,0,.19-.33,60,60,0,0,1,3.31-7.74c.81-1.76,1.72-3.47,2.69-5.15-.21-.06-.36-.12-.53-.15a1.53,1.53,0,0,0-1.82.68c-.46.76-1,1.49-1.4,2.28a92.82,92.82,0,0,0-4.38,10.07A25.46,25.46,0,0,0,153,18.93Zm5.76-15.39a7.75,7.75,0,0,0-3.56,3.79,50.43,50.43,0,0,0-4.13,9.75.5.5,0,0,0,0,.43c.24.47.46.95.71,1.47C153.81,13.68,155.74,8.4,158.76,3.54Zm-9.9,9.35a38.41,38.41,0,0,1,4-7.13c.1-.15.24-.27.11-.51a11.41,11.41,0,0,0-.86-1.44c-.43.15-.53.55-.74.84a21.17,21.17,0,0,0-2,3.17c-.4.8-.75,1.63-1.23,2.4a1.06,1.06,0,0,0-.15,1C148.28,11.75,148.55,12.26,148.86,12.89Zm14.32-9.44c-1,1.29-5.07,10-5.12,11,.56-.45,1.31-.82,1.49-1.44a26.69,26.69,0,0,1,1.3-2.56,43.41,43.41,0,0,1,3-5.51.63.63,0,0,0,0-.77A3.13,3.13,0,0,0,163.18,3.45ZM150.56,2.28l-.55.66a16.79,16.79,0,0,0-3.14,5c-.08.21-.23.41-.1.67.22.43.41.87.66,1.4a36.41,36.41,0,0,1,4.19-6.83A3.72,3.72,0,0,0,150.56,2.28Zm2.78,4.42a31.7,31.7,0,0,0-3.69,7.08.82.82,0,0,0-.05.67c.27.52.53,1.05.85,1.7A34.06,34.06,0,0,1,154,7.62,1,1,0,0,1,153.34,6.7Zm-3.66-4.84A3.68,3.68,0,0,0,147,2a2.24,2.24,0,0,0-1.42,2.26,8.84,8.84,0,0,0,.66,2.87A24.87,24.87,0,0,1,149.68,1.86Zm14.73,3.78c-.94.29-.86,1.2-1.24,1.81-.59,1-1,2.05-1.53,3-.1.19-.32.36-.19.67C162.91,9.56,164.21,7.91,164.41,5.64Z"/><path class="cls-1" d="M50.57,44.21a12.17,12.17,0,0,1,3.83-3.28,5.17,5.17,0,0,1,4.8-.35,4.72,4.72,0,0,1,2.61,5.67,12.68,12.68,0,0,1-2.7,4.66,46.11,46.11,0,0,1-5.58,5.16c-1.34,1.14-2.65,2.29-4.06,3.34-1.22.91-1.87.78-2.77-.46a35.27,35.27,0,0,1-2.8-5.21,50.89,50.89,0,0,1-3.25-7.08,13.35,13.35,0,0,1-.59-2.42,4.24,4.24,0,0,1,3.67-5.16,5.67,5.67,0,0,1,6,3.12A11.47,11.47,0,0,1,50.57,44.21ZM49,57.93l3-2.74a.78.78,0,0,0,.19-.33,60,60,0,0,1,3.31-7.74c.81-1.76,1.72-3.47,2.69-5.15-.21-.06-.36-.12-.53-.15a1.53,1.53,0,0,0-1.82.68c-.46.76-1,1.49-1.4,2.28A92.82,92.82,0,0,0,50.1,54.85,25.46,25.46,0,0,0,49,57.93Zm5.76-15.39a7.8,7.8,0,0,0-3.56,3.79,50.43,50.43,0,0,0-4.13,9.75.5.5,0,0,0,0,.43c.24.47.46,1,.71,1.47C49.81,52.68,51.74,47.4,54.76,42.54Zm-9.9,9.35a37.85,37.85,0,0,1,4-7.13c.1-.15.24-.27.11-.51a11.41,11.41,0,0,0-.86-1.44c-.43.15-.53.55-.74.84a20.4,20.4,0,0,0-2,3.17c-.4.8-.75,1.63-1.23,2.4a1.06,1.06,0,0,0-.15,1C44.28,50.75,44.55,51.26,44.86,51.89Zm14.32-9.44c-1,1.29-5.07,10-5.12,11,.56-.45,1.31-.82,1.5-1.44a24.51,24.51,0,0,1,1.29-2.56,44.62,44.62,0,0,1,3-5.51.62.62,0,0,0,0-.77A3.13,3.13,0,0,0,59.18,42.45ZM46.56,41.28c-.2.24-.37.46-.55.66a17,17,0,0,0-3.14,5c-.08.21-.23.41-.1.67.22.43.41.87.66,1.4a36.41,36.41,0,0,1,4.19-6.83A3.72,3.72,0,0,0,46.56,41.28Zm2.78,4.42a31.7,31.7,0,0,0-3.69,7.08.82.82,0,0,0,0,.67c.27.52.53,1,.85,1.7A34.06,34.06,0,0,1,50,46.62,1,1,0,0,1,49.34,45.7Zm-3.66-4.84A3.63,3.63,0,0,0,43,41a2.24,2.24,0,0,0-1.42,2.26,8.84,8.84,0,0,0,.66,2.87A24.87,24.87,0,0,1,45.68,40.86Zm14.73,3.78c-.94.29-.86,1.2-1.24,1.81-.59.95-1,2-1.53,3-.1.19-.32.36-.19.67C58.91,48.56,60.21,46.91,60.41,44.64Z"/><path class="cls-1" d="M172.08,38.61A8.49,8.49,0,0,1,174.51,35a3,3,0,0,1,3.27-.74,3.65,3.65,0,0,1,2.15,3.06,9.9,9.9,0,0,1-.84,5c-.61,1.66-1.5,3.17-2.24,4.77a23.56,23.56,0,0,0-1.7,4.93,3.54,3.54,0,0,1-.11.44c-.22.69-.71.82-1.19.3s-1.12-1.24-1.65-1.9a30.29,30.29,0,0,0-6.1-5.55A7.22,7.22,0,0,1,163,39.87c-.26-3,2.18-5.2,5-4.45C169.64,35.86,170.5,36.53,172.08,38.61Zm.57,10.74c0-.05,0-.11-.05-.15-1.56-3.39-3.08-6.81-4.81-10.11a3.35,3.35,0,0,1-.5-2.31c-1.06-.19-1.38.15-1.11,1.16,0,.18.11.36.17.54.61,1.71,1.36,3.36,2.11,5a14.7,14.7,0,0,0,1.47,2.91A39.92,39.92,0,0,0,172.65,49.35Zm1.64,1.32a3.16,3.16,0,0,0,0-2.47c-1.36-2.7-2.7-5.42-3.9-8.21a4.06,4.06,0,0,1-.46-1.39,1,1,0,0,0-.55-1c-.34-.18-.63-.5-1.06-.47C168.24,37.41,173.43,49.08,174.29,50.67Zm-3.15-11.34,3.9,8.56c.31-.75.58-1.43.84-2-1.42-1.89-2-4.2-3-6.26C172.32,39.9,172,39.86,171.14,39.33Zm-6.07-1.78a2.26,2.26,0,0,0-.77,1.59,5.07,5.07,0,0,0,.82,2.86,7.92,7.92,0,0,0,3,2.9C167,42.48,165.66,40.19,165.07,37.55Zm11.14,7.62.72-1.48c.07-.13.15-.24,0-.4A12.53,12.53,0,0,1,175.28,40c-.44-1-.82-2-1.28-3.14-.17.61-.78.89-.46,1.59C174.52,40.64,175.29,42.9,176.21,45.17Zm0-9.85c.7,1.75,1.44,3.44,2,5.27a7.67,7.67,0,0,0,.48-2.7,3.12,3.12,0,0,0-.67-2A1.5,1.5,0,0,0,176.21,35.32Zm1.17,7.35a1.62,1.62,0,0,0,.07-2.11,6.22,6.22,0,0,1-.58-1.22c-.53-1.21-1-2.41-1.57-3.64a1.76,1.76,0,0,0-.53.45C175.65,38.36,176.51,40.51,177.38,42.67Z"/><path class="cls-1" d="M111.55,7.93a17.42,17.42,0,0,1,1.69-2.58,3.82,3.82,0,0,1,1.06-.9,1.87,1.87,0,0,1,2-.14,2,2,0,0,1,.7,2,14.18,14.18,0,0,1-1.06,3.78,44.61,44.61,0,0,1-3.56,7.24,5,5,0,0,1-1,1.25,1.26,1.26,0,0,1-1.95-.09,5.67,5.67,0,0,1-.92-1.3,47.62,47.62,0,0,1-4.16-8.63,4.92,4.92,0,0,1,.31-4.31,2.27,2.27,0,0,1,3-1,5.82,5.82,0,0,1,2.93,2.61A10.13,10.13,0,0,1,111.55,7.93Z"/><path class="cls-1" d="M89.65,7.43a16.35,16.35,0,0,1,3-3.43,5.86,5.86,0,0,1,4.9-1.51A4.36,4.36,0,0,1,101,6.78a8.93,8.93,0,0,1-1.37,5c-1.58,2.55-3.38,4.95-5.08,7.41C93.43,20.8,92.33,22.43,91.1,24s-1.83,1.38-2.9-.07c-1.55-2.11-3.22-4.12-5-6.06a34,34,0,0,1-3.63-4.57,9.63,9.63,0,0,1-1.32-7.62A4.55,4.55,0,0,1,84.66,2.4,8,8,0,0,1,89.39,7C89.45,7.14,89.45,7.31,89.65,7.43Zm0,16.12c.21-.28.4-.49.55-.71q2.58-3.75,5.15-7.52a53.71,53.71,0,0,0,3.37-5.07,7,7,0,0,0,.86-3.63,3,3,0,0,0-3.43-2.78,6,6,0,0,0-3.49,2.1A26.07,26.07,0,0,0,90,9.54c-.19.29-.44.56-.84.46s-.47-.44-.47-.81a.84.84,0,0,0,0-.31,7.64,7.64,0,0,0-4.86-5,2.9,2.9,0,0,0-4,2.05,6.94,6.94,0,0,0,0,3.86,13.56,13.56,0,0,0,3,5.11c1.81,2.2,3.76,4.28,5.42,6.6C88.66,22.17,89.14,22.83,89.67,23.55Z"/><path class="cls-1" d="M175,9.17a27.66,27.66,0,0,1,1.68-2.6,15.44,15.44,0,0,1,4.22-3.91,5.08,5.08,0,0,1,2.9-.65A1.58,1.58,0,0,1,185,3.49a8.05,8.05,0,0,1-.9,3.36,87.6,87.6,0,0,1-4.64,8.58c-1.46,2.63-2.89,5.27-4.33,7.9a5.81,5.81,0,0,1-.81,1.21,1,1,0,0,1-1.72-.17,19.9,19.9,0,0,1-1.49-3.79,82.4,82.4,0,0,1-2.67-10.21,15.68,15.68,0,0,1-.19-6.29,4.21,4.21,0,0,1,.29-.89,1.67,1.67,0,0,1,2.81-.65,9.69,9.69,0,0,1,3.11,4.94C174.64,8,174.77,8.54,175,9.17Zm-1.4,14.27a2.44,2.44,0,0,0,.54-.81c1.75-3.26,3.42-6.54,5.29-9.74a46.24,46.24,0,0,0,3.85-7.55A6.54,6.54,0,0,0,183.6,4c.05-.52-.23-.69-.71-.59a4.61,4.61,0,0,0-1.37.54,15.17,15.17,0,0,0-4.41,4.44c-.75,1.11-1.37,2.31-2.23,3.36-.14.16-.25.31-.47.27a.44.44,0,0,1-.34-.41c0-.19-.1-.37-.1-.55a7.32,7.32,0,0,0-.41-2.33A10.57,10.57,0,0,0,171,3.84c-.29-.28-.57-.78-1-.61s-.49.73-.58,1.18a14,14,0,0,0,.34,5.16c.64,3.4,1.65,6.71,2.58,10A36.92,36.92,0,0,0,173.55,23.44Z"/><path class="cls-1" d="M155.22,49.43c.61-.82,1.15-1.58,1.71-2.32a6,6,0,0,1,4.06-2.4,2.94,2.94,0,0,1,2.81,1.57,3.68,3.68,0,0,1-.36,3.11,24.31,24.31,0,0,1-4,4.78c-.94,1-1.83,2.13-2.75,3.18a29.26,29.26,0,0,0-3,3.89,2.25,2.25,0,0,1-.3.39c-.5.55-1.05.49-1.37-.17-.58-1.21-1.17-2.43-1.69-3.66-.76-1.79-1.84-3.41-2.53-5.22a9.66,9.66,0,0,1-.86-4,5.51,5.51,0,0,1,1.06-3.14c1.2-1.56,3-2,4.53-.5A8.11,8.11,0,0,1,155.22,49.43Zm-2.36,11.14c.22-.34.41-.66.62-1a91.66,91.66,0,0,1,7.59-8.88,8.79,8.79,0,0,0,1.74-2.67,1.67,1.67,0,0,0-1.75-2.31,4.31,4.31,0,0,0-2.28.93,9.85,9.85,0,0,0-2.63,3c-.3.47-.51,1-.77,1.47-.08.17-.19.35-.39.33s-.35-.19-.41-.4-.22-.7-.31-1.06a7.87,7.87,0,0,0-2.91-4.38,1.28,1.28,0,0,0-1.55-.07,2.81,2.81,0,0,0-1.24,1.83,6.76,6.76,0,0,0,.49,4.36c.7,1.9,1.77,3.64,2.5,5.53C152,58.39,152.35,59.48,152.86,60.57Z"/><path class="cls-2" d="M191,15.93c0,.66-.18,1.07-.47,1.07s-.53-.48-.53-1,.26-1.05.56-1S191,15.39,191,15.93Z"/><path class="cls-2" d="M191,13.05a.85.85,0,0,1-.92.95c-.73,0-1.07-.26-1.08-.85A1,1,0,0,1,190,12,1,1,0,0,1,191,13.05Z"/><path class="cls-1" d="M155.54,40c.26,0,.46.4.46.85,0,.69-.23,1.18-.54,1.15s-.47-.49-.46-1S155.25,40,155.54,40Z"/><path class="cls-1" d="M22.09,22.75a51.22,51.22,0,0,1,5.31-5.86,17.51,17.51,0,0,1,11-5,6.8,6.8,0,0,1,5.24,1.88c1.51,1.43,1.57,3.29,1,5.2a17.25,17.25,0,0,1-3.31,5.82,48.39,48.39,0,0,1-5.53,5.74c-1.93,1.82-3.83,3.67-5.76,5.5-1.26,1.19-2.38,2.53-3.62,3.73-.71.69-1.21,1.54-1.89,2.24a20.35,20.35,0,0,0-1.94,2.4c-.68,1-1.28,2.09-1.91,3.14-.13.23-.25.47-.57.41s-.4-.3-.41-.58c0-.46-.46-.63-.65-1-1.4-2.75-2.84-5.48-4.27-8.22-1-2-2.09-3.87-3.06-5.85C11,30.68,10.12,29,9.37,27.29c-.55-1.27-1.18-2.52-1.72-3.8a20.17,20.17,0,0,1-1.53-5.07,11.6,11.6,0,0,1,.06-3.67,8.61,8.61,0,0,1,.61-2.42A4.21,4.21,0,0,1,10.91,10a7.49,7.49,0,0,1,4.48,2.2,23.22,23.22,0,0,1,6,8.89C21.63,21.64,21.85,22.17,22.09,22.75Z"/><path class="cls-1" d="M89,13.46a30.94,30.94,0,0,1,2.1-3.16,12.58,12.58,0,0,1,3-2.77A2.71,2.71,0,0,1,95.9,7,1.13,1.13,0,0,1,97,8.46a9,9,0,0,1-.76,2.31,55,55,0,0,1-4.64,7.66c-.48.72-1,1.45-1.47,2.14s-.81.56-1.26,0a48,48,0,0,1-4.45-6.92A11.36,11.36,0,0,1,83,10a1.78,1.78,0,0,1,.63-1.89,1.58,1.58,0,0,1,2,.3,13.81,13.81,0,0,1,2.92,4.17C88.73,12.83,88.86,13.13,89,13.46Z"/><path class="cls-1" d="M174.35,13.93A9.93,9.93,0,0,1,176,11.47a6.06,6.06,0,0,1,.54-.47,1,1,0,0,1,1.13-.15.81.81,0,0,1,.29,1,11.18,11.18,0,0,1-.4,1.24q-.93,2.3-1.89,4.59a3.91,3.91,0,0,1-.46.82.93.93,0,0,1-1.67-.09,36,36,0,0,1-1.82-4.53A8.8,8.8,0,0,1,171,11c0-.42.07-.81.55-1a1,1,0,0,1,1.15.48,12.63,12.63,0,0,1,1.45,2.92A4.62,4.62,0,0,0,174.35,13.93Z"/><path class="cls-1" d="M154.09,53.37A32.53,32.53,0,0,1,157,50.43a8.45,8.45,0,0,1,2.32-1.65l.53-.2a.84.84,0,0,1,.94.2.76.76,0,0,1,.07.92,14.44,14.44,0,0,1-2.26,3.23c-1.39,1.71-3,3.23-4.33,5a3.65,3.65,0,0,1-.57.61c-.8.68-1.3.56-1.73-.39s-.88-2-1.31-3a25,25,0,0,1-1.58-4.68,3.13,3.13,0,0,1,0-1.69,1,1,0,0,1,1.49-.73,3.7,3.7,0,0,1,1.68,1.26A6.53,6.53,0,0,1,153.58,52,5.34,5.34,0,0,0,154.09,53.37Z"/></g></g></svg>