<?xml version="1.0" encoding="utf-8"?>
<!-- Generator: Adobe Illustrator 25.3.1, SVG Export Plug-In . SVG Version: 6.00 Build 0)  -->
<svg version="1.1" id="Capa_1" xmlns="http://www.w3.org/2000/svg" xmlns:xlink="http://www.w3.org/1999/xlink" x="0px" y="0px"
	 viewBox="0 0 750 500" style="enable-background:new 0 0 750 500;" xml:space="preserve">
<style type="text/css">
	.st0{opacity:0.3;}
	.st1{opacity:0.25;}
	.st2{fill:#DA9CBB;}
</style>
<g id="BACKGROUND" class="st0">
	<g class="st1">
		<path class="st2" d="M752.5,457.3c-0.7,2.4-1.2,4.9-2.9,6.9c0.7,1,1.4,1.9,2,2.9c0.7,1.1,0.9,2.4-0.5,3c-1.3,0.5-2.3-0.1-2.6-1.5
			c-0.2-0.9-1-1.1-1.3-1.9c-1.1,0.8-2.2,1.5-3.3,2.3c0.5,1.2,2.1,2.5,0.2,3.7c-1.1,0.7-2.2-0.2-2.9-2.2c-2.6,0.8-5.1,1.9-7.8,2.4
			c0.2,1.5,1.6,3.2-0.8,4c-1.4,0.4-2.1-0.5-2.7-3.2c-1.8,0.2-3.6,0.5-5.3,0.7c-0.8,1.5,0.8,4.6-2.4,4.2c-2.1-0.2-1.6-2.2-1.2-3.9
			c-2.6,0-5.1,0-7.6,0c-0.2,1.1-0.3,2.1-0.5,3.1c-0.2,1.1-0.9,1.6-2,1.5c-1.1-0.2-1.5-1-1.4-2c0.1-0.8,0.3-1.7,0.5-2.7
			c-2.7-0.1-5.3-0.2-7.9-0.4c-0.4,1-0.2,2-0.2,2.9c-0.1,1.3-0.7,2.2-2,2.1c-1.4,0-1.9-1-2-2.4c0-0.9,0.6-1.6,0.3-2.6
			c-2.2-0.3-4.3-0.3-6.6-0.3c-0.2,1.3-0.3,2.5-0.5,3.7c-0.2,1.1-0.9,2-2.2,1.7s-1.4-1.4-1.2-2.5c0.2-0.9,0.4-1.8,0.7-2.7
			c-3.3,0-6.5,0-9.5,0c-0.7,1.3-0.3,2.6-0.7,3.8c-0.4,1.3-1,2.5-2.5,2.1c-1.4-0.4-1.4-1.6-1.1-2.9c0.2-0.8,0.3-1.7,0.5-2.7
			c-3.1-0.1-6.1,0.1-9.1,0.6c0.2,1.1,0.4,2.2,0.2,3.3c-0.2,1.1-0.8,2-2.1,1.9s-1.6-1.1-1.5-2.3c0.1-0.7,0.1-1.5,0.2-2.3
			c-2.5,0-4.8,0.9-7.2,1.3c-0.7,0.1-0.8,0.7-0.6,1.3c0.3,0.9,0.3,1.8,0.2,2.7c-0.1,1.1-0.8,1.7-1.8,1.7s-1.7-0.6-1.8-1.5
			c-0.2-1,0-2,0-3.1c-2,0.5-4,0.9-5.8,1.7c-1.1,0.5-2.4,1-3-0.5c-0.4-1.1,0-2.6,1.5-2.9c2-0.5,2.3-1.7,2.1-3.5c-0.2-2,0-3.9,0-5.8
			c-1-0.5-1.7,0-2.4,0.1c-1.3,0.2-2.5-0.1-2.9-1.6c-0.3-1.2,0.8-2.3,2.3-2.4c0.9-0.1,1.8,0,2.9,0c0-3.2,0-6.2,0-9.3
			c-3,0.5-3.9,0.3-4.1-1.1c-0.2-1.5,0.8-2.1,4.4-2.7c0-1.8,0-3.6,0-5.6c-1.6,0.1-3.8,1-4-1.6c-0.1-2.5,2.3-2,4.1-2.4
			c0.1-2,0-4.1-0.2-6.1c-3.2,0-4.2-0.5-4.2-2.1c0-1.5,1-2,4-1.9c0.2-1.2,0-2.4-0.1-3.6c-1.5-0.2-3.5,0.4-3.5-2
			c0-2.2,1.9-1.8,3.4-1.9c0.5-1.3,0.3-2.7,0.4-4.1c-1.2-0.4-3-0.2-2.8-2.1c0.2-1.7,1.7-1.7,3-1.9c0.2-1.5,0.4-2.9,0.6-4.5
			c-1.4-0.3-3.2-0.4-2.8-2.4c0.3-2,2-1.7,3.6-1.5c0.5-1.6,0.9-3.2,1.4-4.8c-1-0.4-1.9-0.6-2.7-1c-1-0.5-1.3-1.3-1-2.3
			s1.2-1.2,2.1-1.1c1,0.2,1.9,0.5,2.8,0.7c0.1,0,0.3-0.2,0.4-0.3c0.5-1.1,1-2.3,1.5-3.5c-1-0.5-2-0.9-2.9-1.3
			c-1.2-0.5-2.2-1.2-1.6-2.6c0.7-1.5,2-1.2,3.2-0.6c0.9,0.5,1.9,0.9,2.7,1.8c0.8-1.3,1.6-2.6,2.3-3.8c-1.3-1.1-2.4-2.4-3.4-3.7
			c-0.7-0.9-1.1-2.1,0.1-2.9c1.1-0.8,2-0.1,2.7,0.8c0.8,1,1.6,2,2.3,3.1c0.8-0.3,1-1.1,1.6-1.6c-0.8-1.1-1.6-2.2-2.4-3.4
			c-0.7-1.1-1-2.2,0.3-3.1c1.2-0.8,2.1-0.1,2.8,0.9c0.7,0.9,1.3,1.9,2,3c1.1-0.7,2.1-1.4,3.1-2.1c-0.1-1.2-1-2.1-1.4-3.1
			c-0.4-1.1-0.5-2.1,0.7-2.7c1.3-0.6,2.1,0.2,2.6,1.3c0.4,0.9,0.7,1.8,1.1,2.8c1.2-0.4,2.3-0.7,3.3-1c0.2-1-0.2-1.9-0.1-2.8
			c0-1.1,0.3-2.1,1.7-2.2c1.2-0.1,1.8,0.6,1.9,1.8c0.1,0.8,0.3,1.7,0.4,2.6c1.4,0,2.8,0,4.3,0c0.8-1.1,0.2-3.9,2.7-3.1
			c1.9,0.6,0.7,2.5,0.6,4c0.8,0.8,2,0.9,3,1.5c0.7-1.4,1.5-2.8,3.1-1.8c1.8,1.1,0.6,2.6,0,4c1.7,1.5,3.2,3.2,4.6,5.1
			c1.1-0.8,2.3-1.7,3.4-0.4c1.3,1.6-0.6,2.6-1.3,3.8c0.4,0.8,0.8,1.6,1.1,2.4c0.5,0.3,0.7-0.1,1-0.2c0.8-0.4,1.6-0.4,2.2,0.3
			c0.6,0.8,0.6,1.8-0.2,2.3c-1.7,1.1-1.4,2.5-0.9,4.1c0.4,1.3,0.5,2.6,0.8,4c1.5,0.1,3.2-0.2,3.5,1.8c0.3,2.1-1.3,2.5-2.8,3.1
			c0.1,2.5,0.3,5,0.4,7.6c0.8-0.3,1.4-0.6,2-0.8c0.9-0.3,1.7,0.1,2,0.8s-0.2,1.4-0.9,1.8c-0.1,0-0.1,0.1-0.2,0.1
			c-3.2,0.7-3.6,3-3,5.9c0.7-0.3,1.3-0.7,2-0.9c0.8-0.3,1.7-0.1,2.1,0.7c0.5,0.8,0,1.5-0.8,2c-0.2,0.1-0.3,0.2-0.5,0.3
			c-3.3,1.7-3.3,1.7-2.4,5.4c0.7-0.4,1-1,1.5-1.5c1-1,2.1-1.8,3.4-0.7c1.2,1,0.7,2.2-0.1,3.3c-0.2,0.2-0.4,0.5-0.7,0.9
			c3.3,0.3,6.3-0.4,9.5-0.3c0.4-0.9,0.6-1.8,1-2.6c0.6-1.2,1.5-2,2.8-1.3c1.2,0.7,1,1.8,0.5,2.9c-0.2,0.3-0.5,0.6-0.3,1.1
			c1.2,0.4,2.1,0.3,2.5-1.1c0.1-0.2,0.2-0.5,0.3-0.7c0.8-1.5,2.2-2.2,3.3-1.6c1.4,0.9,1.2,2.1,0.5,3.4c-0.1,0.2-0.2,0.4-0.3,0.7
			c1.3,0.8,2.8,0.7,4.2,1.3c0.9-1.3,1.8-3,3.7-2c1.5,0.7,0.8,2.1,0.2,3.4c1,0.5,2,1,3,1.4c1.9-2.3,3-2.8,4.1-1.8
			c1.3,1.3,0.3,2.5-0.5,3.7c1.8,1.4,3.8,2.6,5.6,4.3c0.8-0.9,1.5-1.7,2.2-2.4c0.9-0.9,1.9-1.6,3-0.6c1.2,1,0.4,2.2-0.3,3
			s-1.6,1.5-2.5,2.3c1.1,1.8,2.5,3.4,3.3,5.4c0.4,0.9,0.9,0.5,1.5,0.2C752.5,452.3,752.5,454.8,752.5,457.3z M650.1,474.2
			c0.1,0,0.3,0.1,0.5,0c6.5-2.4,13.3-3.7,20.2-4.1c9-0.6,18-1.1,27-0.8c10.2,0.3,20.3,1.2,30.5-0.2c5.5-0.8,10.8-2,15.4-5.5
			c1.8-1.4,3.2-3.1,3.7-5.5c0.7-3.5-0.4-6.6-2.5-9.3c-6.6-8.4-15.7-12.1-26-13.7c-6.1-0.9-12.3-0.2-18.4-0.3c-2.4,0-3.2-0.6-3.3-3.1
			c-0.2-4-0.4-8.1-0.3-12.1c0.1-6.1-0.1-12.1-1.1-18.1c-1.1-6.3-3.1-12.1-7.4-16.9c-3.8-4.2-8.5-6.3-14.3-5.5
			c-6.1,0.9-10.6,4.3-14,9.2c-6.2,9.1-9,19.3-9.3,30.3c-0.2,6.1,0.1,12.2,0.3,18.2c0.3,9.4-0.6,18.8-0.9,28.2
			C650,468,650.1,471.1,650.1,474.2z"/>
		<path class="st2" d="M752.5,424.1c-4-1.5-8-3-12.1-4.1c-7.6-1.9-15.1-0.8-22.6,0.6c-2.2,0.4-4.4,0.9-6.5,1.8
			c-0.9,0.4-1.5,0.3-2.1-0.4c-0.6-0.7-0.9-1.5-0.4-2.2c0.7-0.9,0.6-1.8,0.6-2.8c-0.1-10.6-2.1-21-5.7-30.9
			c-3.9-10.8-11.4-18.4-22.2-22.5c-8.1-3-15.7-1.4-23,2.8c-11.9,6.9-18.5,17.2-21,30.6c-1.9,10.4-1.8,20.8-1.6,31.2
			c0.3,17.6,1.8,35.1,2.8,52.6c0.2,2.9,0.4,5.7,0.3,8.8c6.4-3,13-4.3,19.7-5.6c7.8-1.5,15.7-2.1,23.6-2.3c6.3-0.2,12.7-0.7,19.1-0.5
			c4.9,0.1,9.8-0.2,14.7-0.4c3.1-0.1,6.2-0.7,9.3-1c8-0.7,15.8-2.3,23.3-5.3c1.4-0.5,2.7-1.2,4-1.9c0,2,0,3.9,0,5.9
			c-4.7,2.3-9.6,3.4-14.7,4.4c-6.9,1.3-14,1.9-21,2.5c-5.6,0.4-11.2,0.3-16.7,0.5c-9.6,0.2-19.2,0.4-28.8,1.4
			c-9.3,1-18.5,2.6-27.5,5.3c-1.7,0.5-3.3,1.3-5,1.9c-2.5,1-3.3,0.3-3.6-2.3c-0.7-6.9-1.5-13.7-2.2-20.6
			c-1.2-12.2-2.2-24.5-2.5-36.7c-0.3-9.5-0.6-19,0.4-28.5s2.6-19,7.6-27.4c6.8-11.4,16.8-18.7,29.7-21.6c6.8-1.5,13.4-0.1,19.6,3
			c4.4,2.2,8.3,5,11.8,8.4c5.8,5.6,9.4,12.3,11.5,19.9c1.7,6.2,2.8,12.5,3.2,19c0.2,3-0.3,5.9-0.6,9.1c13.3-3.8,26.2-3.4,38.8,2.1
			C752.5,420.6,752.5,422.4,752.5,424.1z"/>
		<path class="st2" d="M752.5,135.5c-10.8-1.1-19.5,4-28,9.8c-5.7,3.9-11.2,8-15.8,13.2c-0.8,0.9-1.7,1.4-2.8,0.8
			c-1.1-0.6-0.6-1.7-0.5-2.6c1.8-15.5,3.2-31-1.6-46.3c-1.4-4.6-3.7-8.7-6.7-12.4c-7.4-9.2-18.8-7.5-24.7,1.6
			c-3.6,5.6-5,11.9-5.5,18.5c-0.8,10.8-0.3,21.5,0.4,32.2c1,16.4,1.3,32.9,1.6,49.4c0.1,6.4,0.1,12.8-0.5,19.1c-0.1,1,0,1.9,0,3.2
			c1.8-1,3.6-1.8,5.3-2.8c19.9-11.8,40.6-21.9,61.2-32.4c5.7-2.9,11.2-6.3,16.6-9.8c0.3-0.2,0.7-0.3,1-0.5c0,2,0,3.9,0,5.9
			c-12.9,8.4-27.1,14.5-40.7,21.6c-12.2,6.4-24.2,13.1-36.5,19.4c-2.4,1.2-4.9,2.3-7.4,3.3c-0.9,0.4-1.9,0.6-2.8-0.2
			c-0.8-0.7-0.6-1.5-0.1-2.3c0.4-0.7-0.5-1.3-0.4-2c0.1-1.9-0.1-3.8-0.1-5.7c0.6-21.9-0.9-43.8-2.7-65.7c-0.9-11-1-22,0-32.9
			c0.6-6.6,2.3-12.9,5.7-18.6c4.4-7.4,10.7-12,19.7-11.5c6.3,0.3,11.1,3.7,15,8.6c5.2,6.6,7.6,14.3,9,22.4c1.8,10.6,0.9,21-1,31.4
			c-0.1,0.3,0,0.7,0,1.4c3.5-3.5,7.1-6.5,11-9.1c6.2-4.2,12.7-8.1,20-10.2c3.7-1.1,7.5-1.1,11.3-1
			C752.5,132.6,752.5,134,752.5,135.5z"/>
		<path class="st2" d="M752.5,361.1c-6.9,8.7-15.7,15.5-24,22.7c-1.7,1.4-3.5,2.5-5.8,1.2c-1.3-0.7-1.9-1.9-2.5-3
			c-2-4.2-3.5-8.6-4.9-13c-2.3-7.1-4.7-14.1-6.4-21.4c-0.8-3.7-1.5-7.4-0.7-11.1c2.2-10,10.8-10.4,16.3-7c6,3.7,9,9.3,9.9,16.2
			c0,0.4,0.1,0.9,0.2,1.3c0,0.1,0.1,0.2,0.4,0.5c1.9-2.3,3.8-4.5,6.1-6.3c2.8-2.1,5.7-4.1,9.5-3.9c0.7,0,1.3,0.2,2,0.3
			C752.5,345.3,752.5,353.2,752.5,361.1z"/>
		<path class="st2" d="M752.5,108.2c-7.1,5-14.2,9.9-21.5,14.8c-2.1,1.4-3.5,0.9-4.5-1.6c-1-2.4-1.5-4.9-2.1-7.4
			c-2.3-9.2-4.8-18.3-6.7-27.6c-1-5.1-1.7-10.2-0.6-15.3c0.8-4.1,3-7.2,7-8.5c4.3-1.3,8.4-0.6,11.9,2.4c4.5,3.9,6.8,8.7,6.6,14.7
			c0,0.6,0,1.2,0,1.8c0,0.1,0,0.1,0.1,0.3c3.2-2.4,6-5.3,9.8-6.5C752.5,86.4,752.5,97.3,752.5,108.2z"/>
		<path class="st2" d="M752.5,149.9c-0.5,0.1-0.8-0.2-1.2-0.5c-4.4-3.1-8.8-1.8-13.1,0.2c-0.9,0.4-1.8,1.2-2.6,0.3s-0.7-2.1,0-3.1
			c1.8-2.9,4.9-3.9,7.9-5c3.1-1.1,6.1-0.8,9.1,0.3C752.5,144.7,752.5,147.3,752.5,149.9z"/>
		<path class="st2" d="M237.6,394.3c2.1-1.5,3.9-2.9,5.9-4.1c13.7-8.7,28.5-10.6,44.1-7.1c7.1,1.6,13.8,4.1,19.7,8.7
			c12.9,10,14.8,25.7,7.6,38.7c-9.5,17.3-24,29-41.9,36.8c-11.8,5.2-24,8.9-36.1,13.2c-10.8,3.8-21.6,7.6-31.4,13.6
			c-7.2,4.4-14.5,8.7-20.9,14.3c-1.6,1.4-3.4,2.9-5.8,1.9c-2.3-1-2.5-3.3-2.8-5.5c-1.9-16.1-4.1-32.1-8.1-47.8
			c-2.7-10.6-5.6-21.1-8.3-31.7c-2.2-8.7-4.6-17.3-5.9-26.3c-3.1-23.4,9.2-42.6,31.9-49.4c14.2-4.2,27.5-2.2,39.4,6.6
			c8.8,6.5,12.5,15.8,13.2,26.4C238.5,386.5,238.3,390.3,237.6,394.3z M202.7,471.3c2.7-1.8,5.5-2.9,8.2-4.4
			c4.5-2.5,9.3-4.4,13.9-6.5c4.8-2.3,9.3-5.2,14-7.7c9-4.9,17.6-10.3,25.4-17c4.7-4,9.2-8.4,11.9-14.1c2.2-4.8,0.8-9-3.6-11.8
			s-9.4-3.8-14.3-4.9c-7.2-1.6-14.5-1.2-21.8-0.7c-1.2,0.1-2.4,0.3-3.6,0.7c-2.3,0.9-2.3,1-3-1.5c-1.4-4.5-2.9-8.8-6.4-12.2
			c-2.5-2.3-5.3-4.2-8.3-5.7c-9.4-4.7-18.9-0.5-21.6,9.6c-1.1,4.3-1.3,8.7-1.3,13.1c0,10.8,2.2,21.3,3.9,31.8
			C197.8,450.5,200,460.9,202.7,471.3z M240.4,398.2c0.7-0.2,1.4-0.3,2.1-0.5c13.3-3.6,26.7-4.3,40.3-2c6.5,1.1,12.2,3.7,16,9.5
			c4.1,6.4,6.3,13.2,3.3,20.7c-2.4,6-6.5,10.7-11.3,15c-7,6.1-15.2,10.3-23.4,14.4c-10.2,5.1-20.8,9.2-31.2,13.9
			c-14.8,6.6-29,14.5-43.8,21.1c-0.6,0.3-1.3,0.5-1.7,1.2c0.7,1.7,0.5,3.8,1.4,5.6c2.6-1.7,5.2-3.3,7.7-4.9
			c11.9-7.8,25.2-12.7,38.6-17.3c11.4-3.9,23-7.4,34-12.5c16.2-7.6,29.3-18.7,37.8-34.7c3.5-6.6,4.4-13.5,2-20.6
			c-2.6-7.5-8.2-12.3-15.1-15.5c-11.5-5.4-23.6-6.6-36.1-4C253.1,389.3,246.4,393.1,240.4,398.2z M189.3,499.1
			c-0.8-2.1-1.1-4.3-1.6-6.3c-5.5-22.7-11-45.3-15.4-68.2c-1.7-8.9-3.9-17.8-4.6-26.9c-0.9-12.1,1.9-23,10.4-32.1
			c10.1-10.8,27.4-11.6,38.1-1.8c6.2,5.7,9.8,12.9,12.8,20.5c1.8,4.5,2.6,9.4,3.6,14.5c0.9-5.6,1.1-10.9,0.5-16.2
			c-0.9-8-3.6-15.4-9.9-20.7c-10.4-8.9-22.4-11.3-35.6-7.9c-19.4,5-30.8,21.6-28.6,41.5c0.6,6,1.8,11.8,3.3,17.6
			c3.2,12.4,6.2,24.7,9.3,37.1c1.6,6.6,3.1,13.3,4.2,20c1.3,7.1,2.4,14.3,3.2,21.5c0.5,4.6,1,9.2,1.6,14.2
			C183.6,503.6,186.2,501.2,189.3,499.1z"/>
		<path class="st2" d="M103.4,274.1c0.2-6.1,0.7-11.6,2.5-16.9c4.1-11.8,11.6-20.4,23.4-24.7c10.7-3.9,20.4-1.6,29.3,5.3
			c9.1,7,13.2,16.6,14.6,27.6c1.8,13.8-1.1,27-5.7,39.8c-3.8,10.7-8.9,20.8-13.2,31.3c-7.2,17.6-12.1,35.9-14.6,54.8
			c-0.4,2.8-0.5,5.6-0.4,8.5c0,2-0.5,2.1-2.5,1.6c-2.6-0.6-4.1-2.4-5.7-4.1c-15.1-16.9-32.8-30.4-52.2-41.9
			c-9.8-5.8-19.6-12.2-28.9-19.4c-5-3.9-10.3-7.5-14.6-12.2c-4.2-4.5-7.4-9.6-9.5-15.5c-2.5-7.3-3.4-14.7-2.9-22.3
			c1-15.3,8.9-26,22.7-32.1c14.9-6.6,28.9-4.2,42,5.1C93.6,263.2,99.1,267.6,103.4,274.1z M110.1,370c1.9,1.6,3.8,3,5.6,4.6
			c1.1,1,1.9,0.7,2.8-0.1c1.9-1.9,3.1-4.1,3.3-6.8c0.2-3,1-5.8,3-8.2c3.2-4,5.2-8.6,4.3-14c-0.2-1.3,0.5-2.3,1.3-3.3
			c3.1-3.7,6.2-7.5,5.3-12.9c-0.2-1.4,0.5-2.4,1.5-3.3c3.8-3.5,6.9-7.4,7.3-12.7c0.2-2.6,1-4.6,2.9-6.5c3.5-3.5,6.2-7.5,5.4-12.9
			c-0.3-1.9,0.7-3.2,2.1-4.4c4.2-3.7,6.5-8.2,6.3-13.9c0-1.2,0.4-2.3,1.1-3.2c4.9-6.8,5.3-16.4-0.6-23.7c-2.1-2.6-4.5-5-7.6-7.3
			c0.4,1.9,0.2,3.4,0.6,4.6c1.3,4.9,0.2,9.4-2.2,13.5c-1.3,2.1-1.5,4.1-1.4,6.4c0.2,4.5-1.2,8.3-4.4,11.4c-0.5,0.5-0.6,0.8-0.5,1.6
			c1.1,5.7-0.1,10.9-3.8,15.5c-1,1.2-1.3,2.6-1.3,4.1c-0.1,5-1.4,9.6-4.4,13.6c-1.9,2.5-3.6,5-3.5,8.4c0,0.7-0.3,1.4-0.4,2.1
			c-1.2,4.7-4,8.5-6.9,12.2c-0.9,1.2-1.6,2.4-1.8,3.9c-0.7,4.9-1.7,9.7-4.6,13.8c-1.5,2.1-2.5,4.1-2.6,6.6c0,0.7-0.1,1.3-0.3,2
			C115.5,364.9,113.2,367.7,110.1,370z M131.2,237.5c0.7,3.9-0.1,7.4-2.9,10.4c-0.3,0.4-0.3,0.8-0.2,1.2c0.7,4.6-0.4,8.6-3.3,12.2
			c-0.9,1-1,2.1-0.8,3.4c1,5.2,0.3,10.1-3.4,14.2c-0.6,0.6-0.7,1.1-0.4,2c1.1,4,0.4,7.9-2.2,11.1c-1.7,2.1-1.7,4.1-1.3,6.5
			c0.9,5.1-1,9.1-4.5,12.6c-0.9,0.9-1.3,1.7-1.1,2.9c0.8,5-1,9.3-4.1,13.1c-0.8,1-1.2,1.9-1.2,3.2c-0.1,5.4-1.7,10.2-5.6,14.1
			c-1.1,1.1-1.6,2.2-1.8,3.6c-0.4,3.5-1.9,6.3-4.7,8.4c-0.5,0.4-1.2,0.6-1.5,1.3c2.1,1.4,4.2,2.7,6.4,4.1c4-2.5,6.3-6,6.8-10.6
			c0.4-3,1.3-5.6,3.4-8.1c3.4-4,6.3-8.5,6.6-13.9c0.3-4.9,2.3-8.8,4.9-12.8c1.7-2.5,2.9-5.3,2.9-8.4c0-0.5,0.1-1,0-1.5
			c-0.2-2.3,0.3-4.3,1.8-6.1c2.8-3.4,4.5-7.1,2.8-11.7c-0.7-1.8-0.1-3.4,1-4.8c3.1-3.8,4.5-8.1,4.1-13c-0.1-1.9,0.4-3.5,1.6-5
			c2.8-3.6,4.7-7.5,4-12.2c-0.3-1.9,0.5-3.3,1.6-4.7c2.6-3.2,2.8-8.9,0.6-12.3c-0.3-0.5-0.7-0.4-1.1-0.5
			C137,236.2,134.2,236.5,131.2,237.5z M128.1,238.8c-4.8,2.3-8.7,5.4-11.8,9.4c-4.9,6.5-7.3,13.9-8.5,21.8
			c-0.7,4.8-1.3,9.6,0.4,14.4c0.7,1.9,0.3,3.8-0.2,5.8c-0.4,1.5-1.1,2.8-1.3,4.4c-0.7,5.9-2.3,11.4-6.1,16.1c-0.8,1-1,2.1-1,3.3
			c-0.1,2.1-0.1,4.2-0.5,6.2c-0.8,4.6-3.3,8.4-6.1,12c-0.9,1.2-1.7,2.5-1.9,4.1c-0.8,6.1-1.7,12.2-6.9,16.5c1.4,0.8,2.7,1.6,3.9,2.4
			c0.9,0.6,1.6,0.5,2.5-0.1c3-1.9,4.8-4.6,5.1-8.2c0.1-1.8,0.9-3.3,2.3-4.6c2.6-2.4,4.6-5.4,4.7-9.1c0.2-3.9,1.1-7.3,3.6-10.5
			c2.3-2.9,2.3-6.6,1.9-10.2c-0.1-1.3,0.3-2.3,1.4-3.2c3.6-2.9,5.4-6.6,4.2-11.3c-0.7-2.6-0.3-4.8,1.6-7c2.4-2.8,3.6-6,2.1-9.8
			c-0.6-1.5-0.2-2.9,1.1-4.2c3-3.2,4.1-6.9,2.6-11.1c-0.9-2.6-0.4-4.7,1.5-6.7c2.2-2.3,3.1-5.2,2.7-8.3c-0.3-2.2-0.1-4,1.4-5.8
			C128.2,243.4,128.9,241.4,128.1,238.8z M144.3,236.9c-0.2,0.8,0.2,1.2,0.3,1.8c0.8,3.6,1.1,7-0.9,10.4c-1,1.6-2.8,3-2.4,5.4
			c0.8,4.9-1.1,9-3.9,12.8c-0.9,1.2-1.3,2.4-1.3,3.9c0.1,5.1-0.9,9.9-4.2,13.9c-1.1,1.3-1.1,2.5-0.7,4c0.8,3.1,0.7,6.3-1,9
			c-2.3,3.7-4.5,7.3-4,11.8c0,0.1,0,0.1-0.1,0.2c-0.9,4.5-3.3,8.4-5.9,12.1c-0.7,1-1.3,2.1-1.3,3.4c-0.2,7-3.1,13.1-7.1,18.6
			c-1.7,2.4-3,4.7-3.2,7.6c0,0.5-0.1,1-0.2,1.4c-1.1,4.2-3.2,7.8-7,10.3c1.9,1.4,3.6,2.6,5.3,3.9c0.6,0.5,1.1,0.4,1.6,0
			c2.6-2.2,4.6-4.8,5.2-8.4c0.3-2.3,0-4.9,2-6.7c2.7-2.5,4.4-5.7,4.9-9.3c0.7-5.4,2.7-10,6.3-14.1c0.8-0.9,1.2-2,1.8-3
			c1.2-2.2,1.9-4.7,1.9-7.2c0-2.7,0.8-4.9,2.6-6.9c3.2-3.6,4.9-7.8,4.9-12.7c0-2.7,0.6-5.1,2.5-7.3c2.9-3.4,4.2-7.4,3-12
			c-0.6-2.1,0.1-3.5,1.6-5.1c2.9-3,4.2-6.5,3.3-10.7c-0.4-1.6-0.2-3.1,0.9-4.7c1.7-2.5,3-5.2,3.2-8.2c0.1-2.7-0.1-5.4-0.8-8
			c-0.7-2.8-1.8-5.4-5.1-6C145.6,237.2,145,237,144.3,236.9z M168.1,268.4c-0.9,2.3-2.1,4.4-3.6,6.3c-0.4,0.5-0.3,1-0.3,1.6
			c-0.2,5.8-2.3,10.7-6.5,14.7c-1.3,1.2-1.8,2.4-1.7,4.1c0.1,3.1-0.6,6-2.4,8.7c-1.4,2.1-2.8,4.2-4.7,5.9c-0.8,0.7-1.2,1.5-1.3,2.5
			c0,4.8-2.2,8.7-4.9,12.4c-1.8,2.4-3.2,5.7-3.7,8.8c0,0.1-0.1,0.2-0.1,0.4c-1,4-3.4,7.3-6.1,10.3c-0.4,0.5-1.1,0.9-0.9,1.7
			c0.9,5.4-1.2,10.1-3.9,14.5c-1.6,2.6-3.2,5-3.2,8.1c0,0.6-0.2,1.2-0.3,1.8c-0.8,3-2.4,5.6-4.8,7.1c1,1.2,2,2.3,2.9,3.4
			s1.7,0.9,2.7,0.1c2.1-1.8,3.5-4.1,3.9-6.7c0.5-3.3,1.6-6,4-8.5c3.5-3.5,5-8.4,6-13.2c0.2-0.9,0.5-1.6,1.3-2.1
			c2.6-1.3,4.3-3.5,5.2-6.2c3-8.5,6.6-16.8,10.3-25.1c5.2-11.5,9.9-23.1,11.7-35.6C168.4,278.7,168.8,273.6,168.1,268.4z
			 M84.2,262.4c-2.1,2.3-1.8,4.9-1.4,7.5c0,0.3,0,0.6-0.1,0.9c-0.3,3.5-2.4,5.9-4.8,8.2c-0.7,0.6-1.4,1.2-1.2,2.3
			c0.6,4.9-1.5,8.8-4.8,12.2c-1.3,1.2-1.8,2.6-1.8,4.4c-0.1,5.4-1.8,10-6.9,12.7c-0.9,0.5-0.8,1.2-0.7,1.9c0.7,4.6-1.4,7.9-4.7,10.8
			c-0.5,0.5-1,0.9-0.9,1.7c0.5,3.1-0.8,5.6-3.1,7.8c1.5,1.1,2.9,2.2,4.4,3.2c2.1,1.5,4.6,1.1,6.2-1c1.5-1.9,2.4-4.1,2.5-6.5
			c0.1-1.6,0.6-2.9,1.8-4c2.5-2.5,4.3-5.8,4.5-9.1c0.2-2.9,1-4.9,2.9-6.8c2.9-2.9,4.4-6.3,4.5-10.4c0-1.6,0-3.3,1.5-4.8
			c2.3-2.2,4.2-4.9,4.8-8.3c0.1-0.5,0-0.9,0-1.3c-0.1-2.2-0.8-4.6,1.1-6.5c1.8-1.8,2.4-3.7,0.8-5.9c-0.2-0.3-0.4-0.8-0.5-1.2
			c-0.3-0.9-1-1.6-0.6-2.6c0.4-0.9,1.4-0.6,2.3-1C88.1,264.8,86.1,263.6,84.2,262.4z M71.4,256.5c1.6,8.9,0.6,11.1-3.8,16.3
			c-1.2,1.4-1.9,2.8-1.8,4.6c0.3,3.7-1.2,6.6-3.8,9c-1.2,1.1-1.5,2.3-1.5,3.9c0.1,3.9-1.6,7.1-4.4,9.5c-1.3,1.1-1.8,2.3-1.9,3.9
			c-0.3,3.5-1.7,6.5-4.7,8.6c-0.8,0.6-1.2,1.2-1.3,2.2c-0.3,3.9-1.2,7.5-5.2,9.6c2.6,2.1,5.1,4.1,7.5,6.1c0.6,0.5,1.1,0.3,1.6-0.2
			c1.2-1.2,2-2.6,1.8-4.4c-0.4-2.2,0.4-3.7,2.2-5.2c2.4-2,4.2-4.6,3.4-8.2c-0.4-1.7,0.1-3.3,1.9-4.2c4-2,5.6-5.5,5.7-9.7
			c0.1-2.8,0.7-5.1,2.8-7.1c2.5-2.3,4.4-5,3.8-8.7c-0.4-2.6,0.6-4.5,2.7-6.2c2.8-2.4,4.1-5.4,3-9.2c-0.4-1.3,0.1-2.5,0.8-3.6
			c0.8-1.1,0.3-3.3-0.9-4C76.9,258.2,74.3,257.1,71.4,256.5z M56.7,255.8c1.6,2.8,1.9,5.5-0.6,7.9c-0.4,0.4,0,0.8,0,1.2
			c0.6,3.3,0.8,6.7-1.6,9.2c-2,2-2.6,4.2-2.7,6.8c0,0.4,0,0.9-0.1,1.3c-0.4,2.7-1.2,5.5-3.7,6.9c-2.1,1.1-2.5,2.5-2.2,4.5
			c0.1,0.5,0,1.1,0,1.7c0,3.9-1.7,7-4.9,9.1c-1.1,0.7-1.6,1.5-1.6,2.8c0,2.7-0.2,5.4-1.8,7.7c-1.6,2.4-1.6,2.4,0.5,4.3
			c0.2,0.2,0.5,0.4,0.7,0.6c2.2,2.3,4,2,5.6-0.7c0.8-1.5,1.2-3.1,1.2-4.8c0-1.7,0.4-3.2,1.9-4.1c3.2-2,4.4-5,4.3-8.6
			c0-1.4,0.6-2.5,1.7-3.3c3-2.3,4.5-5.3,4.2-9.1c-0.2-2,0.5-3.4,2-4.6c2.5-2.1,3.8-4.7,3.5-8.1c-0.2-2.3,0.6-4.1,2.2-5.8
			c3.9-4,4.6-8.7,2.9-13.9c-0.3-0.9-0.8-1.4-1.8-1.5C63.2,255.1,60,255.1,56.7,255.8z M73.2,345.9c2.3,1.5,4.5,2.7,6.4,4.1
			c1.6,1.2,2.7,0.6,3.7-0.6c2.4-2.7,3.7-5.9,4.1-9.4c0.6-4.4,1.7-8.5,4.7-12.1c3.1-3.7,4.7-8.1,4.3-13.1c-0.2-2.5,0.6-4.7,2.1-6.7
			c2.4-3.1,3.8-6.6,4.5-10.5c0.4-2.7,0.8-5.4,1.8-8c1.7-4.2-1.3-7.1-2.7-10.4c-2.2,2.5-3.1,5.2-2.6,8.3c0,0.1,0,0.1,0,0.2
			c-0.5,3.8-2.8,6.7-5,9.7c-0.9,1.2-1.6,2.3-1.7,3.8c-0.4,6-3.4,10.5-7.8,14.3c-0.7,0.6-0.9,1.4-0.8,2.3c0.8,5.4-1.3,9.7-4.9,13.4
			c-1.1,1.1-1.6,2.2-1.4,3.7C78.5,339.3,77.1,343,73.2,345.9z M91,268.8c0.1,0.3,0.2,0.6,0.4,0.9c1.7,3,1.8,5.8-0.6,8.4
			c-0.9,1.1-1.2,2.2-1.1,3.7c0.3,3.6-0.8,6.9-2.9,9.8c-1.9,2.6-3.9,5-3.8,8.6c0.1,4.1-2,7.5-4.9,10.2c-1.6,1.4-2.2,2.9-2.3,5
			c-0.2,3.9-1.7,7.3-4.4,10.1c-0.7,0.8-1.7,1.6-1.7,2.7c-0.2,4.9-2.2,8.7-6.7,11c1.7,1.1,3.2,2.2,4.8,3.2c3.3,2.2,4.4,1.9,6.6-1.5
			c0.5-0.8,0.8-1.6,0.9-2.5c0.3-1.8,0.3-3.5,0.2-5.3c0-1.2,0.4-2.1,1.3-2.9c3.6-3.2,5.7-7,5-12c-0.3-2.3,0.5-3.9,2.3-5.4
			c2.8-2.4,5.3-5.2,5.6-9c0.3-4.5,2.2-7.9,4.9-11.1c0.4-0.5,0.7-1.1,1.1-1.7c1-1.8,1.6-3.7,1.1-5.8c-0.4-1.7,0-3.1,1.2-4.4
			c0.8-0.8,1.4-1.9,1.1-3c-1-2.9-1.6-6.2-4.7-7.9c-0.4-0.2-0.7-0.5-1-0.8C92.5,268,91.8,268.1,91,268.8z M34.5,314.7
			c1.9-2,2.2-4.4,2.3-6.8c0-2.4,0.3-4.5,2.7-5.9c2.1-1.2,3.2-3.2,3.5-5.7c0.3-2,0.2-3.9,0.2-5.9c0-1.1,0.4-2,1.4-2.3
			c3.1-1,4-3.6,4.4-6.4c0.2-1.3,0.1-2.7,0.1-4c0-1.4,0.4-2.5,1.5-3.4c2.7-2.2,3.4-5.1,2.7-8.4c-0.3-1.6-0.5-3.1,1.1-4.3
			c0.9-0.7,0.8-1.8,0.3-2.7c-0.4-0.9-0.8-1.8-1.5-2.5c-5.6,1.4-10.9,3.6-15.2,7.6c0.2,0.3,0.3,0.5,0.4,0.7c2.4,4.9,3.7,9.8-0.5,14.5
			c-0.6,0.6-0.3,1.3-0.2,2.1c1.1,4.3,0,8-3,11.1c-0.7,0.7-0.7,1.3-0.6,2.1c0.5,4-0.6,7.4-3.9,9.9c-0.5,0.4-0.7,0.7-0.5,1.2
			C31.3,308.8,32.3,312,34.5,314.7z M28.9,301.9c2.4-2.2,3-4.7,2.4-7.4c-0.4-1.6,0-2.7,1.2-3.9c2.2-2.4,3.7-5.2,2.5-8.6
			c-0.6-1.8-0.2-3.3,1-4.7c3-3.5,2.8-7.1-0.4-10.6C26.1,276.9,26.4,289,28.9,301.9z M135.4,395c0.2-14.7,3.6-28.5,7.6-42.4
			c-1.6,0.4-1.4,1.5-1.6,2.3c-1.6,5.7-3.5,11.2-8,15.4c-0.4,0.4-0.4,0.8-0.5,1.3c-0.6,5.1-2,9.8-6.6,12.9
			C129.5,387.8,132.2,391.4,135.4,395z"/>
		<path class="st2" d="M461.7,245c2.5-7.3,6.6-13.7,11.2-19.8c7-9.1,16.5-14.2,27.4-17.1c16.3-4.3,33.2,5.5,40.7,20.6
			c3.9,7.9,4.6,16.2,3.2,24.7c-2.5,15.5-9,29.4-16.3,43c-7.8,14.7-17.5,28.2-27.8,41.3c-7.7,9.8-16.1,18.9-24.7,27.8
			c-4,4.1-8.3,7.9-12.9,11.2c-1.5,1.1-2.3,0.6-2.9-1.1c-1.5-4.3-3.1-8.5-4.7-12.8c-3-7.9-6.9-15.4-11.1-22.6
			c-6.3-10.8-13-21.3-20.5-31.3c-9.2-12.2-18.5-24.3-27-37c-5-7.3-9.6-14.9-11.5-23.7c-2.3-10.7-1-20.9,6.1-29.7
			c6.4-7.8,15-11.1,24.8-10.5c11.8,0.8,21.7,6.2,30.2,14.1C452.5,228.6,457.9,236.1,461.7,245z M450.7,342.7
			c0.4-0.5,0.8-0.8,1.1-1.2c9-10.8,17.2-22,25.7-33.1c5.9-7.7,11.8-15.5,17.9-23.1c2.9-3.6,5.9-7.2,8.8-10.9
			c2.4-3.1,4.8-6.2,7.2-9.2c4.1-5,8-10.1,12-15.2c3.9-5.1,7.7-10.3,11.5-15.4c1.9-2.4,2-2.4,0.5-5c-1.2-2.1-2.5-4.3-4.2-5.8
			c-30.5,35-57.8,72.4-85.8,109.2C447.1,336.1,448.8,339.4,450.7,342.7z M520,215.3c-3.7-2.1-7.6-2.9-11.6-3.1
			c-0.8-0.1-1.2,0.4-1.7,0.9c-5.8,6.7-11.4,13.7-16.7,20.8c-8,10.8-15.9,21.6-24,32.3c-11.2,14.9-21.8,30.3-33.3,45.1
			c-0.4,0.5-0.8,0.9-0.3,1.6c1.5,2.2,3,4.4,4.6,6.9c27.8-34.2,53.4-69.9,82-103.2C519.4,216.1,519.6,215.8,520,215.3z M538.7,254.8
			c-0.1-0.1-0.3-0.2-0.4-0.3c-1.8,2.3-3.7,4.7-5.5,7c-5.7,7.3-11.5,14.4-17.6,21.4c-4.5,5.2-9,10.5-13.5,15.7
			c-3.1,3.6-6.1,7.4-9.1,11.2c-4.8,6.1-9.7,12-14.5,18c-7,8.8-13.6,17.9-20.9,26.4c-0.4,0.4-0.7,0.7-0.4,1.4c1,2.3,1.9,4.7,2.9,7
			c0.7-0.1,0.9-0.6,1.2-0.9c5.4-6,10.8-12.1,16.3-18c14.1-15.1,28.2-30.3,41.6-46.1c3.2-3.8,6.9-7.5,9.2-11.9
			C532.8,275.9,536.7,265.7,538.7,254.8z M443.8,330.6c27.9-36.9,55.6-73.7,85.5-108.7c-2.2-2.4-4.5-3.9-7-5.3
			c-0.8,0.8-1.5,1.5-2.1,2.2c-6.2,7.6-12.5,15.1-18.6,22.8c-8.4,10.6-16.5,21.5-25,32.1c-12.6,15.8-24.2,32.3-37.5,47.5
			c-0.6,0.7-0.6,1.2-0.1,2C440.6,325.5,442.1,327.9,443.8,330.6z M537.8,235.1c-1.8,2.2-3.4,4.1-4.9,6.1s-3,4-4.4,6
			c-1.5,2.1-3.2,4-4.6,6.2c-1.3,1.9-2.8,3.7-4.3,5.5c-5,6.5-10.2,12.9-15.4,19.3c-9,11.2-17.5,22.6-26.2,34
			c-8.3,10.8-16.2,22-25.3,32.2c-0.3,0.3-0.6,0.6-0.4,1.1c1,2.2,2.1,4.3,3.2,6.6c0.4-0.4,0.5-0.6,0.7-0.8
			c11.1-13.9,21.9-28.1,33.3-41.8c5.7-6.8,11.4-13.7,17.2-20.5c3-3.6,6.1-7.1,9.1-10.7c4-4.8,8.1-9.5,12-14.5
			c3.6-4.6,7.3-9.2,11.1-13.7c0.5-0.5,0.8-1.1,0.8-1.8C539.6,244.2,539.4,239.7,537.8,235.1z M431.6,218.8c-0.8,0.8-1.4,1.5-2.1,2.2
			c-6.7,7.6-12.5,15.9-18.2,24.2c-4.2,6.2-8.7,12.3-12.7,18.7c-0.3,0.6-1,1-0.4,1.9c2.6,4,5.3,7.9,8.2,11.8
			c11.8-17.2,24.1-33.8,37.1-49.9C440.1,224.2,436.3,221,431.6,218.8z M445.5,229.7c-0.5,0.5-0.8,0.8-1.1,1.2
			c-5.3,6.5-10.2,13.3-15.1,20c-6.8,9.2-13.5,18.5-20,28c-0.8,1.1-0.7,1.8,0.1,2.9c2,2.5,3.8,5.1,5.7,7.7c0.4,0.5,0.6,1.1,1.3,1.4
			c5.3-7,10.3-14.1,15.5-21.1c4.5-6,8.5-12.3,13.2-18.1c2.8-3.5,5.1-7.4,8.3-10.6c0.6-0.6,0.4-1.1,0-1.8
			C451.1,236,448.5,232.8,445.5,229.7z M504.3,212.4c-4.6,0.7-8.5,1.9-12.3,3.7c-1,0.5-1.7,1.1-2.4,1.9c-3.2,3.9-6.1,8.2-9.1,12.2
			c-4.9,6.6-9.4,13.6-14.5,20.1c-3,3.7-5.8,7.5-8.5,11.4c-5.6,8.3-11.6,16.4-17.4,24.6c-4.2,5.8-8.5,11.5-12.5,17.5
			c-0.4,0.6-0.9,1-0.3,1.8c1.1,1.4,2.2,2.9,3.4,4.5c0.2-0.3,0.3-0.5,0.4-0.6c10.7-13.9,20.9-28.3,31.4-42.4
			c8.2-11.2,16.3-22.4,24.6-33.4C492.4,226.5,498.3,219.8,504.3,212.4z M424.6,302.2c4.2-6.2,8.6-11.9,12.9-17.8
			c7.3-10.2,15.1-20.1,21.9-30.7c0.3-0.4,0.8-0.7,0.6-1.4c-1.1-3.3-2.6-6.5-4.5-9.6c-4.8,4.4-7.8,10-11.7,14.8
			c-2.3,2.9-4.3,6.2-6.5,9.3c-6.1,8.5-12.4,17-18.6,25.5c-0.4,0.6-0.8,1-0.2,1.7C420.5,296.8,422.5,299.4,424.6,302.2z M396,262.1
			c10.5-15.3,20.8-30.6,32.9-44.7c-3-1.5-5.9-2.6-9-3.6c-1.7-0.5-2.9-0.1-4,1.1c-4,4.3-7.2,9.2-10.5,13.9c-0.7,1.1-1.4,1.9-2.8,1.8
			c0.1,1.1,0.4,2.2-0.2,3.1c-0.9,1.3-1.8,2.6-2.6,3.9c-1.9,2.8-3.4,5.8-4.9,8.7c-0.3,0.6-0.5,1.2-1.4,0.9c0.4,1.8-0.8,3-1.3,4.4
			c-0.3,0.7-0.9,1.4-0.5,2.2C393,256.7,394.3,259.4,396,262.1z M520.1,300.6c-0.2-0.2-0.3-0.3-0.5-0.5c-0.2,0.3-0.4,0.6-0.7,0.9
			c-5.8,6.6-11.6,13.4-17.5,19.9C489,334.7,475.9,348,463.6,362c-3.5,4-3.6,3.9-1.3,8.8c0,0,0.1,0.1,0.3,0.4
			C484.5,349.8,504.2,326.8,520.1,300.6z M414.8,213.1c-6.9-0.2-12.8,1.5-17.9,5.7c-6.7,5.7-8.5,13.3-8.4,21.6
			c0,3.1,0.5,6.2,1.7,9.2c0.1-0.1,7.5-12.3,7.5-12.3c2.4-4.1,5.2-8,7.8-12C408.2,221.1,411.3,217.2,414.8,213.1z M483.7,221.5
			c-0.1-0.1-0.3-0.2-0.4-0.3c-7.6,6.5-12.7,14.8-16.5,24.1C472.4,237.3,478.1,229.4,483.7,221.5z"/>
		<path class="st2" d="M639.3,276.2c2.8-2.2,5.5-3.9,8.3-5.5c5.5-3,11.3-5.1,17.3-6.7c4.5-1.3,9.2-2,13.9-2.2
			c14.5-0.6,30.5,5.6,35.1,23.4c1.8,7.2,0.5,14.1-1.9,20.9c-2.8,7.8-8.4,13.3-14.4,18.5c-9.7,8.3-20.8,14.8-31.6,21.6
			c-18.5,11.8-37.5,22.9-55.4,35.6c-3.8,2.7-7.7,5.4-11.4,8.4c-0.7,0.5-1.4,1.1-2.3,0.7c-0.9-0.4-0.8-1.3-0.8-2.1
			c0.1-4.4-1.7-8.5-2.7-12.7c-5.8-22.4-11.8-44.6-17.6-67c-2.6-10-5-20.1-6-30.4c-1.2-11.6,0.1-22.8,6.8-32.8
			c6.5-9.7,15.8-14.9,27.3-15.8c6.9-0.5,12.7,2.6,18,6.8c6.3,5,9.8,11.8,12.7,19.1C637.1,262.3,638.8,268.9,639.3,276.2z
			 M651.9,347.6c-2.8-3.6-4.5-7.6-5.9-11.7c-2.8-8.4-7.2-15.3-15.7-19c-3-1.3-4.9-4-6.1-7.1c-1.2-3-1.7-6.1-2.2-9.2
			c-0.9-5.8-3-10.9-7.8-14.6c-2.8-2.1-5.8-4.1-8.9-5.8c-4.1-2.1-6.8-5.3-8.6-9.5c-1.8-4.1-3.1-8.4-5.2-12.3
			c-2.3-4.3-5.6-7.2-10.3-8.4c-0.6-0.2-1.2-0.3-1.6,0.4c-1,2.1-2.2,4.1-2.7,6.3c4.8,2.6,8.5,6.4,11.9,10.5c3.9,4.8,7,10.2,10.2,15.5
			c3.7,6.1,7.4,12.2,11.2,18.4c1.2,1.9,2.3,3.9,3.5,5.7c1,1.6,1.6,3.5,2.8,5.1c2.3,3,3.9,6.6,5.7,9.9c2.5,4.5,5.2,8.9,7.7,13.4
			c2.6,4.7,5.1,9.6,7.7,14.4c1,1.8,2,3.5,3.1,5.3C644.5,352.4,648.1,350.1,651.9,347.6z M638.5,356.2c-0.3-1.3-1.1-2.2-1.6-3.2
			c-6.4-12.4-13.1-24.6-20-36.7c-3.4-5.9-6.9-11.7-10.3-17.5c-1.4-2.5-2.8-5.1-4.5-7.4c-2-2.8-3.6-5.7-5.5-8.5
			c-3.9-5.8-7.2-12.1-12.2-17.1c-2.5-2.5-4.9-5.1-8.2-6.8c-0.7,2.1-0.9,4.1-1.2,6.1c-0.1,0.8,0.2,1.2,0.9,1.5
			c2.2,1.2,4.2,2.7,5.7,4.8c2.9,3.8,4.4,8.2,5.5,12.7c1.6,6.7,4.6,12.2,10.7,16c5.4,3.3,8.5,8.4,9.7,14.8c0.6,3.4,1.5,6.8,2.2,10.2
			c1.2,6.7,3.9,12.5,9.3,17c4.1,3.4,6.7,8.1,8.4,13.2c0.8,2.2,1.6,4.4,2.9,6.5C632.9,359.8,635.7,358,638.5,356.2z M591.6,238.3
			c4.1,3,7.4,6.5,10.1,10.5c9.4,13.5,18.4,27.3,27,41.2c10.4,16.8,21,33.6,30.3,51.1c0.2,0.4,0.5,0.8,0.8,1.4c2.1-1.4,4.2-2.6,6.2-4
			c-4.6-6.2-7.6-12.9-9.3-20.2c-2-8.4-6.2-14.7-14.3-18.3c-4.2-1.9-6.9-5.4-8.7-9.6c-1.3-2.9-1.9-6-2.6-9.1c-0.9-4.4-1.8-8.8-5-12.2
			c-2-2.3-4.6-3.9-7.1-5.5c-5.4-3.4-9.2-8-11.8-13.8c-1-2.2-2-4.3-3.2-6.4c-1.2-2.3-2.7-4.4-4.7-6.1c-0.9-0.7-1.8-1.4-3-1.1
			C594.9,236.7,593.3,237.3,591.6,238.3z M657.9,343.8c-0.2-0.5-0.4-0.9-0.6-1.3c-2.6-5.8-6-11.1-9.3-16.4
			c-10.6-16.7-20-34.3-31.5-50.4c-6.1-8.5-11-17.7-17.1-26.1c-2.8-3.9-5.9-7.4-10-10c-3.1,2-5.8,4.5-8,7.8
			c8.2,1.3,12.7,6.6,15.6,13.5c0.9,2.1,1.8,4.1,2.5,6.3c1.7,5.3,4.8,9.2,9.6,12.2c5,3.1,9.7,6.7,12.9,11.9c2.4,4,3.7,8.4,4.7,12.8
			c1.2,5.4,3.8,9.6,8.7,12.6c5.1,3,8.7,7.6,11.3,13c1.5,3.1,2.8,6.4,4.1,9.6c1,2.4,2.1,4.6,3.7,6.7
			C655.7,345.2,656.7,344.5,657.9,343.8z M602.2,235c3.8,3.2,6.2,7.1,8,11.2c3,6.6,7.2,12.2,13.1,16.5c4.6,3.3,7.8,7.7,9.5,13.1
			c0.8,2.6,1.6,5.1,2.4,7.7c1.8,5.9,4.5,11.3,10.2,14.5c7.5,4.1,12.1,10.4,14.2,18.6c1.3,4.9,3.2,9.5,5.2,14c1,2.2,2.4,4.1,3.7,6.1
			c2-1.2,4-2.2,5.8-3.6c-9.8-18.6-21-36.4-32.3-54.2c-1.4,1.1-2.5,2-3.7,2.9c-0.8,0.5-1.7,0.9-2.6,0.4c-0.9-0.5-0.8-1.4-0.8-2.2
			c0-1.5,0.3-3,0-4.6c-1.1-5.5-2.5-10.9-4.7-16c-3-6.9-6.2-13.8-12.3-18.7C613.6,237.2,608.8,234.4,602.2,235z M672.4,267.2
			c0.2,0.6,0.5,1.2,0.7,1.9c1.2,4.5,4,7.9,7.9,10.4c1,0.6,2,1.4,2.9,2.2c4.1,3.6,6.1,8.5,7.7,13.6c2.1,6.6,5.2,12.6,9,18.5
			c1.2-1.1,2.1-2.3,3.1-3.5c0.7-0.8,0.7-1.5,0.2-2.5c-1.4-3-2.8-6-4-9c-4-9.5-9.7-18.1-14.3-27.3c-0.4-0.8-0.9-1.6-1.2-2.4
			c-0.2-0.4-0.2-1,0.4-1.3c0.5-0.2,0.8,0,1.1,0.3s0.6,0.7,0.8,1c5.4,9.5,11.3,18.8,15.7,28.9c1.2,2.8,2.3,5.5,3.6,8.5
			c1-1.8,1.5-3.4,2-5c5.2-14.3-2.2-28.9-16.5-33.2C685.2,266.4,678.9,266.4,672.4,267.2z M574.8,269.5c0,5.1,0.4,9.8,1.1,14.5
			c0.1,0.6,0.3,1,0.7,1.5c4.5,5.8,8.2,12.1,11.9,18.4c9.5,16.5,18,33.5,27.2,50.1c2.3,4.1,4.5,8.4,6.8,12.7c1.7-1.2,3.3-2.3,5-3.4
			c-1.3-2.8-2.7-5.5-3.9-8.2c-2.1-5-5.1-9.2-9.2-12.6c-3.3-2.8-5.6-6.2-6.9-10.4c-1.4-4.5-2.5-9.1-3.2-13.7c-1.1-7.7-4.3-14-11.2-18
			c-4.2-2.5-6.8-6.4-8.3-10.9c-1.2-3.4-2.2-7-3.3-10.5C580.2,275.3,578.4,272,574.8,269.5z M683.2,327.8c-0.7-1.1-1.3-2-1.9-3
			c-2.4-4.4-3.8-9.2-5-14.1c-1.6-6.3-4-11.9-10.7-14.3c-5.9-2.2-9.5-6.5-11.6-12.3c-0.9-2.4-1.8-4.8-3-7.1c-1.3-2.5-2-2.6-4.3-1.1
			c-2.7,1.7-2.7,1.7-0.8,4.4c8.6,12.8,16.2,26.2,24.1,39.5c2.4,4,4.5,8.1,6.8,12.3C678.9,330.6,681,329.2,683.2,327.8z M620.4,368.2
			c-0.3-0.6-0.5-1-0.7-1.5c-5.6-10.4-11.3-20.8-16.8-31.2c-6.4-12-12.4-24.1-19.5-35.7c-2-3.1-4-6.3-6-9.4c1.2,7,2.7,13.8,4.6,20.5
			c1.8,6.4,5.3,11.7,11.4,15.1c2.6,1.5,4.6,3.8,5.9,6.8c1.3,3.1,1.7,6.4,2.1,9.6c1.4,11.3,7.2,20.5,14,29.3
			C617,370.7,618.6,369.5,620.4,368.2z M612.9,373.7c-0.7-0.9-1.2-1.5-1.7-2.2c-5.3-7-10.1-14.2-12.2-23c-0.9-3.9-1.2-7.8-2-11.7
			c-0.7-3.1-2-5.9-4.9-7.6c-2.1-1.3-4.3-2.4-6.3-4c5.3,19.5,10.1,39,14.4,58.9C604.4,380.1,608.6,376.9,612.9,373.7z M662,269.1
			c10.8,17.2,20.2,34.9,29.5,52.7c2.4-2,4.9-3.7,6.9-6c-1.6-2.7-2.9-5.5-4.6-8c-2.9-4.3-4.3-9.2-6-13.9c-2-5.5-5.1-10-10.4-12.7
			c-1.1-0.6-2.1-1.4-3-2.3c-3.1-3-4.9-6.6-4.9-11.1C667,268.2,664.8,269.2,662,269.1z M685.6,326.1c1.3-0.9,2.4-1.7,3.6-2.5
			c-0.2-0.5-0.3-0.8-0.4-1.2c-7.9-17.2-17.3-33.6-27.1-49.7c-0.4-0.6-0.9-1.2-1.3-1.8c-0.3-0.4-0.8-0.8-1.2-0.6
			c-2.3,0.9-4.5,1.8-6.9,2.8c3,2.5,4.3,6,5.6,9.3c2.1,5.4,5.3,9.6,10.7,12.2c4.7,2.2,7.7,6.1,9.2,11.1c0.8,2.5,1.5,5,2.2,7.5
			C681.2,317.8,682.6,322.2,685.6,326.1z"/>
		<path class="st2" d="M574.6,126c3.5-7.6,7.8-14.3,12.9-20.5C594,97.8,601,90.6,610.1,86c5.3-2.7,10.8-5.1,16.7-5.8
			c14.6-1.9,24.3,6.5,26.2,20c1.2,8.5-1.2,16.4-4.2,24.1c-2.5,6.5-5.9,12.5-9.2,18.5c-7.1,12.7-16,24.2-24.8,35.8
			c-12.7,16.8-25.3,33.6-38.8,49.8c-4.6,5.6-9.2,11.2-14.4,16.2c-1,0.9-1.8,1.9-2.2,3.3c-0.2,1-0.7,1.9-1.9,2
			c-1.2,0-1.4-1.1-1.7-1.9c-3.8-8.4-6.1-17.4-10-25.8c-7-15.2-14.7-30-24.3-43.7c-7.6-10.8-15.2-21.5-22.2-32.7
			c-4.7-7.6-9-15.5-10.9-24.3c-2.7-12.7-0.2-24.3,8-34.5c7.6-9.4,17.2-15,29.4-15.3c8.3-0.2,15.7,2.8,21.9,8.2
			c13.7,11.9,22.3,27,26.5,44.6C574.2,124.9,574.4,125.3,574.6,126z M510.2,80.8c-3.3,1.9-6.1,4.1-8.6,6.8c-2.2,2.4-2.2,3-0.5,5.8
			c1.9,3,4.8,4.9,7.7,6.7c3.2,2.1,5.3,4.9,6.3,8.7c0.8,2.9,1.5,5.9,3,8.6c2,3.5,5.3,5.3,8.7,7.1c2.8,1.5,4.7,3.7,6.1,6.4
			c1,1.9,2.1,3.9,3.2,5.8c2,3.5,4.6,6.3,8,8.3c3.9,2.3,6.8,5.4,8.2,9.7c1.9,6,5.1,10.9,11,13.8c2.7,1.3,4.2,3.8,5.3,6.6
			c0.8,2.1,1.6,4.2,2.6,6.3c1.1,2.4,2.4,4.7,5,5.6c5,1.9,8,5.4,9.8,10.3c0.8,2.2,2,4.3,4,6.1c2.8-3.7,5.6-7.2,8.4-10.9
			c-3.8-3.4-5.8-7.7-7.6-12.1c-1.3-3-3.2-5.2-6.5-6.3c-4.5-1.6-7.7-4.8-9.9-9.1c-1.2-2.2-2.2-4.5-2.7-7c-1-4.5-3.5-7.8-7.5-10.1
			c-3.7-2.1-7.1-4.6-9.4-8.4c-1.4-2.3-2.2-4.8-3.1-7.2c-1.1-3-2.4-5.9-5-8c-1.9-1.5-4-2.3-6.2-3.2c-2.7-1.2-5.2-2.6-7.1-5.1
			c-2.9-4-4.6-8.5-6-13.1c-1.1-3.8-3.4-6.6-7-8.3C514.7,91.8,511,87.5,510.2,80.8z M588.2,205.7c-3-2.3-4.6-5.4-5.9-8.7
			c-1.3-3.3-3.4-5.7-6.8-7c-1.5-0.6-2.8-1.5-3.9-2.7c-2.6-2.8-4.1-6.2-5.3-9.8c-1.1-3.3-2.8-6-6-7.6c-5.5-2.7-8.7-7.3-10.4-13.1
			c-1.2-4-3.4-7.2-7-9.2c-2.4-1.4-4.6-3.2-6.5-5.3c-2.4-2.8-4.4-6-5.9-9.5c-1.1-2.7-3-4.6-5.6-6c-2.7-1.5-5.4-2.9-7.5-5.2
			c-3-3.2-4.1-7.1-5.2-11.2c-0.8-2.9-2-5.5-4.6-7.3c-4-2.7-8.1-5.2-10.1-10.4c-1.8,2.9-3.2,5.6-4.1,8.4c-0.1,0.5,0.1,0.9,0.2,1.4
			c1.1,3.5,3.1,6.2,6.2,8.2c3.8,2.5,6.2,5.9,7,10.5c0.8,4.8,3.3,8.6,7.5,11.2c3.4,2.2,5.7,5.3,7.2,9.1c0.5,1.4,1.2,2.8,1.7,4.2
			c1.3,3.5,3.7,5.9,7.1,7.2c2.6,1,4.8,2.4,6.5,4.6c1.9,2.3,2.9,5.1,3.7,7.9c1.5,5.7,4.6,10,9.9,12.8c3.1,1.6,5.5,4.2,7.5,7.2
			c1.7,2.6,2.5,5.6,3.6,8.4c1.2,3.1,3.2,5.5,6.3,6.8c3.8,1.6,6.3,4.3,8,7.9c1.1,2.4,2.2,4.8,4.4,6.7
			C582.9,212.3,585.5,209.1,588.2,205.7z M492,107.4c-0.6,6.7,0,12.6,2.3,18.4c3.4,8.9,8.4,16.9,13.7,24.7c5,7.2,9.2,15,16.5,20.5
			c3.5,2.6,5.2,6.8,7.2,10.6c2,3.9,4.1,7.8,7.9,10.2c5.6,3.6,9.4,8.5,11.8,14.6c0.3,0.9,0.8,1.6,1.3,2.4c1.2,2.2,3,3.9,5.3,4.9
			c4.4,1.8,7.5,4.8,9.5,9c0.8,1.7,1.8,3.4,3.5,4.5c2.4-3,4.8-5.9,7.2-9c-3-2.5-4.5-6-6.2-9.3c-1.1-2-2.5-3.7-4.7-4.5
			c-5.3-1.9-8.4-5.8-9.8-11.1c-1.7-6.1-5.3-10.4-10.9-13.4c-4.2-2.2-6.7-5.8-8.2-10.2c-0.5-1.5-1-3-1.4-4.5
			c-1.2-4.6-3.8-7.8-8.4-9.5c-4-1.5-6.7-4.4-8.2-8.4c-0.5-1.3-1-2.6-1.5-3.9c-1.2-3.5-3.2-6.4-6.5-8.4c-5.2-3.1-8-7.8-9-13.6
			c-0.5-2.9-1.8-5.3-4.3-7C496.4,112.7,494,110.7,492,107.4z M530,77c-5.5-1-10.7,0-15.8,1.7c-1.2,0.4-1.5,1.1-1.2,2.4
			c1.3,5.1,4.6,8.4,9.1,10.6c4.3,2.1,7.1,5.5,8.5,10.1c0.3,1.1,0.6,2.1,1,3.1c2.1,5.9,4.8,11.4,11.3,13.8c5.9,2.1,10,6.3,11.7,12.3
			c2,6.9,6.3,11.6,12.2,15.2c3.6,2.1,6,5.2,7.2,9.2c0.4,1.3,0.9,2.7,1.4,4c2,5.1,4.4,9.8,9.9,11.9c4.2,1.6,6.9,4.5,8.6,8.6
			c0.4,1.1,0.9,2.1,1.4,3.2c1.2,2.5,2.5,5,4.6,7.1c2.2-2.9,4.4-5.6,6.6-8.4c-2.2-2.2-4.3-4.5-5.5-7.2c-1.6-3.8-4.3-6.3-7.9-8.1
			c-3.7-1.9-6.2-5-7.8-8.7c-0.9-2.1-1.8-4.3-2.5-6.5c-1.1-3.5-3.3-6.2-6.4-8c-4.4-2.6-7.3-6.3-8.9-11.2c-1.5-4.7-4.2-8.5-8.9-10.9
			c-5.2-2.6-8.6-6.9-10.2-12.7c-0.2-0.8-0.5-1.6-0.8-2.4c-1.7-5-4.4-9.1-9.2-11.6c-2.5-1.3-4.4-3.4-5.9-5.9
			C530.5,84.9,529.9,81.1,530,77z M627,154c2.2-3.1,4.1-6.3,6-9.5c0.2-0.4,0.4-0.8,0.1-1.2c-1.8-2.2-3-4.9-5.7-6.3
			c-0.8-0.4-1.6-1.1-2.4-1.6c-3.9-2.7-6-6.7-7.4-11c-1.4-4.2-4.8-6.8-8-9.2c-3.4-2.5-6.3-5.3-8.5-8.8c-1.3-2.1-1.9-4.4-2.2-7.3
			c-3.1,3.1-5.8,6-8.3,9c-0.4,0.5-0.2,1.1-0.2,1.6c0.7,4.5,3.3,7.6,6.9,9.9c4.8,3.1,8,7.2,9.7,12.7c1.1,3.7,3.2,7.2,7.1,8.4
			c4.3,1.4,6.6,4.5,8.7,8.1C623.8,150.8,625.2,152.5,627,154z M616.8,168.2c-3.2-2.1-4.8-5.2-6.3-8.2c-1-1.9-2.4-3.2-4.4-3.9
			c-2.2-0.8-4.1-2.1-5.7-3.9c-2.3-2.4-3.5-5.4-4.4-8.6c-1.2-4.1-3.5-7.2-7.6-8.9c-4.2-1.8-7.7-4.3-9.3-9.1
			c-2.3,3.4-3.1,7.4-5.5,10.5c1,1,1.9,2.1,3.1,2.8c0.1,0.1,0.2,0.2,0.3,0.2c5.5,3.1,8.8,7.8,10.4,13.8c1.5,5.4,4.5,9.6,9.5,12.2
			c2.9,1.5,5,3.8,6.4,6.9c0.6,1.4,1.5,2.7,2.3,4c0.8,1.2,1.7,2.4,3,3.2C611.3,175.7,613.9,172.1,616.8,168.2z M625.3,156.6
			c-3.1-2.8-5.2-6-7-9.5c-0.9-1.7-2.3-2.8-4.2-3.4c-2.7-0.9-5.1-2.1-6.8-4.4c-1.6-2.1-2.7-4.5-3.5-7c-1.2-3.7-3.2-6.7-6.5-8.8
			c-4.3-2.8-8-6-9.5-11.5c-2.6,3.2-4.6,6.5-6.7,9.8c-0.3,0.5,0,0.9,0.1,1.4c1.1,4.2,3.8,7,7.8,8.7c5.1,2.1,8.3,5.9,9.9,11.1
			c0.3,1,0.7,2,1.1,2.9c1.3,3.3,3.5,6,6.8,7.4c3.4,1.4,5.7,3.7,7.2,6.9c1.1,2.2,2.4,4.2,4.7,5.6C620.9,162.6,623,159.7,625.3,156.6z
			 M635,141.2c1.4-2.6,2.6-5,4-7.2c1.1-1.8,1.6-3.4-0.1-5.2c-0.7-0.7-1-1.7-1.4-2.6c-0.9-1.8-2.2-3.2-4-4.1c-2.4-1.2-4.3-3-5.7-5.3
			c-1.3-2.1-2.5-4.3-3.7-6.5c-1.1-2-2.5-3.7-4.5-4.7c-5.8-3-9.5-7.5-9.7-14.6c-2.8,1.5-5.2,3.3-7.6,5.1c-0.3,0.3-0.6,0.6-0.5,1.1
			c0.3,1.9,0.2,3.8,1,5.6c1.9,4.1,4.9,7.5,8.5,10.2c4.4,3.2,7.9,6.8,9.7,12.1c1.1,3.2,2.9,6.1,5.8,8C630,135.1,633,137.4,635,141.2z
			 M571.8,132.6c-0.1-1-0.2-1.9-0.4-2.9c-3.7-17.2-11.9-31.8-24.7-43.9c-4-3.8-8.6-6.7-14.2-8.1c0,0.4-0.1,0.8-0.1,1
			c0.8,5.4,3,10,7.8,13c3.6,2.2,6.9,4.7,8.7,8.7c0.8,1.9,1.8,3.8,2.3,5.8c1.7,6.1,5.6,10.4,11,13.7c1.6,1,3,2.2,4.2,3.8
			C568.6,126.3,570.1,129.5,571.8,132.6z M623.9,85.3c-3.5,1-6.7,2.1-9.9,3.4c-0.9,0.4-1.3,0.9-1.2,1.9c0.3,4.7,2.3,8.5,6.3,10.8
			c4.2,2.5,7.1,5.8,9.2,10.1c1.3,2.6,2.7,5.3,5.2,6.8c3.7,2.1,6.4,5,8.3,8.7c0,0.1,0.2,0.1,0.4,0.2c1.3-2.9,2.5-6,3.5-9
			c0.5-1.3,0.2-2.1-1-2.7c-4.5-2-6.9-5.7-8.7-10c-1.1-2.8-2.8-5.1-5.2-7c-1.6-1.2-3.1-2.6-4.3-4.2C624.4,91.8,623,89.1,623.9,85.3z
			 M537,194.1c4.3,8,8,15.8,11.5,23.7c3.6,7.9,6.7,16.1,10,24.4c3.7-4.3,7.3-8.4,10.6-12.8c-2.4-1.7-3.6-4.1-4.9-6.4
			c-1.6-2.9-3.8-5-7-6.2s-5.8-3.2-7.5-6.2c-0.8-1.5-1.6-3-2.2-4.6C545.5,200.9,542.3,196.9,537,194.1z M647,113.2
			c1.6-6.1,1.8-12.1-0.6-17.9C643,87,635.6,83.7,626.5,85c0,0.3-0.1,0.6,0,0.9c0,0.4,0.1,0.7,0.2,1.1c0.6,3.5,2.8,6,5.3,8.1
			c3.5,2.9,6,6.4,7.7,10.6C641.1,109,643.4,111.7,647,113.2z"/>
		<path class="st2" d="M-2.4,473.3c5.9,4.1,11.9,6.9,18.3,9c0.5-1.9-0.1-3.7,1-5.3c0.3-0.4,0-1.4-1.2-1.8
			c-5.5-1.8-10.8-3.8-16.2-5.9c-1.5-0.6-2.2-1.3-1.9-2.9c0.1-0.8,0-1.7,0-2.8c2.8,1.1,5.5,2.2,8.1,3.2c18.5,6.9,37.3,12.4,56.6,16.6
			c7.5,1.7,14.9,3.7,22.4,5.5c1.7,0.4,3.3,0.8,5.1,0.8c1.2,0,1.8-0.5,2.2-1.5c0.5-1.2,0.6-2.4,0.7-3.6c0.5-10.5,1.6-21,1.8-31.6
			c0.2-12.4,0-24.7-1.7-36.9c-0.8-6.1-2.2-12-5.2-17.5c-4.1-7.3-12.8-11.8-20.5-10.4c-8.3,1.6-12.3,7.2-14.1,14.8
			c-1.6,6.8-1.2,13.7-0.9,20.5c0.1,2,0.3,4,0.6,6c0.2,1.5-0.4,2.6-1.2,3.7c-0.9,1.3-1.9,0.8-3.1,0.3c-4.7-2-9.6-3.4-14.6-4.2
			c-7.2-1.3-14.5-2-21.8-0.5c-4.9,1-9.5,2.7-13.4,6.1c-0.2,0.2-0.4,0.5-0.9,0.3c0-1.5,0-3,0-4.5c0-0.8,0.5-1.1,1-1.4
			c1.7-1.3,3.6-2.3,5.6-3.2c-1-2.9-2.7-5.5-4.1-8.2c-0.8,0.4-1.5,0.8-2.5,1.4c0-1.5,0-2.9,0-4.2c0-0.9,0.6-1.1,1.2-1.4
			c7.2-4.5,15-5.5,23.3-3.4c4.9,1.2,9.5,3,14.2,5.7c0-1.4,0-2.5,0-3.6c0-9.2,1.4-18.1,5.9-26.2c7.9-14.2,20.6-21.5,38.1-19
			c11.4,1.6,19.5,8.6,24.9,18.7c3,5.7,4.2,11.8,4.7,18.2c1.1,14.3,0.4,28.5-0.9,42.7c-1,10.1-1.5,20.3-1.9,30.5
			c-0.3,7-0.7,14.1-1.5,21.1c-0.5,4.2-2.6,6.1-6.8,6.2c-6.3,0-12.4-1.1-18.6-2.2c-9-1.7-18.1-2.9-27-5.1
			c-10.8-2.8-21.9-4.4-32.5-8.1c-5.6-2-11.2-3.9-16.6-6.4c-1.9-0.9-3.6-2-5.4-3c-0.8-0.4-1.1-1-1.1-1.9
			C-2.4,476.3-2.4,475-2.4,473.3z M83.9,388.1c2.7-3.6,4.4-7.5,6-11.4c-4.4-3.6-13.4-5.9-17.9-4.4c0.5,3.6,0.9,7.3,0.8,11.1
			C76.9,384.1,80.7,385.4,83.9,388.1z M104.5,402.7c-0.4,0.2-0.5,0.3-0.7,0.4c-2.3,2.2-4.2,4.8-7,6.4c-0.6,0.3-0.4,0.8-0.3,1.3
			c0.3,1.6,0.6,3.2,0.9,4.9c0.7,3.9,0.7,7.9,1.2,11.9c2.4-0.4,4.5-1.4,6.8-2.3C105.7,417.8,105.2,410.3,104.5,402.7z M68.6,372.6
			c-5.8,0.2-13.7,4.5-16.7,8.9c1.8,1.9,3.6,3.7,5.4,5.6c3.7-2.6,7.9-3.7,12.5-4C69.4,379.5,69,376.1,68.6,372.6z M32.2,480.6
			c-0.4,2.1-0.4,4.2-1,6.4c8.2,1.9,16.4,3.8,24.7,5.7c-0.6-1.9-1.1-3.5-1.5-5.1c-0.2-0.8-0.5-1.1-1.3-1.3
			C46.2,484.4,39.3,482.5,32.2,480.6z M99.1,439.7c-0.1,0.2-0.1,0.2-0.1,0.3c0,7.9-0.2,15.8-0.7,23.7c0,0.4-0.2,0.8,0.2,1
			c1.4,0.7,2.7,1.9,4.4,2.4c0-9.7,1.3-19.1,1.8-28.7C102.6,438.8,100.8,439.2,99.1,439.7z M17.2,414.1c1.2,3.1,3.3,5.6,3.8,8.9
			c6.6,0.3,13,1.1,19.3,3.3c-2.2-4.1-2.9-5.1-5.8-6.3C29,417.5,23.4,415.3,17.2,414.1z M42,405.1c-0.8,4.6-0.6,8.9-0.4,13.2
			c0.1,3.6,3.6,8,6.8,9c-0.9-5.8-1.2-11.7-1-17.6c0-0.7,0.3-1.5-0.6-1.9C45.2,407,43.7,406.1,42,405.1z M86.6,389.8
			c1.3,1.5,2.4,2.8,3.7,4.2c2.3-3.5,3.8-7.2,6.2-10.5c0.3-0.5,0.2-0.9-0.2-1.3c-1.1-1.2-2.2-2.4-3.6-3.4
			C91.2,382.9,89.1,386.4,86.6,389.8z M8.8,414.2c1,2,1.9,3.7,2.7,5.4c1.9,4,1.9,4,6.4,3.4c0.1,0,0.2-0.1,0.3-0.2
			c-0.9-2.8-2.2-5.4-3.5-8c-0.3-0.6-0.6-0.9-1.2-0.9C11.9,414,10.4,414.1,8.8,414.2z M93.7,399.9c1.7-2,3.3-4,4.9-6.1
			c0.8-1.1,2.2-2.2,2.5-3.4c0.4-1.5-1-2.9-1.9-4.2c0,0-0.1-0.1-0.3-0.2c-1.8,2.9-3.4,5.9-5.3,8.7C92.2,396.6,91.9,398.2,93.7,399.9z
			 M6,414.9c-1.7,0.7-3.3,1.4-5.1,2.2c2.8,2.2,3.7,5.4,5.4,8.2c1.2-0.4,2.5-0.8,3.7-1.2C8.9,420.9,7.6,418,6,414.9z M95.8,406.3
			c2.1-2.3,4.1-4.5,6.1-6.7c2.2-2.4,2.2-2.6,0.6-5.7c-0.8,1.2-1.7,2.2-3.1,2.3c0,2.3-1.8,3.4-2.8,4.7
			C94.7,403.2,94.6,403.1,95.8,406.3z M88.6,494.1c0.6,1.4,1.2,2.8,1.7,4.2c0.3,0.8,0.8,1.2,1.6,1.3c1.9,0.3,3.8,0.5,5.8,0.8
			C95.3,495.9,91.8,493.5,88.6,494.1z M22.9,484.5c0.4-0.7-0.2-1.4-0.1-2.1c0-0.8,0-1.6,0-2.4c0.2-2.7-0.2-3.1-3-3
			c-0.6,0.7-0.4,1.5-0.5,2.3C18.5,483.4,18.5,483.4,22.9,484.5z M101.4,498.4c0.4-1.5,0.5-3,0.5-4.4c0-0.5,0.1-1-0.4-1.3
			c-1.6-1-3.3-2-5.4-3.4c0.7,1.5-0.3,2.6,0.6,3.6C98.2,494.7,99.7,496.5,101.4,498.4z M63.7,489c2.5,6.9,1.2,5.8,5.8,6.4
			C69,490.7,67.7,489.2,63.7,489z M25.3,485.2c1.1,0.5,2.2,0.9,3.6,1c0-2.3,0-4.5,0-6.7c-1-0.3-1.9-0.6-2.9-0.9
			C25.8,480.9,25.6,483,25.3,485.2z M98.2,467.6c-0.6,4.2-1.2,3.8,4.4,6.3C102.9,470.1,102.9,470,98.2,467.6z M48,404.8
			c-0.2-1.4,1.3-2.5-0.2-3.5s-3.1-1.7-4.8-2.5c-0.1,1.2-1.2,2.6-0.1,3.4C44.3,403.3,46.1,403.9,48,404.8z M57.2,487.4
			c0.4,1.4,0.8,2.7,1.2,3.9c0.8,2.4,1.2,2.7,3.9,2.6c-0.4-1.2-0.9-2.4-1.1-3.7C60.8,488,59.4,487.5,57.2,487.4z M50,383.8
			c-0.8,1-1.5,1.8-1.8,2.8c1.9,1.3,3.7,2.6,5.5,3.9c0.6-0.4,1.1-0.8,1.2-1.5C53.2,387.2,51.6,385.5,50,383.8z M102.4,484.6
			c-0.4-1.4,0.4-2.6-0.6-3.3c-1.4-1.1-3-2-4.7-3.2c0.2,1.2-1.1,2.4,0.2,3.3C98.8,482.4,100.4,483.3,102.4,484.6z M52,392.8
			c-1.8-1.5-3.5-2.9-5.2-4.3c-0.4,0.9-0.8,1.7-1.2,2.6c1.9,1.1,3.7,2.2,5.6,3.3c0.2-0.3,0.3-0.5,0.4-0.7
			C51.7,393.5,51.8,393.2,52,392.8z M70.9,490.5c0.7,4.7,1.6,5.9,4.5,6C74,491.1,74,491.1,70.9,490.5z M82.6,493
			c1.1,5.3,1.1,5.4,4.7,5.6c-0.4-1.1-1-2.2-1.2-3.3C85.7,493.4,84.3,493,82.6,493z M49.9,397c-1.8-1.1-3.6-2.2-5.3-3.3
			c-0.4,0.8-0.7,1.5-0.8,2.3c1.8,0.9,3.6,1.8,5.5,2.7C49.6,398,49.7,397.5,49.9,397z M96.4,483.8c0.2,1.4-0.4,2.4,0.8,3.1
			c1.5,0.9,3,1.8,4.7,2.8c0.2-0.9,0.6-1.7-0.2-2.3C100,486.3,98.4,485.2,96.4,483.8z M99,436.4c5.4-0.7,6.1-1.2,5.8-3.8
			c-1.6,0.5-3.1,1.1-4.7,1.5C98.9,434.5,98.6,435.1,99,436.4z M76.9,491.8c1.8,5.2,2.1,5.7,4.1,5.5C79.5,495.6,80.9,492,76.9,491.8z
			 M102.2,479c0.3-1.2,0.6-1.9,0-2.4c-1.4-1.1-3.4-1.3-4.4-3.1C97.1,477.2,100.8,476.8,102.2,479z M98.6,430.8
			c0.1,0.2,0.2,0.4,0.2,0.6c2.1-0.7,4.3-1.4,6.4-2c-0.1-0.2-0.2-0.4-0.2-0.6C103,429.7,100.6,429.8,98.6,430.8z"/>
		<path class="st2" d="M367.6,441.4c2-9.9,5.5-19,12-26.7c4.6-5.4,9.8-9.8,16.9-11.4c9.7-2.1,17,4.5,18.3,13.4
			c1.2,8.1-1,15.5-3.9,22.9c-3.9,10.1-9.5,19.3-15.3,28.4c-7,11-13.3,22.5-20,33.6c-1.3,2.1-2.5,4.2-4.1,6.1
			c-0.5,0.6-1.1,1.2-1.7,1.7c-2.2,1.7-4,1.5-5.7-0.8c-2.8-3.8-5.5-7.7-8.2-11.6c-4.8-6.9-10.6-12.7-17-18
			c-6.2-5.2-12.3-10.6-16.2-17.9c-3.2-6-4.8-12.4-3-19.1c2.1-7.9,9.9-13.9,18.1-14.4c11.8-0.6,21,4.4,28.5,12.9
			C366.8,441,366.9,441.4,367.6,441.4z M371.2,490c1.5-2.4,2.9-4.5,4.1-6.8c4.2-7.6,8.5-15.2,12.5-23c3.8-7.4,7.7-14.9,9.5-23.2
			c0.7-3.2,1.4-6.5,0.6-9.8c-0.7-3-2.5-3.7-5.2-2.3c-3.3,1.7-5.5,4.4-7.8,7.2c-4.5,5.6-7.5,12.1-10.4,18.7c-1,2.3-2,4.6-3,6.9
			c-0.6,1.5-2.1,2.3-3.4,2.8c-1.1,0.5-1.7-1.1-2.4-1.9c-5-5.8-10.7-10.6-18.1-13.1c-3-1-5.9-1-8.8-0.1c-1.9,0.6-3,2.1-3,4.1
			c0,1.9,0.8,3.5,1.7,5.1c2.2,3.8,5.5,6.6,8.8,9.5C355.4,471.8,364.4,479.6,371.2,490z"/>
		<path class="st2" d="M434.1,102.3c3-3,5.8-5.6,8.9-7.8c4.8-3.4,9.9-6.1,15.8-7c4.6-0.7,9.1-0.3,13.2,2.1c6.1,3.6,8.2,8.9,7.3,16.3
			c-1.5,12.4-8.7,21.2-18,28.6c-12.9,10.2-26.5,19.4-39.8,29.1c-4.3,3.1-8,6.9-11.7,10.7c-3.9,4-5.8,3.5-7.2-1.9
			c-1.7-6.4-2.4-13-3.5-19.5c-1.6-9.7-3.5-19.4-5.3-29.1c-1.5-8.2-3.3-16.4-2.4-24.8c0.8-8.3,4.1-15.5,10.9-20.5
			c10-7.4,21.1-4.7,28.1,5.2C434.2,89.1,435.2,95.3,434.1,102.3z M409.9,80.6c-3.3,1.9-5.1,4.6-6.5,7.6c-1.4,2.9-1.5,5.9-1.9,9
			c-0.5,4.5-0.4,9,0.4,13.4c0.9,5.2,1.8,10.4,2.7,15.7c0.6,3.5,1,7.1,1.6,10.6c1.1,6.4,1.7,12.8,2.4,19.2c0.4,4,1,7.9,2,11.9
			c0.5-0.7,1.6-0.9,1.5-2.1c-0.1-2-0.1-4.1-0.3-6.1c-0.7-7.3-1.6-14.6-2.3-21.9c-0.6-6.7-1.3-13.3-2.4-19.9
			c-1.1-7.3-2.6-14.6-1.8-22.1c0.4-3.3,0.6-6.6,2-9.7C408,84.4,408.9,82.7,409.9,80.6z M429.9,151.8c0.6-0.4,1-0.8,1.5-1.1
			c1.2-0.6,1.6-1.5,1.2-2.9c-0.5-1.9-0.8-3.8-1.2-5.7c-1.2-6.2-2.2-12.5-2.6-18.8c-0.3-5.2-0.9-10.5,0.6-15.6
			c1.2-4.1,0.9-8.1,0.5-12.1c-0.1-1.3-0.4-2.6-1.1-3.9c-1,1.1-1.6,2.2-1.8,3.5c-0.8,3.5-0.9,7.2-1.1,10.8
			c-0.5,6.4,0.2,12.7,0.4,19.1C426.6,134.1,427.7,142.9,429.9,151.8z M414.9,163.5c2.2-1.3,2.6-1.8,2.5-2.7
			c-1.2-6.8-2.2-13.6-3-20.5c-0.8-7.3-1.8-14.6-2.4-21.9c-0.6-7.8-1-15.6,0.3-23.3c0.9-5.5,1.7-11.2,6.6-15c-1.6-0.7-3.7-0.1-5,1.5
			c-2.4,3.1-4.2,6.5-4.7,10.5c-0.1,0.8,0.1,1.6,0,2.3c-0.8,5.5-0.4,11,0.3,16.4c0.8,6.6,1.6,13.2,2.4,19.8c0.5,4.3,0.8,8.6,1.2,13
			C413.6,150.1,414.3,156.7,414.9,163.5z M406.3,172.6c0.5-0.8,1.9-1.1,1.5-2.4c-1.8-6.2-2.3-12.6-2.9-19
			c-0.5-5.2-1.2-10.4-2.1-15.5c-1-5.9-2.1-11.7-3.3-17.6c-1-5.3-2-10.5-1.8-16c0.2-3.2,0.2-6.3,0.8-9.5c0.1-0.7,0.3-1.4,0.4-2.1
			c0.1-0.6,0.9-1.2,0.1-2c-3,5.1-4.1,10.6-3.6,16.4c0.5,6.8,1.7,13.5,3,20.1c2,9.6,3.6,19.2,5,28.9
			C404.3,160.2,404.9,166.4,406.3,172.6z M452.8,94.1c-1.9,0.9-2.8,2.3-3.4,4c-0.8,2.3-1,4.8-1.1,7.2c-0.3,7.8,1.3,15.5,2.4,23.2
			c0.3,2.2,0.9,4.3,1.4,6.6c0.9-0.6,1.6-1.1,2.2-1.7c0.7-0.6,1.6-1,1.9-1.6C452.4,119.5,450.4,107.2,452.8,94.1z M419.8,159.3
			c1.6-0.6,2-1.5,2.2-2.9c0.2-2.5-0.5-4.8-0.8-7.2c-1.2-8.1-2.4-16.2-3.6-24.3c-1.2-8.4-2.4-16.8-1.5-25.3
			c0.7-6.2,1.1-12.7,6.7-17.1c-0.8-0.4-1.4,0-1.9,0.4c-1.5,0.9-2.4,2.2-3,3.8c-1.9,4.4-2.6,9.2-2.9,13.9c-0.5,9.3,0.1,18.6,1.2,27.9
			c0.7,5.9,1.3,11.9,2,17.9C418.7,150.5,419.2,154.8,419.8,159.3z M470.2,117.1c3.4-5.1,5-10.8,4.6-16.9c-0.2-3.6-4.2-7.3-7.7-7.5
			C467.2,101,468.9,109,470.2,117.1z M441.3,101.7c-1.4,0.5-1.9,1.5-2.3,2.8c-1,3.8-1.2,7.6-1,11.5c0.4,7.2,1.7,14.2,2.8,21.3
			c0.3,1.8,0.3,3.6,1,5.4c1.2-0.9,2.4-1.8,3.4-2.6C442.6,127.4,438.8,114.9,441.3,101.7z M425.7,154.7c1.4-0.7,1.4-0.7,1.1-1.7
			c-1.9-8.9-3.5-17.8-4.1-27c-0.6-9.5-1-19,0.2-28.5c0.5-3.5,1.5-6.8,4.6-9.1c-0.5-1-1-2-1.9-2.7c-1.4,0.4-2.3,1.4-2.9,2.7
			c-1.1,2.4-1.8,4.9-2.1,7.5c-1.2,8.2-0.5,16.3,0.5,24.4C422.6,131.8,423.9,143.3,425.7,154.7z M462.9,126.3c-4-11.2-6-22.2-5-33.8
			c-1,0-1.3,0.7-1.5,1.4c-0.4,2-0.7,4-0.8,6c-0.4,7.7,0.4,15.3,1.5,22.8c0.4,2.4,0.9,4.7,1.4,7.3
			C460.4,128.6,461.8,127.5,462.9,126.3z M463.9,91.8c-0.7,0-1.3,0-1.8,0c-0.4,0-0.7,0.1-1.1,0.2c-0.3,10.8,1.2,21.4,3.9,32.1
			c1.5-1.4,2.6-2.9,3.9-4.5c-1-0.4-1.5-1.1-1.8-2c-1.3-5.8-2.6-11.6-3.1-17.5C463.6,97.4,463.6,94.7,463.9,91.8z M434,108.6
			c-2.5,2.4-0.8,33.1,2,38.6c3.1-1.9,3.1-1.9,2.3-5.2c-0.2-0.9-0.4-1.8-0.6-2.7C435.6,129.3,432.5,119.4,434,108.6z M444.4,111.5
			c0,9,2.1,17.8,3.4,26.9c1.1-0.9,2.1-1.5,3-2.2C448.6,134.5,445.7,120.6,444.4,111.5z"/>
		<path class="st2" d="M-2.3,192.9c1.2,0.5,2.3,0.9,3.3,1.4c0.9-15.6,1.8-31.1,2.8-46.8c-1.4-0.7-3-1.1-4.5-1.5
			c-1.4-0.3-1.8-0.9-1.7-2.2c0.1-0.9,0-1.8,0-3.1c11.3,3,22.1,6.3,31.5,14.4c-0.5-2.4-0.9-4.3-1.2-6.1c-1.1-5.3-1-10.8-0.7-16.1
			c0.4-7.5,1.8-14.8,5-21.7c2.6-5.5,6.1-10.3,11.6-13.3c2.6-1.4,5.3-2.7,8.3-2.8c6.5,0,11.7,2.6,16.1,7.3c6.7,7.3,9,16.3,9.9,25.8
			c1.1,10.5,0,20.9-0.9,31.3c-1,11.7-1.6,23.4-1.6,35.1c-0.1,7.9,0.4,15.7,1.5,23.5c0.1,0.5,0.1,1.1,0.1,1.6c0,2.3-1,3.1-3.1,2.5
			c-3.2-1-6.5-2.2-9.7-3.4c-8.5-3.2-17.2-5.9-25.9-8.6c-11.1-3.4-22.5-6-33.5-9.9c-1.4-0.5-2.8-1.1-4.2-1.8
			C-2.7,197-2.7,197-2.3,192.9z M42.1,206.6c0.5-2,0.6-4,0.9-6c1.1-8.4,2.2-16.9,3.2-25.3c0.9-7.5,1.7-15.1,2.7-22.6
			c1.2-9.7,2.5-19.4,4-29.1c1.2-8.3,1.6-16.7,3.8-24.8c-2.5-1-5-0.4-7.5,0.2c-2.9,0.7-3.2,1.2-3.3,4.3c-0.2,3.8-0.5,7.7-0.9,11.5
			c-0.5,5.8-1.2,11.6-1.7,17.4c-0.5,5.1-0.8,10.1-1.2,15.2c-0.6,7.6-1.2,15.3-1.8,22.9c-0.4,4.8-0.8,9.6-1.2,14.5
			c-0.6,6.7-1.3,13.5-2,20.3C38.8,205.6,40.4,206.1,42.1,206.6z M59.1,100.1c-4.4,35.9-8.8,71.7-13.8,107.5c1.6,0.5,3.3,1.1,4.9,1.6
			c0.5-0.8,0.7-1.5,0.8-2.3c0.9-4.6,1.8-9.2,2.7-13.8c2-10.4,3.5-20.8,5-31.3c1.6-10.8,3.5-21.5,4.6-32.3c0.7-7,1.8-13.9,3.2-20.8
			c0.2-1.2,0.2-2.4-0.7-3.4C64,103.1,61.9,101.4,59.1,100.1z M61,213.2c0.2-0.4,0.3-0.5,0.3-0.7c1.1-6.4,2.2-12.9,3.1-19.3
			c1.2-8.3,2.6-16.5,4-24.7c1.2-6.9,2.3-13.7,3.6-20.6c0.7-3.6,1.9-7.2,1.8-11c-0.1-7.2-1.1-14.4-2.7-21.4c-0.4-1.6-1.4-2.6-2-4
			c-4.4,33.2-9,66.2-15.6,99.2C56,211.1,58.4,212.2,61,213.2z M42.8,103.3c-0.2,0-0.3-0.1-0.5-0.1c-0.7,0.6-1.6,1-2.1,1.7
			c-1.9,2.9-3.9,5.8-5,9.1c-4.4,12-5,24.3-2.6,36.9c0.5,2.9,1,5.7,0.8,8.7c-0.2,3.1-1.2,6.1-1.2,9.3c0.1,5-0.4,10.1-0.8,15.1
			c-0.5,6-0.8,12-1.7,17.9c-0.1,0.5-0.2,1.2,0.5,1.4c1.3,0.3,2.5,1,4,0.9C36.7,170.3,39.3,136.8,42.8,103.3z M13.8,151.3
			c-0.4,5.6-0.8,11.1-1.1,16.7c-0.2,4.1-0.4,8.3-0.6,12.4c-0.3,5.5-0.6,10.9-0.9,16.4c0,0.7-0.1,1.3,0.8,1.6c2,0.5,4.1,1.1,6.1,1.6
			c0.7-3.2,0.4-6.2,0.6-9.2c0.7-11.9,1-23.9,1.5-35.8c0-0.5,0-1-0.5-1.2C17.7,152.9,16,151.7,13.8,151.3z M22.7,155.3
			c-0.8,15.3-0.2,30.3-1.6,45.3c1.9,0.5,3.6,1,5.5,1.5c0.6-5,0.9-10,1.3-14.9c0.8-8.5,1.2-17.1,1.8-25.6c0.1-1-0.2-1.6-1-2.2
			C26.8,158.1,24.9,156.8,22.7,155.3z M6.8,148.5c-0.1,0.5-0.3,0.9-0.4,1.4c-0.7,8.4-1.2,16.7-1.5,25.1c-0.2,5.6-0.5,11.1-0.8,16.7
			c-0.3,4.1-0.3,4.1,3.6,5.3c0.1,0,0.2,0,0.4,0c0.7-0.9,0.4-2,0.4-3c0.6-8.4,1.3-16.9,1.8-25.3c0.3-4.9,0.4-9.8,0.7-14.7
			C11.3,149.6,11.4,149.6,6.8,148.5z M73.1,218.5c-3.1-18.6-1.1-37.1-0.9-55.6c-2.8,17.1-4.8,34.4-8.3,51.7
			C67.1,215.5,69.8,217.5,73.1,218.5z"/>
		<path class="st2" d="M47.5,19.7c1.4-5.5,3.8-10.4,7-15.1c4.8-7,10.8-12.6,19-15.2c5.2-1.7,10.1-1.2,14.2,2.6c3.8,3.5,4.6,8.2,4,13
			c-1.9,13.9-7,26.6-13.8,38.8C74.8,49.4,72,55,69,60.5c-3.2,6-4.8,12.6-7.5,18.8c-1.7,3.8-2.9,4.1-5.8,1.1
			C43.3,67.9,29.5,57.1,16.1,45.7c-5-4.3-9.5-9-12.8-14.9C-1,23-1.5,15.1,4,7.7c4-5.4,9.9-7.4,16.4-6.8C32,2,40,8.9,46.2,18.3
			C46.6,18.8,46.8,19.4,47.5,19.7z M40.6,60.5c0-0.1,0-0.3,0-0.5c-2-7.4-3.3-14.9-4.3-22.4c-0.7-5.1-1.6-10.2-2.1-15.4
			c-0.3-3.9-1.5-7.7-1.2-11.6c0-0.4-0.1-0.7-0.4-0.9c-2.7-1.8-5.6-3-8.9-3.9c0,0.7,0,1.2,0.1,1.7c3.1,15.2,6.8,30.2,11.4,44.9
			C36.2,55.5,36.9,59,40.6,60.5z M60.6,3.5c-1.9,2.2-3.3,4.1-4.5,6.2c-0.2,0.4-0.6,0.7-0.4,1.2c1,2.8,0.7,5.8,0.8,8.7
			c0.3,7.2,1.4,14.2,2.5,21.3c0.9,5.7,1.8,11.3,2.4,17c0.3,2.5,0.7,5,1.1,8.1c1.2-2.5,2.1-4.5,3.1-6.6c0.2-0.3,0.2-0.7,0.1-1
			c-0.6-3.5-1.1-7-1.5-10.5c-1.4-11-2.8-21.9-3.2-33C60.8,11.1,60.6,7.5,60.6,3.5z M15.7,5.3c0,0.3-0.1,0.5-0.1,0.8
			c3.4,14.2,7,28.2,11.9,42c0.9,2.5,2.5,3.9,4.5,5.4c0-0.3,0.1-0.5,0-0.7c-4.7-15.3-8.8-30.7-11.4-46.5c-0.1-0.6-0.2-1.4-1.2-1.3
			C18.3,5,17,4.9,15.7,5.3z M72.8,45.2c1.1-1.9,1.8-3.3,2.7-4.7c0.6-0.9,0.7-1.8,0.5-2.8c-0.6-3.3-0.9-6.6-1.1-10
			C74.4,18.4,73.4,9.2,73.1,0c-0.1-1.9-0.3-3.7-0.4-5.8c-1.2,0.8-2.8,0.6-2.8,2.4c0,3,0.1,6,0.2,9c0.4,7.5,0.8,15.1,1.3,22.6
			C71.6,33.7,72.1,39.1,72.8,45.2z M35.5,12c0.6,5.3,1.1,10.4,1.9,15.4c1.8,11.1,4,22.1,6.6,33c0.8,3.3,2,6.2,5,8
			c0-0.1,0.1-0.1,0.1-0.2c-4.6-16.4-7.5-33.1-9.5-49.9C39.3,15.5,37.7,13.8,35.5,12z M66.9-2.2c-3.5,2.4-3.5,2.4-3.4,6
			c0,0.9,0,1.7,0,2.6c0,5.8,0.4,11.6,1.1,17.4c0.6,5.8,1.3,11.5,1.9,17.3c0.5,4.1,1,8.3,1.5,12.6c1.8-2.5,2.4-4.8,1.9-7.8
			c-1.7-10.7-2.2-21.5-2.8-32.4C67,8.3,66.8,3.2,66.9-2.2z M53.1,15.5c-1.5,2.9-2.4,5.9-3.2,9c-0.2,0.7-0.2,1.4-0.1,2.1
			c2.3,11.6,4.1,23.4,6.7,34.9c1,4.3,1.8,8.6,3.4,12.8C58.5,54.6,54,35.2,53.1,15.5z M12.7,6.1c-0.8,0.4-1.5,0.8-2.2,1.1
			C9.8,7.5,9.6,8,9.8,8.7c1,5.1,2.5,10.1,3.6,15.2c1.2,5.5,3.2,10.9,4.9,16.4c0.6,2.1,2.5,4.1,4.8,5.1C19,32.5,16,19.4,12.7,6.1z
			 M78.7,33.8c2-3.3,2.1-4.2,1.9-8.9c-0.4-8.1-0.9-16.2-0.8-24.3c0-2.5-0.5-5.1-0.3-7.6c-3.7-0.2-3.8-0.2-3.7,3.1
			c0,5.6,0.7,11.1,1.1,16.7c0.4,5.3,0.7,10.6,1.2,15.9C78.2,30.3,78,32,78.7,33.8z M42.8,19.7c-0.4,0.4-0.3,0.8-0.2,1.1
			c1.6,8.4,3.1,16.8,4.8,25.1c1.8,9.2,4,18.2,6.7,27.1c0.5,1.8,1.8,2.8,3.1,3.9c-0.2-1.3-0.6-2.5-0.9-3.8
			c-2.9-10.5-5.5-21.1-7.4-31.9c-0.9-4.9-2.1-9.8-2.7-14.8C45.7,23.8,44.5,21.8,42.8,19.7z M7.3,10.1c-1.1,1.1-1.5,2.2-2,3.3
			C2.4,20.6,6.5,32,13.9,37.1C11.3,28.2,9.7,19.2,7.3,10.1z M82.6-6.5C82.7,2.8,83,12,83.7,21.2c0.6-1.3,1.1-2.5,1.4-3.9
			c1.6-5.4,3.4-10.7,2.7-16.5C87.5-2.6,85.8-5.1,82.6-6.5z"/>
		<path class="st2" d="M281.3,246.1c1.6-2.7,3.1-4.9,4.8-7c7.9-9.7,17.9-16.1,30.2-18.6c5.4-1.1,11-1.2,16.3,0.4
			c9.6,2.9,16.1,9.3,18.4,19.4c1.9,8.7,0.3,17-2.5,25.3c-4.4,13.3-13.2,23.8-21.8,34.4c-9.3,11.5-19.7,22.1-28.7,33.9
			c-8.8,11.5-16.4,23.7-22.3,36.9c-1.8,4-4.1,3.4-6.4,1.1c-16.9-16.9-31.7-35.5-44-56c-8.4-14-15.9-28.4-20.8-44
			c-3.4-10.7-5.5-21.5-4.6-32.7c1.4-16.2,12.2-29.1,27.7-32.4c16.3-3.4,39,3.7,48.9,26.3C278.4,237,280,241.2,281.3,246.1z
			 M272.1,367.8c0.8-2,1.6-4,2.5-6c6.9-14.8,16.4-27.9,26.8-40.4c8.6-10.3,17.7-20,25.9-30.6c5.7-7.4,11.3-14.8,14.8-23.6
			c3.1-8,5.2-16.1,3.5-24.8c-1.6-8.1-8.3-15.3-15.6-16.6c-10.6-1.8-20.4,0.7-29.3,6.4c-6.7,4.4-12.2,10.2-16.3,17.3
			c-0.6,1.1-1.4,2.2-2.2,3.1c-1.1,1.2-2.7,0.9-3-0.5c-1-5.1-3.2-9.7-5.3-14.4c-4.4-9.8-10.9-17.7-20.8-22.4
			c-7.8-3.7-16-5.8-24.6-4.1c-12.8,2.6-20.4,10.9-23.4,23.3c-1.9,7.5-0.8,15.1,0.6,22.6c2,11,5.9,21.4,10.8,31.5
			C230.6,318.1,249.1,344.5,272.1,367.8z"/>
		<path class="st2" d="M510,404.1c0.4-8.4,1.3-16.2,3.7-23.7c2.4-7.7,5.9-14.6,12.6-19.6c10.7-8,24.9-10.3,37.6-1.4
			c7.5,5.2,11.3,12.6,13.5,21c3.2,11.7,3.2,23.6,1.4,35.6c-2.8,18.5-8.8,36.1-15.9,53.3c-5.5,13.4-11.5,26.5-19.1,38.8
			c-0.3,0.6-0.6,1.2-1.1,1.7c-2,1.8-3.6,2.2-4.9,0.8c-6.1-6.8-14-11.1-21.3-16.1c-11.6-7.9-24.2-13.9-36.4-20.7
			c-11.5-6.5-22.9-13.1-32.5-22.3c-9.4-9-15.4-19.8-17-33c-1.3-11.3,2.1-20.6,11.8-27.1c9.3-6.3,19.4-9.7,30.7-8.1
			c11.1,1.6,20.8,6.5,29.6,13.3C505.2,398.7,507.5,401.1,510,404.1z M539.6,507.5c2.5-4.9,5-9.6,7.3-14.3
			c4.5-9.7,8.4-19.7,12.2-29.7c5.9-15.5,11.4-31.1,14.1-47.6c1.9-11.2,2.1-22.5-0.9-33.6c-1.8-6.8-4.6-13-10.4-17.5
			c-6.3-5-13.3-7.4-21.3-5.3c-10.5,2.7-17.5,9.4-21,19.7c-3.5,10.2-5.1,20.7-5.1,31.4c0,1.1-0.1,2.2-1.3,2.5
			c-1.1,0.3-1.7-0.4-2.2-1.2c-4.3-6.2-9.7-11.2-16.1-15.1c-7.6-4.7-15.7-8.1-24.7-8.7c-10-0.6-19,2.6-26.8,8.8
			c-5.5,4.3-8.3,9.9-8.1,16.9c0.2,11.1,4.3,20.7,11.6,29.1c7.2,8.3,16.3,14.3,25.4,20.2c7.9,5.1,16.2,9.5,24.5,13.8
			c11.7,6.2,22.6,13.5,33.2,21.4C533.3,501,536.7,503.8,539.6,507.5z"/>
		<path class="st2" d="M166.9,128.9C171,116,177,104.5,185.1,94c5-6.4,10.8-12.2,17.8-16.6c12.9-8.2,27.7-7.6,39.6,1.7
			c6.4,4.9,10,11.8,12.6,19.3c4.2,12.2,3.3,24.2-2,35.9c-7.1,15.7-16.3,30-26.6,43.7c-7.1,9.4-15.2,18.2-21.8,28.1
			c-6.4,9.7-12.4,19.7-18.4,29.7c-1.9,3.1-3,6.5-4.4,9.9c-0.4,0.9-0.7,1.7-1.8,1.8s-1.2-0.9-1.8-1.5c-1.4-1.4-3.1-2.6-4.7-3.8
			c-9-7-17.1-15-24.7-23.4c-14.9-16.4-29.4-33.2-42.6-51c-7.7-10.3-14.5-21.2-19.2-33.3c-3-7.7-4.6-15.6-3.6-23.9
			c1.3-12,6.1-22.3,15.9-29.7c9.2-7,19.3-7.2,29.7-2.6c16.5,7.4,27.2,20,33.6,36.7c1.6,4.2,3,8.5,3.8,13
			C166.5,128.2,166.7,128.4,166.9,128.9z M179.4,241.9c1.4-3.3,2.5-6.5,4.3-9.5c10.5-17.8,21.5-35.2,34.8-51.2
			c12.4-14.8,22-31.3,30-48.9c6.5-14.2,6.1-28.1-1.7-41.7c-7.8-13.5-23.1-18.5-37.1-12.2c-8.1,3.6-14.3,9.7-19.9,16.3
			c-8.5,10.3-14.6,22-19,34.6c-0.8,2.3-1.4,4.7-2.6,6.9c-0.4,0.8-0.9,1.5-2,1.3c-0.9-0.2-0.9-1-1-1.8c-0.6-5.8-2.1-11.4-4-16.9
			c-6.3-18.7-18.4-31.6-37.1-38.1c-8.5-3-16.4-1.8-23.3,3.7c-8.5,6.8-12.5,16.1-13.6,26.8c-0.8,7.5,0.8,14.6,3.5,21.5
			c4.1,10.4,9.9,19.9,16.4,29c8.3,11.7,17.5,22.8,26.6,33.8c11,13.2,22.6,25.8,35.4,37.1C172.5,235.8,175.9,238.8,179.4,241.9z"/>
		<path class="st2" d="M327.5,48.2c3.9-4.5,7.9-8.4,12.2-11.9c9.1-7.4,19.4-12.3,31.1-13.8c5.6-0.8,11.4-1.4,17,0
			c8.2,2,14.7,6.5,18.2,14.6c3.7,8.7,2.9,17.2-1,25.6c-2.8,5.9-6.9,10.8-11.2,15.6c-9,9.8-18.4,19.2-27.9,28.6
			c-11,10.8-20.6,22.8-29.9,34.9c-5.9,7.6-11.6,15.4-16.5,23.6c-0.7,1.2-1.4,2.4-2,3.7c-0.4,0.8-1,1.3-1.9,1c-0.8-0.2-1-0.8-0.9-1.6
			c0-0.3-0.1-0.7-0.2-1c-11.5-20.5-21.9-41.7-33.7-62.1c-4.6-7.9-9.5-15.8-13.1-24.2c-3.8-8.9-6.6-18.1-6.6-27.8
			c0-9.1,1.5-17.7,7-25.4c4.4-6.2,10.3-9.4,17.5-10.6c16.7-2.8,31.6,7.8,38.3,21C325.4,41.3,326.8,44.5,327.5,48.2z M316.4,162.7
			c0.3-0.4,0.5-0.5,0.6-0.7c3.1-5.4,6.5-10.5,10.1-15.6c12.1-16.8,24.8-33.1,39.6-47.7c8.4-8.3,16.6-16.8,24.6-25.4
			c5.4-5.8,10-12.1,11.6-20.1c1.8-9-2-21.3-13.8-25.2c-4-1.3-8-1.8-12.4-1.5c-5.9,0.5-11.7,1.1-17.2,3.2
			c-12.6,4.7-22.2,13.3-30.6,23.5c-0.4,0.5-0.8,1.1-1.3,1.5c-0.6,0.6-1.4,0.8-2.2,0.3c-0.8-0.4-1-1.1-0.9-1.9c0.1-0.7,0-1.3-0.1-2
			c-0.9-4.7-3-8.8-5.6-12.7c-7.2-10.2-16.8-16.6-30-16.4c-8.3,0.2-14.8,3.7-18.9,11.3c-4.2,7.9-4.9,16.4-3.8,25
			c1.3,10.4,5.1,20.1,10.2,29.3c12.8,23,25.2,46.2,37.3,69.6C314.5,158.9,315.4,160.7,316.4,162.7z"/>
		<path class="st2" d="M112.6,24.6c0.4-1.9,0.6-3.6,1.1-5.2c1.4-4.8,4.1-8.8,8.2-11.6c5.5-3.8,12.5-2.8,15.9,2.4
			c1.8,2.8,1.9,5.9,1.5,9.1c-1.1,8.3-3.6,16.2-6.1,24.1c-2.4,8-4.4,16.1-6.7,24.2c-0.2,0.8-0.5,1.5-1,2.1c-1,1.1-2.3,1.4-3.5,0.5
			c-10-7.6-21.1-14-29.1-24.1c-3.2-4.1-5.8-8.5-6.6-13.7c-1.4-9.7,6.5-16.9,16-14.6C106.5,18.7,108.9,20.3,112.6,24.6z"/>
		<path class="st2" d="M272.1,170.2c0.7-3.1,1.3-5.9,2.3-8.7c1.9-5.4,4.6-10.2,9.6-13.3c5.4-3.4,10.3-1.9,12.9,4
			c2.5,5.5,2.7,11.2,1,16.9c-4.1,13.6-8.8,26.9-14.4,40c-0.6,1.3-1.3,2.6-2.1,3.9c-1.2,1.7-3,2-4.3,0.4c-7.6-9.4-17.2-17-25.1-26.2
			c-4.1-4.8-6.8-10.2-7.1-16.7c-0.4-7.9,8.9-12.3,14-10.6s9.4,4.5,12.3,9.1C271.5,169.1,271.7,169.5,272.1,170.2z"/>
		<path class="st2" d="M575.4,48.8c2.6-4.5,5.6-8.5,9.8-11.5c2.9-2.2,6.2-3.5,10-3.1c6.2,0.7,9.8,5.8,8.7,12.1
			c-1.1,6.4-4.4,11.8-8.2,16.8c-4.7,6.4-10,12.2-14.6,18.7c-1.6,2.2-2.9,4.5-4.3,6.8c-0.7,1-1.3,2.1-2,3.1c-1.8,2.3-3.9,2.2-5.5-0.2
			c-2-3-3.7-6.2-5.3-9.4c-3.9-7.7-9-14.7-13.1-22.3c-2.1-3.9-4.2-7.9-5.1-12.3c-1.1-5.1,0.2-9.5,4.2-12.7c4.1-3.3,8.8-4,13.8-1.7
			c5.5,2.6,8.2,7.5,10.5,12.7c0.4,0.9,0.7,1.8,1,2.7C575.2,48.7,575.2,48.7,575.4,48.8z M595.4,41.9c-0.4-2.1-0.8-2.7-1.9-3
			c-1.9-0.5-5,1.2-6.6,3.7C589.6,40.6,592.3,38.9,595.4,41.9z M562.7,65.9c-0.5-2-1.1-3.9-1.6-5.9c-0.3-1.1-1-1.4-2.2-1.4
			C559.9,61.2,561.1,63.6,562.7,65.9z M571.7,55.2c0.7-3.1-0.8-5.5-2.4-7.8C570.1,50,570.9,52.6,571.7,55.2z"/>
		<path class="st2" d="M470,174.1c1.5-1.9,2.8-3.7,4.2-5.4c2.5-3.1,5.7-5.6,9.7-6.2c6.8-1,11.8,5.2,9.9,11.9
			c-0.7,2.4-1.9,4.5-3.1,6.6c-4.9,8.2-11,15.5-17,22.9c-2.4,2.9-4.7,5.8-7.1,8.7c-0.7,0.8-1.4,1.6-2.1,2.3c-2.9,3-4.9,2.7-6.8-1
			c-1.6-3.1-2.8-6.4-4.1-9.6c-3.4-9-7.2-17.9-9.6-27.3c-1.3-5.2-1.7-10.5,0.1-15.7c1.9-5.3,6.8-7.6,12.1-5.5
			c7.1,2.8,10.9,8.4,12.9,15.5C469.6,172,469.8,172.9,470,174.1z"/>
		<path class="st2" d="M139.6,454.7c1.2-3.4,2.8-6.2,5-8.7c2.8-3.2,6.4-4.5,10.6-3.8c2,0.3,3.6,1.4,4.8,3.1
			c3.3,4.8,4.3,10.2,3.4,15.8c-2,12.2-7.3,23.2-13.4,33.9c-2.3,3.9-4.9,4.2-7.9,0.9c-7.7-8.4-15.7-16.5-22.8-25.3
			c-3.4-4.2-6-9-5.8-14.7c0.2-7,5.6-14.7,16-10.9c3.7,1.4,6.6,3.8,8.6,7.1C138.5,452.8,138.9,453.6,139.6,454.7z"/>
		<path class="st2" d="M-2.4,348.7c4.9-1.2,7,0,15.4,8.5c0.2-2.7-0.1-5.2,0.4-7.7c1-5.6,3.3-10.4,8.3-13.5c8.1-5,15.6-1,16,8.5
			c0.2,4.9-1,9.6-2.2,14.3c-3.1,12-6,24-8,36.1c-0.5,3.3-2.9,4.2-5.4,2.1c-7.9-6.8-16.1-13.3-23.4-20.8c-0.8-0.9-1.2-1.7-1.2-2.9
			C-2.4,365.2-2.4,357-2.4,348.7z"/>
		<path class="st2" d="M638.8,20.4c3.2-4.1,7-7.1,11.3-9.4c4.6-2.5,9.2-3,14.1-1c6.3,2.7,9.6,9.6,7.7,16.2
			c-1.5,5.1-4.5,9.3-7.9,13.3c-4.9,5.6-10.7,10.1-16.4,14.8c-3.9,3.2-7.8,6.5-11.9,9.5c-3.6,2.6-5.5,2.2-8.2-1.3
			c-3.5-4.6-5.6-9.9-8.2-14.9c-3.4-6.6-7.2-13.1-9.6-20.2c-0.8-2.3-1.4-4.5-1.7-6.9c-1.1-7.8,3-13.4,10.8-14.7
			c7.2-1.2,13.9,2.2,17.7,8.9C637.3,16.4,638.1,18.2,638.8,20.4z M634.2,59.6c3.2-2.8,6.1-5.3,9-7.8c0.3-0.2,0.5-0.6,0.6-0.9
			c2.4-7.8,6.3-14.8,9.8-22.1c2.4-5,5-9.9,7.9-14.7c-0.6-0.2-1.1-0.4-1.5-0.4c-2.1-0.3-4-0.3-5.4,1.9c-1.3,2.2-2.8,4.3-4.1,6.5
			c-5.2,9.2-8.8,19.1-12.9,28.8C636.3,53.5,635.2,56.3,634.2,59.6z M651.2,15.6c-5.2,2.3-7.9,6.3-10.5,10.8
			c-5,8.9-9.1,18.1-12.2,27.9c-0.1,0.4-0.3,0.8,0,1.2c0.7,1.3,1.3,2.7,2.1,4.2C636.6,44.6,642.3,29.5,651.2,15.6z M622.1,42.4
			c3.2-7.5,7.4-14,11.9-20.4c0.3-0.4,0.7-0.8,0.3-1.5c-0.8-1.4-1.5-2.9-2.5-4.1c-1.2,0.4-1.6,1.6-2.2,2.4c-2.2,2.9-4.2,5.9-5.9,9.1
			c-1.2,2.3-2.2,4.7-3.6,6.9c-0.5,0.8-0.9,1.9-0.4,2.9C620.3,39.1,621.1,40.6,622.1,42.4z M664.2,15.4c-3,3.7-14.9,28.5-15.1,31.3
			c1.7-1.3,3.9-2.3,4.4-4.1c0.8-2.7,2.7-4.8,3.8-7.3c2.4-5.5,5.7-10.6,8.9-15.8c0.4-0.7,0.6-1.4,0-2.2
			C665.6,16.7,665,15.9,664.2,15.4z M627.1,12.1c-0.6,0.7-1.1,1.3-1.6,1.9c-3.8,4.3-7.2,8.8-9.2,14.2c-0.2,0.6-0.7,1.2-0.3,1.9
			c0.6,1.2,1.2,2.5,2,4c3.7-7,7.3-13.7,12.3-19.5C629.2,13.4,628.2,12.8,627.1,12.1z M635.2,24.7c-4.3,6.7-8.5,13-10.8,20.2
			c-0.2,0.6-0.5,1.2-0.1,1.9c0.8,1.5,1.5,3,2.5,4.9c2.2-8.8,5.9-16.7,10.3-24.4C636,26.8,635.3,26.2,635.2,24.7z M624.5,10.9
			c-2.9-0.8-5.4-0.5-7.8,0.5c-2.8,1.2-4.2,3.4-4.2,6.5c0.1,2.8,0.8,5.4,1.9,8.2C616.9,20.4,620.6,15.8,624.5,10.9z M667.8,21.6
			c-2.8,0.8-2.5,3.4-3.7,5.2c-1.8,2.7-2.9,5.9-4.5,8.7c-0.3,0.5-1,1-0.5,1.9C663.4,32.9,667.2,28.1,667.8,21.6z"/>
		<path class="st2" d="M224.1,13.2c1.9-4.6,4.3-8.7,8.2-11.7c3.3-2.6,6.9-4,11.1-2.4c4.4,1.8,6.6,5.3,7.3,9.8
			c0.9,5.6-0.8,10.8-2.8,15.9c-2.1,5.3-5.1,10.2-7.6,15.3s-4.5,10.3-5.8,15.8c-0.1,0.5-0.2,1-0.4,1.4c-0.8,2.2-2.4,2.7-4,1
			c-1.9-2-3.8-4-5.6-6.1c-5.9-7.1-13.2-12.5-20.8-17.8c-5.9-4.1-9.8-9.8-10.4-17.2c-0.9-9.7,7.4-16.7,16.9-14.3
			C215.9,4.4,218.8,6.5,224.1,13.2z M226.1,47.6c-0.1-0.2-0.1-0.3-0.1-0.5c-5.3-10.9-10.4-21.8-16.3-32.4c-1.3-2.3-2.4-4.7-1.7-7.4
			c-3.6-0.6-4.7,0.5-3.8,3.7c0.2,0.6,0.4,1.2,0.6,1.7c2.1,5.5,4.6,10.8,7.2,16c1.6,3.2,2.8,6.7,5,9.4
			C219.6,41.5,223,44.5,226.1,47.6z M231.6,51.8c0.8-2.9,1.3-5.2-0.1-7.9c-4.6-8.7-9.2-17.4-13.3-26.3c-0.7-1.5-1.5-2.9-1.6-4.5
			c-0.1-1.5-0.5-2.6-1.8-3.2c-1.2-0.6-2.2-1.6-3.6-1.5C211.1,9.3,228.7,46.7,231.6,51.8z M220.9,15.5c4.4,9.2,8.8,18.2,13.2,27.4
			c1.1-2.4,2-4.6,2.9-6.5c-4.8-6.1-6.7-13.5-10.1-20.1C225,17.3,223.9,17.2,220.9,15.5z M200.3,9.8c-1.6,1.2-2.5,3.1-2.6,5.1
			c-0.2,3.4,1.1,6.3,2.8,9.2c2.4,4.1,6,7,10.1,9.3C206.9,25.6,202.4,18.2,200.3,9.8z M238.2,34.2c0.9-1.7,1.7-3.2,2.4-4.7
			c0.2-0.4,0.5-0.8,0-1.3c-2.7-3-4-6.9-5.7-10.4c-1.5-3.2-2.8-6.4-4.4-10.1c-0.6,2-2.6,2.8-1.6,5.1C232.4,19.7,235,26.9,238.2,34.2z
			 M238.2,2.6c2.4,5.6,4.9,11,6.9,16.9c1.1-3,1.7-5.7,1.6-8.6c-0.1-2.3-0.6-4.6-2.3-6.4C242.6,2.3,240.4,1.7,238.2,2.6z M242.1,26.2
			c1.6-2.2,2.2-4.4,0.3-6.8c-0.9-1.1-1.4-2.6-2-3.9c-1.8-3.9-3.5-7.7-5.3-11.6c-0.8,0.5-1.5,0.9-1.8,1.4
			C236.3,12.4,239.2,19.3,242.1,26.2z"/>
		<path class="st2" d="M349.4,347.9c2.7-11.1,7.9-20.3,15-28.4c3.4-3.9,7.6-6.8,12.5-8.5c10.1-3.5,15.7,2.5,17.3,10.4
			c1.6,8.3-0.1,16.3-3.1,24.1c-4.1,10.5-9.9,20.1-15.6,29.7c-8.7,14.5-17.9,28.7-28.2,42.1c-0.5,0.7-1,1.5-2,1.2
			c-1-0.2-1.1-1-1.1-1.9c0-0.2-0.1-0.5-0.2-0.7c-2.8-4-4.6-8.6-6.9-12.9c-4.4-8.3-9.4-16.3-14.9-23.9c-3-4.1-5.6-8.3-8.3-12.6
			c-2.9-4.7-5.5-9.6-7.4-14.8c-1.8-4.8-2.8-9.8-2-14.9c1.2-7.7,6.2-12,13.3-14.1c9.1-2.6,16.3,0.8,22.3,7.5
			C344.5,335.3,347.4,341.1,349.4,347.9z M346.2,413.1c2.2-3.3,4.1-6.4,6.2-9.4c10.9-15.5,20.6-31.7,29.4-48.5
			c4-7.5,7.4-15.3,8.2-24c0.4-4,0.4-8.1-0.9-12c-1.5-4.4-4.4-6.1-8.9-5.4c-5.6,1-9.9,4.2-13.4,8.4c-8.1,9.8-13.9,20.8-15.7,33.6
			c-0.1,1-0.2,2.2-1,3.1c-1,1-2.1,0.8-2.5-0.5c-0.3-1-0.5-2.1-0.7-3.2c-1.9-9.4-6.1-17.5-12.9-24.3c-4.3-4.2-9.4-5.9-15.3-4.2
			c-5.6,1.5-10.5,5.6-10.4,12.8c0,3.4,0.5,6.7,1.6,10c1.7,4.9,3.8,9.4,6.5,13.8c3.5,5.7,7.2,11.2,11.1,16.5
			C334.9,390.2,340.9,401.2,346.2,413.1z"/>
		<path class="st2" d="M515.3,29.6c1.7-2.7,3-5.2,4.9-7.4c0.9-1,1.9-2,3.1-2.6c1.9-0.9,3.8-1.7,5.8-0.4c2,1.3,2.2,3.6,2.1,5.8
			c-0.3,3.8-1.8,7.3-3.1,10.9c-2.7,7.3-6.4,14.1-10.4,20.8c-0.8,1.3-1.7,2.6-2.8,3.6c-2,1.7-3.9,1.6-5.7-0.2
			c-1.1-1.1-1.9-2.4-2.7-3.7c-4.6-8-9.2-16-12.1-24.9c-1.4-4.2-1.6-8.4,0.9-12.4c2.2-3.4,5-4.4,8.8-3s6.5,4.1,8.5,7.5
			C513.7,25.4,514.5,27.4,515.3,29.6z"/>
		<path class="st2" d="M361,163.5c0-7.5,2-13.9,5.5-19.8c1.3-2.2,2.9-4.3,4.9-6c7-5.9,16.9-3.7,20.6,4.8c2.5,5.8,2.7,11.9,2,18
			c-1.5,13.7-7.1,26.2-12.2,38.9c-2.1,5.4-3.8,10.9-5.7,16.4c-1,2.9-1.9,5.8-3,8.6c-1.4,3.8-4,4.3-6.6,1.2
			c-3.5-4.2-6.7-8.6-10.1-12.8c-6.9-8.5-14-16.8-20.2-25.8c-3-4.3-5.8-8.8-7-14.1c-1.5-6.6-0.5-12.7,4.5-17.6c3.3-3.2,7.5-4,12-3.1
			c6.2,1.1,10.9,4.4,14.2,9.8C360.2,162.4,360.5,162.7,361,163.5z M369.7,223.9c0.3-0.8,0.5-1.3,0.6-1.9c3.8-11.4,7.2-23,11.8-34.1
			c3.3-8,6.1-16.1,7.5-24.6c0.9-5.6,1.3-11.2-0.2-16.8c-1-3.9-3.2-6.8-7.2-7.9c-3.8-1-6.8,0.4-9.4,3.1c-3.4,3.4-5.2,7.7-6.6,12.1
			c-1.4,4.4-1.9,9-2.2,13.5c-0.1,1-0.2,2.1-1.3,2.4c-1.1,0.3-2.2-0.1-2.9-1.1c-0.5-0.7-0.9-1.5-1.3-2.2c-3-4.8-7-8.3-12.6-9.8
			c-6.2-1.7-11.3,1.2-12.9,7.5c-0.8,3.2-0.5,6.4,0.6,9.6c1.7,4.6,4.4,8.7,7.3,12.7c6.5,8.9,13.8,17.3,20.5,26
			C364.2,216.1,366.8,219.9,369.7,223.9z"/>
		<path class="st2" d="M451.9,28.1c2.5-3.6,5.2-7,8.6-9.8c4.1-3.4,8.7-5.2,14.1-4.3c4.6,0.8,9.8,5.2,9.9,12.3
			c0.1,5.2-1.2,9.9-3.9,14.3c-4.5,7.3-9.7,14.1-14.6,21.2c-3.2,4.6-6.4,9.3-9.9,13.7c-3.2,4-5.3,3.9-8.3-0.2
			c-4.5-6-9.2-11.8-14.2-17.3c-3.7-4.2-7.5-8.3-10.4-13.1c-4.2-6.8-5.8-14-3.8-21.8c2.2-8.6,10.1-12.6,18.3-9.3
			c6.3,2.5,11.1,6.7,13.6,13.2C451.3,27.2,451.3,27.7,451.9,28.1z M452,74.2c0.6-0.8,1.1-1.4,1.6-2c4.9-7.2,9.9-14.3,14.8-21.5
			c3.3-4.8,7-9.3,9.7-14.5c1.7-3.3,2.7-6.7,2.5-10.4c-0.3-5-4.9-8.8-9.9-8c-4.2,0.7-7.3,3-10,6c-2.9,3.2-5.4,6.7-7.7,10.3
			c-0.5,0.8-1.3,1.6-2.4,1.3c-1.2-0.3-1.4-1.3-1.4-2.3c0-0.3,0-0.6-0.1-0.9c-2.5-6.8-6.8-12-14-14.3c-5.3-1.7-9.7,0.5-11.4,5.9
			c-1.2,3.6-1.1,7.4-0.1,11c1.5,5.7,4.9,10.2,8.6,14.6c5.2,6.3,10.8,12.2,15.5,18.9C449.1,70.2,450.5,72.1,452,74.2z"/>
		<path class="st2" d="M726.8,232.6c2.7-3.4,5.6-6,9.2-7.7c2.8-1.3,5.6-2.1,8.7-1.3c4,1,6.2,4.5,5.3,8.5c-1.3,6.1-4.4,11.4-8.3,16.2
			c-4.6,5.7-9.4,11.2-14.8,16.1c-3,2.8-5.6,2.6-7.8-0.8c-6-9.7-11.2-19.6-14-30.8c-0.5-2-0.8-4.1-0.5-6.2c0.9-6.2,7.1-9.5,13.6-7.2
			c4.8,1.8,7.1,5.5,8,10.4C726.5,230.6,726.6,231.4,726.8,232.6z M745.1,228.7c-7.8,10.2-16.4,19.7-22.6,31c0.2,0.4,0.4,1.1,1.1,1.5
			c2.1-1.7,3.9-3.6,5.7-5.7c3.9-4.6,8.1-8.9,11.5-13.8c2.1-3,3.8-6.3,4.8-9.8C746,230.6,746.1,229.4,745.1,228.7z M721,256.3
			c5.9-10.4,14.2-18.9,21.5-28.3c-0.6,0-0.9,0-1.2,0c-0.4,0.1-0.7,0.1-1.1,0.2c-4.2,1.2-7.5,3.8-9.9,7.2c-3.3,4.8-6.9,9.4-9.8,14.5
			c-1.3,2.3-1.5,4,0,6C720.6,256,720.7,256,721,256.3z M719.9,226c-3,3.4-5.5,6.8-8.1,10.3c-0.2,0.3-0.3,0.5-0.2,0.8
			c0.7,1.6,1.2,3.3,2.2,4.8c2.2-2.9,4-6,6.4-8.5c1.8-1.9,1.6-3.5,0.7-5.5C720.6,227.4,720.3,226.9,719.9,226z M710.4,233.7
			c2.6-3.3,4.8-6.6,8.3-8.7c-1.4-1.5-3-1.9-4.8-1.9c-3.2-0.1-5,1.8-4.8,4.8C709.2,229.7,709.6,231.6,710.4,233.7z M722.4,235.3
			c-2.6,3.2-4.7,6.5-6.8,9.7c-0.2,0.3-0.2,0.5,0,0.8c0.7,1.2,1,2.6,2,3.8c1.3-2.2,2.4-4.4,3.9-6.4
			C723.2,240.9,723,238.3,722.4,235.3z"/>
		<path class="st2" d="M102.5,205.9c1.1-3.1,2.4-6.1,4.4-8.6c1.4-1.8,3.1-3.1,5.4-3.6c3.3-0.8,5.9,0.9,6.3,4.3
			c0.5,3.8-0.5,7.4-2.1,10.7c-4,8.3-7.9,16.6-11.3,25.1c-1.2,3.1-3.7,3.4-5.4,0.9c-5.8-8-10.9-16.4-15.3-25.3
			c-1.4-2.8-1.7-5.7-0.9-8.8c1.3-4.4,4.7-6.2,9.1-4.7c3.8,1.3,6.4,4,8.4,7.4C101.5,204.1,101.9,204.9,102.5,205.9z"/>
		<path class="st2" d="M699.3,32.4c1.6-2.7,3-5.3,4.8-7.6c3.4-4.5,7.2-8.5,12-11.5c2.5-1.6,5.3-2,8.2-1.9c1.7,0.1,3.4,2.3,3.5,4.4
			c0.2,3.5-1.3,6.7-2.6,9.8c-3.6,8.8-8.7,16.9-13.2,25.2c-4.1,7.7-8.2,15.5-12.3,23.2c-0.7,1.2-1.3,2.5-2.3,3.6
			c-1.7,1.9-3.6,1.8-4.9-0.5c-1.9-3.5-3.1-7.3-4.2-11.1c-3-9.9-5.9-19.8-7.6-30c-1-6.1-1.9-12.2-0.5-18.4c0.2-0.9,0.5-1.8,0.8-2.6
			c1.7-3.7,4.8-4.4,8-1.9c4.8,3.7,7.1,9,8.8,14.5C698.4,29,698.8,30.5,699.3,32.4z M695.3,74.3c0.8-0.7,1.1-1.6,1.5-2.4
			c5-9.5,9.7-19.2,15-28.6c4-7.2,8.2-14.3,10.9-22.2c0.5-1.3,0.9-2.6,1-4.1c0.2-1.5-0.7-2-2-1.7c-1.4,0.3-2.7,0.8-3.9,1.6
			c-5.2,3.4-9.2,7.9-12.5,13c-2.1,3.3-3.9,6.8-6.3,9.9c-0.4,0.5-0.7,0.9-1.3,0.8c-0.6-0.1-0.9-0.6-1-1.2c-0.1-0.5-0.3-1.1-0.3-1.6
			c0-2.4-0.5-4.6-1.2-6.8c-1.6-5.1-3.2-10.3-7.2-14.2c-0.8-0.8-1.6-2.3-2.9-1.8c-1.3,0.5-1.4,2.2-1.7,3.5c-0.9,5.1,0.1,10.1,1,15.1
			c1.8,10,4.7,19.7,7.3,29.5C692.9,66.8,693.9,70.5,695.3,74.3z"/>
		<path class="st2" d="M170.3,51.1c2-2.7,3.8-5.3,5.6-7.7c3.4-4.4,7.8-7.2,13.4-8c3.4-0.5,8.2,2.2,9.3,5.2c1.2,3.6,0.6,7-1.2,10.4
			c-3.3,6.2-8.5,10.8-13.1,15.9c-3.1,3.4-6,7.1-9.1,10.6c-3.6,4.1-6.9,8.3-9.7,12.9c-0.3,0.5-0.6,0.9-1,1.3
			c-1.6,1.8-3.5,1.6-4.5-0.6c-1.9-4-3.9-8.1-5.6-12.2c-2.5-5.9-6.1-11.3-8.4-17.3c-1.6-4.3-3.1-8.7-2.8-13.3
			c0.2-3.8,1.1-7.3,3.5-10.4c4-5.2,9.9-6.6,15-1.7C165.9,40.2,169.2,44.9,170.3,51.1z M162.5,88.2c0.7-1.1,1.4-2.2,2.1-3.2
			c7.5-10.6,16.3-20,25-29.5c2.4-2.6,4.4-5.5,5.7-8.9c1.9-4.6-1.9-7.8-5.8-7.7c-2.9,0.1-5.3,1.6-7.5,3.1c-3.8,2.5-6.3,6.3-8.7,10
			c-1,1.5-1.7,3.2-2.5,4.9c-0.3,0.5-0.6,1.1-1.3,1.1c-0.8,0-1.1-0.7-1.3-1.3c-0.3-1.2-0.7-2.3-1-3.5c-1.6-5.9-4.7-10.9-9.6-14.6
			c-1.7-1.3-3.4-1.2-5.1-0.2c-2.4,1.4-3.4,3.6-4.1,6.1c-1.5,5.1-0.1,9.8,1.6,14.5c2.3,6.3,5.9,12.1,8.2,18.4
			C159.6,80.9,160.8,84.5,162.5,88.2z"/>
		<path class="st2" d="M416.6,350.7c0.4-3.8,1.1-7.1,2.3-10.3c0.8-2.2,2.1-4,4.1-5.3c3.6-2.4,7.7-1.2,10,2.8c1.2,2.2,1.7,4.6,1.8,7
			c0.4,7.5-0.9,14.9-2,22.3c-0.9,5.8-2,11.5-3.9,17.1c-1.9,5.9-3.9,6.5-8.5,2.5c-7.7-6.7-14.9-13.9-21.2-21.9
			c-2-2.5-3.6-5.2-4.2-8.5c-1.4-6.5,2.5-11.4,9.2-11.7c4.1-0.2,7.6,1.4,10.7,4.1C415.2,349.5,415.8,350,416.6,350.7z M424.2,384.7
			c0.3-0.7,0.5-1.2,0.6-1.6c3.3-10.9,4.6-22,5.5-33.3c0.2-2.4,0.2-4.9-0.5-7.3c-0.5-1.6-1-3.5-2.9-3.7s-3,1.4-3.8,3
			c-1.2,2.6-2,5.4-2.4,8.2c-0.4,2.6-0.5,5.2-0.4,7.9c0.1,1.3-0.7,2.2-2,2.2c-1.2,0.1-1.7-0.8-1.8-1.9c-0.1-0.8-0.2-1.6-0.8-2.2
			c-1.6-1.7-3.3-3.4-5.4-4.7c-2.2-1.4-4.6-1.9-7.2-1.6c-3.3,0.4-4.7,2.3-4.1,5.6c0.5,2.4,1.6,4.5,3.1,6.4
			C408.9,369.9,416.6,377,424.2,384.7z"/>
		<path class="st2" d="M372.9,272.7c1.4-1.5,2.9-2.7,4.8-3.4c5.2-1.8,8.4,0.2,9,5.7c0.5,4.2-1.6,7.7-3.8,11
			c-2.2,3.4-5.2,6.1-8.2,8.8c-0.3,0.3-0.7,0.5-1,0.8c-3.3,2.5-5.6,2.4-7.9-1.1c-4.3-6.6-8.1-13.5-10.5-21.1
			c-0.9-2.9-0.3-5.6,2.1-7.7c2.5-2.2,5.4-2,8.3-0.7c3,1.3,5,3.6,6.3,6.6c0.1,0.2,0.2,0.4,0.3,0.6
			C372.5,272.4,372.7,272.5,372.9,272.7z"/>
		<path class="st2" d="M633.6,203.9c1.2-4.6,3.2-8.5,6-12c1.6-1.9,3.4-3.3,5.9-3.7c4.5-0.7,8,2.2,8.1,6.7c0.1,4.3-1,8.5-2.3,12.6
			c-2.7,8.3-5.5,16.5-8.4,24.8c-0.4,1.2-0.9,2.4-1.6,3.5c-1.3,2.2-3.4,2.5-5.4,0.8c-1.7-1.5-3.1-3.3-4.5-5.1c-4.7-6-9.4-12-14-18.1
			c-1.8-2.4-3.4-4.9-4.2-7.9c-0.8-3.3,0.1-6.1,2.5-8.3c2.3-2.1,5-2.3,7.9-1.2c3.4,1.3,6.2,3.4,8.5,6.3
			C632.7,202.7,633,203.2,633.6,203.9z M638.4,232.7c0.2-0.4,0.4-0.6,0.5-0.8c3.2-9.5,6.7-18.9,9.3-28.5c0.7-2.7,1.4-5.5,1.2-8.3
			c-0.1-1.7-1-2.5-2.6-2.4c-1.2,0-2.1,0.6-2.9,1.4c-2.3,2.4-4.2,5-5.3,8.1c-0.9,2.3-1.5,4.8-2.3,7.1c-0.3,0.9-0.7,1.7-1.8,1.8
			s-1.5-0.7-2-1.5c-2-3.3-4.3-6.5-7.8-8.3c-1.9-1-4-2.4-6.1-0.5c-1.5,1.4-1.3,3.4,0.7,6.3c1.7,2.4,3.5,4.7,5.3,7
			C629.4,220.1,633.9,226.3,638.4,232.7z"/>
		<path class="st2" d="M198.1,312.2c1.8-2.7,3.9-4.5,6.2-6.1c5.4-3.7,10.1-1.5,11.1,5c0.7,4.5-0.9,8.5-3.1,12.2
			c-4.4,7.3-9.7,13.9-15.5,20.1c-2.4,2.6-5,2.4-6.6-0.6c-4.9-9.3-9.2-18.8-12.5-28.7c-1.2-3.4-1.2-7,0.5-10.4c2-4,5.8-5.4,9.9-3.6
			c4.6,2,7.3,5.6,9.2,10.1C197.6,310.7,197.8,311.3,198.1,312.2z M193.9,339.4c5.8-6.6,11.5-13,15.7-20.6c0.8-1.5,1.3-3,1.6-4.7
			c0.4-1.9-0.4-5.1-1.6-5.6c-1.9-0.8-3.1,0.7-4.4,1.6c-3,1.9-4.6,5-6.6,7.8c-0.5,0.8-1.1,1.3-2.1,1.2c-1-0.1-1.5-0.8-1.7-1.7
			c-0.5-1.6-0.9-3.2-1.5-4.7c-1.3-3.6-3.3-6.7-6.8-8.6c-2.4-1.3-4.3-0.5-5,2.2c-0.7,2.2-0.1,4.4,0.6,6.5c1.5,4.9,4.1,9.2,6.2,13.9
			C190.1,330.9,192,335,193.9,339.4z"/>
		<path class="st2" d="M549.5,309.5c1.9-2.8,3.8-5.3,6.5-7c2.2-1.4,4.7-1.6,7.1-1c3,0.6,4.9,3.4,5.1,6.8c0.2,3.6-0.8,7.1-2.3,10.3
			c-3.8,8.1-8.8,15.5-14.2,22.7c-1.6,2.1-3.5,2.1-5.2,0.1c-1.2-1.4-2-3.1-3-4.5c-1.8-2.5-3.4-5-5-7.6c-2.9-4.6-6.1-9-8.2-14
			c-2-4.8-2.9-9.6,0.1-14.4c2.1-3.3,5.3-4.5,9-3.3c4.7,1.5,7.4,5.1,9.2,9.4C548.9,307.7,549.2,308.6,549.5,309.5z M549.2,339
			c3.6-5.4,6.7-10.7,9.9-16c2.1-3.4,3.8-6.8,5-10.6c0.5-1.7,0.6-3.3,0.2-5.1c-0.3-1.3-1.1-1.9-2.3-2c-2.2-0.4-4.1,0.4-5.7,1.9
			c-3.2,2.9-4.7,6.8-6,10.8c-0.5,1.6-1.2,3-2.6,4.1c-1.1-1.1-1.2-2.3-1.1-3.6c0.1-5.6-1.5-10.6-5.3-14.8c-1.5-1.7-3.6-3.2-6-2.1
			c-2.3,1-2.8,3.4-2.8,5.8c0,0.1,0,0.1,0,0.2c0.1,2.2,0.8,4.2,1.7,6.1c3.3,6.8,7.6,13,11.4,19.5C546.6,335,547.6,337.1,549.2,339z"
			/>
		<path class="st2" d="M-2.3,83.8c0.5,0.3,1,0.5,1.7,0.9c-0.1-3.1,0-6,0.7-8.9C1.6,70.3,4,65.3,8.5,61.5c4.9-4.2,10.8-3.7,14.9,1.2
			c3.5,4.2,4.9,9.1,4.9,14.5c0,5.2-1.3,10.3-2,15.5c-1.2,8.6-1.7,17.2-1.9,25.9c-0.1,5.3-1.4,6.3-6.5,4.7c-6.8-2-13.1-5.2-19.4-8.2
			c-0.6-0.3-0.9-0.7-0.9-1.4c0-0.9,0-1.8,0-3c7.6,3.2,14.7,7.3,22.7,9.3c0.4-0.8,0.2-1.7,0.2-2.4c-0.2-11.9,1-23.7,3.2-35.5
			c0.9-4.7,0.7-9.4-1.3-13.9c-0.5-1-1-2-1.7-2.8c-2.9-3.7-6.9-4.1-10.2-0.8c-4.8,4.7-6.9,10.7-7,17.4c0,1.9,0.2,3.8,0.5,5.7
			c0.2,1.2,0,2.3-1.2,2.8c-1.1,0.5-2,0-2.8-0.7C-2.7,87.4-2.7,87.5-2.3,83.8z"/>
		<path class="st2" d="M-2.4,93.4c3,0.5,5.4,1.9,7.9,3.1c-0.3-6.8,1-13.2,2.4-19.6c0.3-1.4,0.9-2.8,1.7-4c1.8-2.7,3.7-2.6,6.5-1.7
			c1.3,0.4,1.8,1.7,1.8,3c0,2.1,0,4.3-0.1,6.4c-0.4,8.9-0.7,17.9-1.1,26.8c0,0.7-0.1,1.3-0.3,2c-0.5,1.7-1.9,2.5-3.6,1.7
			c-5.1-2.6-9.8-5.8-14.7-8.7c-0.5-0.3-0.6-0.7-0.6-1.2C-2.4,98.7-2.4,96.2-2.4,93.4z"/>
		<path class="st2" d="M26.2,228.7c1-2.3,1.5-4.7,2.9-6.8c1.2-1.9,3-2.9,5.3-2.8c2.2,0.1,3.7,1.4,4.7,3.4c0.6,1.3,0.9,2.6,1,4.1
			c0.2,3.1-0.3,6.1-1.3,9.1c-1.7,5.2-3.5,10.4-5.4,15.6c-1.3,3.5-3.2,4.1-6.2,2c-6.2-4.4-11.9-9.5-18.2-13.8
			c-1.7-1.1-3.1-2.6-4.2-4.3s-2-3.5-2.5-5.5c-1-4.6,1.8-8.4,6.5-8.7c6.9-0.4,12.6,1.8,17,7.2C25.9,228.4,26,228.5,26.2,228.7z
			 M29.6,249.8c1.9-5.6,4.3-10.9,5.8-16.5c0.7-2.7,1.1-5.4,0.3-8.1c-0.3-0.9-0.6-1.8-1.8-1.9c-1.1-0.1-1.5,0.7-1.9,1.5
			c-1,2.1-1.7,4.3-2.4,6.5c-0.4,1.4-0.8,2.8-1.3,4.2c-0.2,0.7-0.8,1.1-1.6,1.1c-0.9,0-1.2-0.5-1.4-1.2c-0.5-1.8-1.6-3.2-2.8-4.5
			c-3.7-4.4-8.4-6.7-14.3-5.8c-2,0.3-2.8,1.6-2.4,3.6c0.6,2.7,2.2,4.7,4.2,6.5c3.3,2.8,7.1,4.8,10.5,7.5
			C23.5,244.9,26.2,247.5,29.6,249.8z"/>
		<path class="st2" d="M15,318.3c-0.4,1.5-0.9,2.8-2.7,2.7c-1.4-0.1-3-1.7-3.5-3.4c-0.4-1.4,0.2-2.5,1.3-3.1
			c1.4-0.8,2.5,0.1,3.5,1.3c0.3-1.7,0.9-3.3,2.9-3.3c1.9,0.1,2.9,1.5,3.4,3.2c0.4,1.4,0.6,2.9-0.9,3.8S16.2,319.5,15,318.3z"/>
		<path class="st2" d="M442.5,380.3c-2.4,0-4.3-1.8-4.4-4.1c-0.1-2.1,1.8-4.1,3.9-4.1c2.1-0.1,4.6,2.1,4.6,4.1
			C446.7,378.4,444.8,380.3,442.5,380.3z"/>
		<path class="st2" d="M303,477.8c0,1.7-2.3,3.7-4.3,3.8c-2,0.1-3.8-1.8-3.9-3.9c0-2.1,1.9-3.9,4.1-3.9
			C300.8,473.8,303,475.9,303,477.8z"/>
		<path class="st2" d="M155.2,18.5c0-2.2,1.6-4,3.6-4.1s3.8,2,3.8,4.4c0,2.1-1.6,3.9-3.6,3.9C157.3,22.7,155.2,20.5,155.2,18.5z"/>
		<path class="st2" d="M298.7,373.6c-2,0-3.6-1.6-3.6-3.6c0-2.1,2.3-4.3,4.3-4.2c1.8,0.1,3.5,2.1,3.4,4.1
			C302.8,372.1,301,373.7,298.7,373.6z"/>
		<path class="st2" d="M690.6,232.8c2,0,3.7,1.7,3.6,3.7c0,2.1-2.3,4.2-4.5,4.1c-1.9-0.1-3.3-1.6-3.3-3.5
			C686.4,234.8,688.4,232.7,690.6,232.8z"/>
		<path class="st2" d="M588.3,457.2c-2,0-4-2.1-4.1-4.2c-0.1-2,1.6-3.8,3.5-3.7c2,0,4,2.2,4,4.3
			C591.8,455.5,590.2,457.2,588.3,457.2z"/>
		<path class="st2" d="M480.5,74.3c-1.9,0.1-3.6-1.7-3.7-4c-0.1-2,1.6-3.9,3.5-4c1.7,0,4,2.7,4.1,4.7
			C484.5,72.3,482.1,74.2,480.5,74.3z"/>
		<path class="st2" d="M286.6,483.3c0,2.1-1.8,4.1-3.7,4.1c-1.9,0-3.6-2-3.6-3.9c0.1-2.1,1.8-3.8,3.8-3.8
			C285.2,479.7,286.6,481.2,286.6,483.3z"/>
		<path class="st2" d="M296.1,207c2.1,0,3.6,1.5,3.6,3.7c0,2.1-1.2,3.6-2.8,3.6c-1.7,0-4.4-2.3-4.4-3.8
			C292.4,208.7,294.1,207,296.1,207z"/>
		<path class="st2" d="M440.8,361.2c0.1-2.9,1.3-4.4,3.3-4.2c1.4,0.1,3.3,2.7,3.2,4.4c0,2-2.2,3.6-4.5,3.5
			C441.9,364.9,440.8,362.9,440.8,361.2z"/>
		<path class="st2" d="M592.3,445.1c-2.1,0-3.8-1.6-3.8-3.6c0-1.9,1.6-3.5,3.5-3.5s3.8,1.9,3.9,3.7
			C595.9,443.6,594.3,445.1,592.3,445.1z"/>
		<path class="st2" d="M126.5,421.4c0,1.8-1.3,3.4-2.9,3.5c-1.8,0-3.7-1.8-3.7-3.6c0-1.9,1.5-3.5,3.3-3.5
			C125.1,417.8,126.4,419.3,126.5,421.4z"/>
		<path class="st2" d="M249.7,59.5c2.3,0,3.8,1.2,3.9,3.1c0,1.7-1.4,3.2-2.9,3.2c-2.5,0-4.3-1.7-4.2-3.8
			C246.5,60.4,247.6,59.5,249.7,59.5z"/>
		<path class="st2" d="M16.4,298.2c0,1.8-1,2.9-2.6,2.9c-1.7,0-3.2-2.1-3.3-4.4c0-1.8,1-3,2.5-3C14.8,293.6,16.3,295.7,16.4,298.2z"
			/>
		<path class="st2" d="M137.7,429.8c-0.1,2-1.5,3.6-3.3,3.5c-1.4-0.1-2.6-1.7-2.6-3.5c0-1.7,1.4-3.2,3-3.1
			C136.6,426.7,137.7,428,137.7,429.8z"/>
		<path class="st2" d="M737.2,47c0,2.1-1,3.4-2.5,3.4c-1.4,0-2.8-1.5-2.8-3.1c0-1.8,1.4-3.3,3-3.3C736.3,44.1,737.2,45.3,737.2,47z"
			/>
		<path class="st2" d="M658.2,65.2c0,1.8-1.2,3.2-2.6,3.2c-1.4,0-3-1.8-2.9-3.3s1.5-3,3-3C657.2,62.2,658.3,63.5,658.2,65.2z"/>
		<path class="st2" d="M312,206.8c0,1.7-1,2.6-2.6,2.6c-1.7-0.1-3-1.6-2.9-3.4c0.1-1.5,1.2-2.7,2.7-2.7
			C310.9,203.3,312.1,204.7,312,206.8z"/>
		<path class="st2" d="M489.5,61.9c1.5,0,2.8,1.2,2.8,2.8c0.1,1.7-1.2,3.1-2.9,3.1c-1.6,0-2.7-1.2-2.7-2.8
			C486.7,63.3,487.9,61.9,489.5,61.9z"/>
		<path class="st2" d="M736,37.7c0,1.8-0.8,2.8-2.4,2.8c-1.9,0-2.8-0.8-2.8-2.5c0-1.9,1-3.3,2.6-3.4C734.8,34.6,736,35.9,736,37.7z"
			/>
		<path class="st2" d="M170.3,18.5c1.3,0,2.3,1.2,2.3,2.6c0,2.1-1.2,3.6-2.7,3.5c-1.4-0.1-2.4-1.5-2.3-3.2
			C167.6,19.7,168.8,18.4,170.3,18.5z"/>
		<path class="st2" d="M665.4,71.3c-0.2,1.1-0.3,2.4-1.9,2.5c-1.3,0.1-1.9-1-2-2.1c-0.1-1.2,1.1-2.5,2.2-2.4
			C664.7,69.2,665.4,70,665.4,71.3z"/>
		<path class="st2" d="M695.7,132.3c-0.1-6.2-1.2-12.1-3.2-17.9c-1.2-3.4-2.6-6.7-5.1-9.4c-0.7-0.8-1.6-1.5-2.7-1.9
			c-2-0.8-2.3-3-0.5-4.3c2.6-1.9,4.6-1.6,7.9,0.8c3.4,2.5,4.9,6.2,5.8,10.2c1.6,6.9,1.4,14,1.1,21c-0.1,1.7-0.3,3.4-0.4,5.1
			c-0.1,1.1-0.9,1.8-1.7,1.9c-1,0-1.2-1-1.2-1.9C695.7,134.6,695.7,133.5,695.7,132.3z"/>
		<path class="st2" d="M689.7,438c3.5,0.2,7,0,10.4,0.4c9.6,1.2,18.9,3.2,27,8.9c1.4,1,2.9,2,3.9,3.5c2.7,3.9,1.6,7.4-2.9,8.9
			c-3.6,1.2-7.4,1.8-11.1,2.6c-7.3,1.5-14.6,1.5-21.9,1.4c-6.8-0.1-13.5-0.2-20.2-0.2c-3.9,0-7.7,0.5-11.5,1c-2.5,0.4-2.9,0-2.6-2.5
			c0.2-1.4,0-2.8,0-4.2c0.5-11.6,1-23.2,1.5-34.8c0.3-6.7,0.7-13.3,2.3-19.9c0.9-3.7,2.3-7.1,5.1-9.8c4.1-4,9.8-4,13.7,0.2
			s5.5,9.5,6.2,15.1c0.3,2.6,0.8,5.3,1,8C690.8,423.8,690.7,430.9,689.7,438z"/>
		<path class="st2" d="M222.6,418.7c2.3-1,4.5-1.9,6.7-2.8c3.9-1.6,7.9-3.1,12.1-3.3c4.5-0.2,8,1.8,9.9,5.9c1.8,3.8,0.1,7-1.9,10.1
			c-2.3,3.5-5.6,5.9-9.2,8c-7.3,4.4-14,9.7-21,14.5c-1.6,1.1-3.2,2.1-4.9,2.8c-2.9,1.2-4.7,0.5-5.8-2.4c-1.6-4.2-2.5-8.7-3.3-13.1
			c-1.5-7.9-2.9-15.9-3.6-24c-0.2-3-0.1-6,0.9-8.9c1.1-3,2.5-5.7,5.9-6.4c3.9-0.7,7.2,0.7,9.7,3.8c3,3.8,4,8.2,4.1,12.9
			C222.4,416.7,222.1,417.6,222.6,418.7z"/>
		<path class="st2" d="M339.4,252.6c0,6.4-2.6,12.3-5.7,18c-7.3,13.6-16.7,25.9-27.2,37.1c-5.9,6.3-10.4,13.5-15.1,20.6
			c-1.1,1.7-2.3,3.4-3.4,5c-0.3,0.5-0.7,1.1-1.5,0.8c-0.9-0.5-0.3-1.2-0.1-1.7c3.5-7.2,8.1-13.7,12.6-20.3c7.5-10.8,16-20.8,22.8-32
			c4.2-6.9,8.2-13.8,10.6-21.5c2.3-7.5,1.2-14.4-4.7-20.1c-2.6-2.5-5.9-3-9.3-3.4c-1.1-0.1-2.6,0.3-2.6-1.5c0-1.7,1.4-2,2.7-2.2
			c8.4-1.1,14.7,2.2,18.6,9.9C338.7,244.7,339.5,248.4,339.4,252.6z"/>
		<path class="st2" d="M518.1,429.3c0.8-4.2,1.4-8,2.2-11.8c1.3-6.1,2.1-12.4,4.4-18.3c1.8-4.5,4.5-8.3,8.2-11.4
			c4.9-4.2,10.6-4.7,16.4-2.4c5.3,2.1,8,6.5,9,12.1c1.4,8.1-0.1,16-1.8,23.8c-3.4,15.1-7.7,30-11.8,45c-1,3.7-2.2,7.4-3.4,11
			c-0.5,1.4-1.1,2.7-1.8,4c-0.8,1.4-2.1,1.4-3.3,0.7c-1.7-0.9-3.3-1.9-4.8-3c-12.7-9.1-26.2-16.8-39.4-25.1
			c-6.3-4-12.7-7.6-18.8-11.9c-6.1-4.3-10.6-9.8-13.3-16.7c-2.2-5.7-0.6-10.7,4.6-14c6.3-4.1,13-4.1,19.9-2
			c6.1,1.9,11.7,4.9,17.1,8.3C507,421,512.8,424.4,518.1,429.3z"/>
		<path class="st2" d="M165.8,149.6c2.4-3.6,4.9-6.5,8.7-8c0.8-0.3,0.6-0.9,0.6-1.5c-0.5-6.5,3.6-12.6,9.9-14.6
			c0.8-0.3,1-0.7,1.1-1.4c0.2-2.7,0.9-5.3,2-7.8c2.8-6.4,7.4-9.9,14.3-10.7c1.2-4.4,3.3-8.4,6.9-11.3c4.6-3.7,10.2-4.9,14.9,0.4
			c0.5,0.6,1,0.5,1.6,0.4c6.8-0.6,13.3,4.8,13.9,11.6c0.3,3.1-1,5.8-2.6,8.3c-0.5,0.8-0.6,1.5-0.2,2.3c1.9,3.8,1.9,7.7,0.3,11.5
			c-1.7,4.2-3.8,8.1-7.4,11c-0.7,0.5-0.5,1.2-0.6,1.8c-0.4,3.4-0.7,6.7-2.5,9.7c-2.3,3.8-5.8,5.9-9.6,7.8c-1.2,0.6-1.7,1.4-1.8,2.7
			c-0.1,7-3.9,11.5-9.7,14.6c-1.3,0.7-1.5,1.6-1.8,2.7c-0.6,2.8-1.1,5.5-2.1,8.1c-1.9,4.6-5.1,8-9.8,9.6c-2.6,0.9-3.1,3-4.1,4.9
			c-2.1,4.4-3.9,9-6.9,13c-1.5,2.1-3.3,3.3-5.4,4.4c-0.8,0.4-1.6,0.4-2.5,0c-6.2-3-10.5-7.6-12.1-14.4c-0.3-1.4-1-2.1-2.4-2.4
			c-5.8-1.6-10.2-4.9-12.1-10.9c0-0.1-0.1-0.1-0.1-0.2c0.2-3.4-2.1-4.5-4.7-5.8c-6.2-3.2-9.1-8.8-9.8-15.6c0-0.2,0-0.4,0-0.6
			c0.2-2.6-0.8-4.4-3.4-5.5c-4.1-1.8-7.4-4.8-9.8-8.7c-2.1-3.3-3.2-6.9-2.7-10.8c0.3-2.1-0.5-3.3-2.1-4.4c-3.2-2.1-5.9-4.7-7.6-8.1
			c-2.8-5.8-3.7-11.6,0.1-17.4c0.3-0.5,0.2-1,0-1.4c-2-6.2,1.6-11.4,6.3-13.4c5.6-2.4,12.1-0.7,15.3,4.3c0.5,0.8,1.1,1.3,2.1,1.4
			c7.6,1.1,13.8,7.5,14.7,15.1c0.1,0.8,0.2,1.4,1.1,1.7c5.7,1.5,8.1,5.9,9.6,11.1c0.6,2,0.8,4.1,0.7,6.2c0,0.6-0.1,1.2,0.7,1.5
			C161.3,142.2,164,145.3,165.8,149.6z M174.5,215.4c2.3-1,3.8-2.7,4.8-4.7c2-3.9,4.1-7.9,5.5-12.1c0.8-2.4,1.9-4.6,4.6-5.4
			c0.6-0.2,1.1-0.4,1.7-0.7c2.4-1.1,4.5-2.5,5.9-4.8c1.9-3,2.5-6.3,2.9-9.8c0.3-2.4,1.2-4.1,3.5-5.1c5.6-2.6,8.8-6.7,8.3-13.1
			c-0.1-1.4,0.6-2.5,1.7-3.3c0.9-0.6,1.8-1.1,2.7-1.6c4.4-2.6,8.3-5.6,8.5-11.3c0-1.1,0.1-2.2,0.2-3.3c0.1-1.2,0.4-2.4,1.4-3.3
			c3.5-2.8,5.3-6.6,7-10.6c0.8-1.7,1.3-3.7,0.3-5.3c-2.1-3.6-2-6.9,0.3-10.2c0.2-0.3,0.3-0.7,0.4-1c0.7-1.8,0.6-3.6-0.4-5.3
			c-1.8-2.9-4.1-4.8-7.8-4.3c-1.8,0.3-3.4-0.1-4.9-1.5c-3-3.1-5.5-3.1-8.7,0c-2.6,2.5-4.4,5.5-5.5,9c-0.7,2.4-1.8,3.3-4.1,3
			c-2.8-0.4-4.9,0.6-6.8,2.5c-3.7,3.8-5,8.6-5.6,13.6c-0.2,1.8-1,2.9-2.9,3c-2.2,0.1-3.8,1.3-5,3c-1.9,2.6-2.8,5.4-2.5,8.6
			c0.3,2.6-0.5,3.7-2.9,4.6c-5.3,2-8,6.2-9.2,11.5c-0.5,2.2-1,4.4-1.5,6.6c-0.3,1.2-1.2,1.8-2.3,1.7s-1.5-1-1.5-2
			c0.1-2.7-1.3-5.3-0.8-8.1c0.1-0.7-0.1-1.5-0.3-2.2c-0.9-4-3.3-6.7-7-8.5c-2.5-1.2-2.9-2.1-2.6-4.8c0.1-0.8,0.1-1.6,0.1-2.4
			c-0.1-5.8-2.7-9.7-8.1-11.7c-2.2-0.8-3.1-2.3-3.2-4.6c-0.1-2.3-1-4.2-2.4-6.1c-2.4-3.4-5.7-5.2-9.8-5.9c-1.4-0.2-2.5-0.9-3.2-2.2
			c-2.4-4.1-6.5-5.4-10.7-3.4c-3.9,1.8-5.2,5.1-3.7,9.9c0.3,1,0.4,2-0.2,2.8c-1.8,2.1-1.7,4.5-1.5,7c0.4,6.2,3.9,10.6,8.8,13.7
			c2.9,1.9,3.8,4,3.4,7.2c-0.4,3.6,0.8,6.9,3,9.8c2.3,3,5.2,5.2,8.5,6.9c2.4,1.2,3.4,3.2,3.8,5.7c0.1,1.2,0.2,2.3,0.4,3.5
			c1.1,6.2,4.2,11,10.4,13.1c2.4,0.8,3.5,2.3,3.6,4.7c0.1,1.7,0.7,3.2,1.6,4.6c2.1,3.5,5.5,5.2,9.2,6.2c2.1,0.6,3.3,1.7,3.7,3.8
			C166.4,208.3,170.3,212,174.5,215.4z"/>
		<path class="st2" d="M323.9,71.8c4.8-5.9,9.9-11.5,15.4-16.5c9.1-8.3,19.7-13.2,32-14c5.8-0.4,11,1.5,15.2,5.3
			c4.4,4,4.6,9.3,3,14.6c-1.8,6.3-5.6,11.4-9.6,16.4c-4.8,6-10.4,11.1-16.1,16.2c-5.6,5.1-11.1,10.3-16.7,15.5
			c-3.7,3.4-6.9,7.1-10.5,10.5c-2.1,1.9-3.5,4.3-5.5,6.3c-2.1,2.1-3.9,4.4-5.6,6.8c-2,2.8-3.7,5.9-5.5,8.8c-0.4,0.6-0.7,1.3-1.7,1.1
			c-0.9-0.2-1.2-0.8-1.2-1.6c-0.1-1.3-1.3-1.8-1.9-2.8c-4.1-7.8-8.2-15.4-12.4-23.1c-3-5.5-6.1-10.9-8.9-16.5
			c-2.4-4.7-4.8-9.4-7-14.2c-1.6-3.6-3.4-7.1-5-10.7c-2-4.6-3.8-9.3-4.5-14.3c-0.5-3.4-0.5-6.9,0.2-10.3c0.5-2.3,0.6-4.6,1.8-6.8
			c2.5-4.8,7.2-6.8,12-6.5c5.2,0.3,9.3,3,13,6.2c8,6.8,13.4,15.5,17.5,25C322.6,68.6,323.2,70.1,323.9,71.8z"/>
		<path class="st2" d="M347.1,391.1c5.1-6.7,9.8-13.4,14.4-20.1c3.6-5.2,7.2-10.5,11.1-15.5c0.6-0.7,1.2-1.4,1.9-2
			c0.6-0.5,1.3-0.7,2-0.2c0.8,0.5,1,1.2,0.8,2.1c-0.2,0.6-0.4,1.3-0.6,1.9c-7.8,16-16.6,31.5-26.8,46.2c-0.4,0.5-0.7,1-1.1,1.5
			c-0.6,0.8-1.2,1.5-2.2,1.4c-1.1-0.2-1.3-1-1.5-2c-0.1-0.8-0.6-1.5-1-2.2c-5.8-11.9-12.6-23.3-20.2-34.1c-4.7-6.6-9-13.3-11-21.3
			c-0.7-2.9-1.1-5.9-0.6-8.9c1-5.5,8.1-10.4,14.2-6.1c3.2,2.2,5.9,5,6.9,9c0.2,1,0.3,1.9-0.7,2.4c-1,0.4-1.6-0.4-2.1-1.1
			c-1.2-1.7-2.1-3.6-4.5-3.9c-0.9-0.1-1.4,0-1.6,0.9c-0.8,2.8-0.7,5.6,0.6,8.2c3.5,6.7,6.9,13.5,10.5,20.1c2.6,4.7,5.2,9.4,7.5,14.3
			C344.6,384.5,345.9,387.6,347.1,391.1z"/>
		<path class="st2" d="M384.3,338.5c-0.5,2.9-1.2,5.7-2.7,8.3c-0.5,0.9-1.4,1.3-2.5,1s-1.4-1.3-1.2-2.2c0.5-3.1,1.8-6,3.5-8.7
			c0.4-0.6,1.1-1.1,1.9-0.8C384.3,336.6,384.3,337.5,384.3,338.5z"/>
		<path class="st2" d="M385.6,330.2c-0.1,0.7-0.2,1.1-0.3,1.5c-0.2,1.4-0.9,2.3-2.5,2.1c-1.6-0.3-1.7-1.5-1.5-2.8
			c0.1-0.5,0.2-1,0.4-1.4c0.4-1.1,0.9-2.1,2.3-1.9C385.6,327.9,385.2,329.4,385.6,330.2z"/>
		<path class="st2" d="M342.8,161.7c1.1,0.2,2.3,0.3,2.6,1.6c0.3,1.1-0.4,1.7-1.3,2.1c-1,0.5-1.3,1.3-1,2.5
			c0.8,3.8,2.7,7.1,4.4,10.4c4.7,9.1,10.7,17.5,15.9,26.4c1.4,2.4,3,4.8,4.4,7.2c0.4,0.6,0.9,1.3,0.1,2c-0.9,0.7-1.6,0.1-2-0.5
			c-1.7-2.5-3.4-4.9-5-7.5c-5.1-8.2-11.3-15.5-16.4-23.7c-2.4-3.9-5-7.7-6.2-12.2c-0.5-1.8-0.6-3.6,0.2-5.4
			C339.4,162.8,340.9,162,342.8,161.7z"/>
		<path class="st2" d="M368.4,161.6c1.1-5.5,1.9-11.1,5.5-15.7c1.3-1.6,2.9-2.5,5.1-2.3c1.1,0.1,1.8,0.6,1.9,1.8
			c0.1,1.1-0.5,1.7-1.6,1.9c-2,0.3-2.7,2.1-3.4,3.5c-1.8,3.4-3,6.9-4.2,10.5c-0.1,0.4-0.1,0.8-0.3,1c-0.6,0.5-0.7,1.8-1.9,1.3
			C368.5,163.4,368.3,162.6,368.4,161.6z"/>
		<path class="st2" d="M450.5,45.4c2-3.2,4.1-6.2,6.4-9c2.6-3.2,5.8-5.7,9.2-7.8c1.6-1,3.4-1.6,5.4-1.5c2.4,0.2,3.7,1.7,3.3,4.1
			c-0.4,2.3-1.3,4.5-2.3,6.5c-3.9,7.8-9.1,14.7-14.2,21.7c-1.5,2-2.9,4.1-4.5,6.1c-1.4,1.7-2.5,1.6-3.9-0.1
			c-4.9-6.2-9.9-12.5-13.6-19.6c-1.8-3.3-3.7-6.5-4.2-10.3c-0.3-2.1-0.1-4.2,1.9-5.3c2.2-1.3,4.3-0.6,6.1,0.9
			c4,3.2,6.5,7.5,8.9,11.8C449.6,43.6,450,44.4,450.5,45.4z"/>
		<path class="st2" d="M697,46.5c1.3-2.7,2.5-5.2,4.4-7.2c0.5-0.5,0.9-1,1.5-1.4c0.9-0.8,2-1.1,3-0.4c1.1,0.7,1,1.9,0.8,3
			c-0.3,1.2-0.7,2.5-1.1,3.7c-1.7,4.5-3.4,9-5.1,13.5c-0.3,0.8-0.7,1.7-1.2,2.4c-1.3,2-3.5,1.9-4.5-0.3c-1.9-4.3-3.5-8.8-4.9-13.4
			c-0.8-2.8-1.9-5.5-1.9-8.5c0-1.3,0.2-2.4,1.5-2.8c1.4-0.5,2.4,0.3,3.1,1.4c1.6,2.7,3,5.6,3.9,8.6C696.6,45.5,696.7,45.9,697,46.5z
			"/>
		<path class="st2" d="M167.3,61.8c3-3.5,6.2-6.7,9.5-9.8c2.3-2.1,4.6-4.2,7.5-5.5c0.6-0.2,1.1-0.5,1.7-0.7c1.1-0.4,2.2-0.2,3.1,0.7
			c0.9,0.9,0.7,2,0.2,3.1c-1.8,4-4.6,7.3-7.3,10.8c-4.5,5.7-9.8,10.8-14.1,16.8c-0.5,0.7-1.2,1.4-1.9,2c-2.6,2.3-4.2,1.9-5.6-1.3
			c-1.4-3.3-2.9-6.6-4.2-9.9c-2.1-5.1-4-10.2-5.1-15.6c-0.4-1.9-0.5-3.8,0.1-5.6c0.8-2.5,2.4-3.3,4.8-2.4c2.3,0.8,4,2.3,5.4,4.2
			c2,2.6,3.4,5.5,4.1,8.7C166,58.7,166.5,60.2,167.3,61.8z"/>
		<path class="st2" d="M168.2,186.4c2.5-6.8,5.7-12.9,8.9-18.9c8.9-16.3,19.1-31.9,31.1-46.2c1.7-2.1,3.6-4,5.8-5.7
			c0.8-0.6,1.7-1.2,2.7-1.5c2.4-0.7,4.5,0.8,4.6,3.3c0.1,1.2-0.3,2.3-0.7,3.4c-3.9,11.4-9.5,21.9-16.1,31.9
			c-8.8,13.4-17.8,26.8-27.6,39.5c-1.3,1.7-2.7,3.4-4.4,4.7c-2.4,1.9-3.6,1.9-6,0c-4.1-3.3-7.6-7.2-10.8-11.3
			c-6.8-8.7-13-17.8-19.1-27c-2.1-3.2-4.2-6.4-6-9.8c-1.3-2.5-2.9-4.9-4.4-7.4c-2.4-4.2-5-8.4-6.5-13.1c-0.7-2.2-2.1-4.7-0.5-7.3
			c0.9-1.4,2.3-1.8,3.6-1.2c3.3,1.5,5.9,3.8,8,6.8c1.2,1.8,2.2,3.9,3.6,5.4c3.4,3.8,5.6,8.3,8.4,12.4c2.5,3.8,4.8,7.7,7.3,11.5
			C156.6,165.7,162.3,175.9,168.2,186.4z"/>
	</g>
</g>
</svg>
