<svg xmlns="http://www.w3.org/2000/svg" viewBox="0 0 1759.94 665"><defs><style>.cls-1{fill:#ff85bc;}</style></defs><g id="Capa_2" data-name="Capa 2"><g id="Capa_1-2" data-name="Capa 1"><path class="cls-1" d="M331.88,404.17l191-260s5.31-14.15-14.15-16.8c0,0,128.69-39.36,110.11,11,0,0,52.53-37.31,101.19-12.26A47.33,47.33,0,0,1,744.89,178c-2,9.21-6.38,19.9-14.56,32.07C701,253.64,580.7,434.39,556.08,471.39a53.85,53.85,0,0,0-8.56,21.85c-1.81,12.16.37,26.37,22.72,21l-68.13,32.83a34.66,34.66,0,0,1-19.41,3.34c-12.36-1.58-26.67-10.63-15.06-47.67,0,0-60.86,50.72-118.18,45.88-24-2-45.37-16.94-54.29-39.35-8-20-8-49.42,23.88-87h91.1s-68.1,76.94-38,88.44,83.14-35.38,98.17-54.83,107-164.51,107-164.51l76.07-108.79s45.54-57.35-11.61-45.23a35.37,35.37,0,0,0-8,2.75c-6.4,3.08-19.38,9.59-24.61,14.17L447.3,367.47s-27.42,36.26,0,37.15Z"/><path class="cls-1" d="M768.41,128.42s90.29-29.21,103.57-8S868.44,170,868.44,170L674.58,489.58S656,521.45,678.12,517.9c0,0-8.68,24.52-41.18,30.49-36.28,6.66-66.37-28.78-53-63.15a90.84,90.84,0,0,1,8.3-16l196.07-297S821.08,128.86,768.41,128.42Z"/><circle class="cls-1" cx="875.42" cy="51.02" r="51.02"/><circle class="cls-1" cx="568.43" cy="613.98" r="51.02"/><path class="cls-1" d="M926.76,127.51s24.68,4.41,10.58,23.81S819.22,328.57,819.22,328.57,759.28,400,803.35,415c0,0,25.57,12.35,96.08-8.81l-53.32,71s-28.21,19.4-59.06,20.28-27.33-33.51-27.33-33.51l-34.37-12.34s-42.27,24.48-37,58.46a30.28,30.28,0,0,0,8.51,16.81c6.66,6.66,19.65,15.74,42.11,17.88a97.8,97.8,0,0,0,39.88-4.68c11.09-3.66,26.06-9.46,33.79-16.16,0,0-11.46,12.34,8.81,22.93s101.37-11.47,101.37-11.47-23.8-4.41-12.34-20.28l61.21-84.78q6-8.39,12.72-16.28c12.57-14.84,41.35-53.4,8-61.19,0,0-23.8-7.06-89.91,11.46,0,0-23.8,8.82-13.22-7.94s12.34-18.52,12.34-18.52L1026.8,155.29s24.69-21.17,45.84-19.4,19.39,17.63,2.64,41.44l88.15-15.87s0-35.11-49.6-42.11a100.69,100.69,0,0,0-45.74,4.24c-10.19,3.38-22.5,8.67-33.35,16.71,0,0,9.69-7.06,1.76-16.76s-11.46-10.58-35.26-9.7S926.76,127.51,926.76,127.51Z"/><path class="cls-1" d="M1191.17,126.29s72.18-18.48,95.06-12.32c0,0,20.25,7,9.69,24.65,0,0,45.91-37.63,96.67-15.47,18.55,8.11,29.9,27.21,27.27,47.29-1.31,10.05-5.58,22-14.79,36-34.33,51.93-77.47,110.91-77.47,110.91l-191.45,48-91.55,129.4s-25.12,35.66,15.63,31.55a33.69,33.69,0,0,0,10.41-2.84,161.82,161.82,0,0,0,25.9-14.63l97.71-127.63,106.51-27.29L1181.13,517.13a9,9,0,0,0-1.66,7.12c.76,3.63,4.09,8.13,14.78,10.92,0,0-49.3,15-83.63,14.09s-27.29-23.77-21.12-26.41c0,0-49.3,37.85-100.35,13.2s-7.93-83.62-7.93-83.62l83.63-118.84,195.42-49.29,80.1-118s20.7-31.05-7.55-32.06a39.76,39.76,0,0,0-20.34,4.93l-24,13-88.9,117.07L1092.14,297.5l112.67-154S1211.85,132,1191.17,126.29Z"/><path class="cls-1" d="M191.5,139s44.83.92,11,56.72l-165.57,236S-22.55,510.35,9.47,537.8c0,0,12.8,11.89,57.63,11.89H241.82s-50.32,1.83,23.78-98.79S452.21,197.51,452.21,197.51,507.55,124.78,407,97.44a150,150,0,0,0-26.29-4.56c-41.09-3.56-176.44-9.26-240.39,61.63,0,0,40.25-54,217.71-46.65,0,0,46.12,0,35.49,37.34a52.12,52.12,0,0,1-7.79,15.91L182.36,445.41s-42.64,69.07-81,64.78A12.93,12.93,0,0,1,92,504.7c-3.94-5.86-6.26-18,9.83-41,22-31.44,150.07-212.84,185.66-263.26,4.4-6.23,9-12.33,13.66-18.35,10.66-13.73,32.85-49.33-20.94-52.28C280.24,129.81,247.3,129.81,191.5,139Z"/><path class="cls-1" d="M1660.35,179c2.83-4,5.81-7.87,8.89-11.67,8.5-10.52,27.49-39.11-11.6-45.1,0,0,112.08-29.62,101.61,21.92a39.71,39.71,0,0,1-3.71,10.27,443.55,443.55,0,0,1-32,51.91c-21.68,30.35-176.87,261-176.87,261s-16.91,29.91-7.37,43.79c0,0-17.5,23.33-54.75,19a37.15,37.15,0,0,1-32.8-33.38c-1.34-15,3.23-36,23.39-63.65C1522,368.92,1660.35,179,1660.35,179Z"/><path class="cls-1" d="M1399.6,560.09C1567.8,567,1606,515.88,1606,515.88c-60.61,67.18-188.9,61.78-227.84,58.41a142,142,0,0,1-24.92-4.32l-18.66-5.48c-24.54-8.23-33.44-17.29-35.43-19.63-.5-.6-1-1.17-1.55-1.74-33.81-36.75,3.86-77.1,3.86-77.1-43.35,5.2-39-35.55-39-35.55l22.55-32.08a45,45,0,0,0,2.22,14.95,21.31,21.31,0,0,0,21.67,13.93c15.53-1,22.92-9.8,22.92-9.8l22.74-27.86q2.1-2.57,4-5.27l159.36-221.8c8.9-12.42,20.33-35.81-14.59-41.16,0,0,112.08-29.62,101.61,21.92a39.78,39.78,0,0,1-3.71,10.28c-3.07,5.92-10,18.71-20.21,34.54l-.83,1.3L1363.74,510a41.37,41.37,0,0,0-6.68,16.54c-4.88,30.28,30,32.89,37.56,33.11Z"/></g></g></svg>